{"glyphs":{"0":{"ha":793,"x_min":66,"x_max":779,"o":"m 779 691 q 719 326 779 496 q 559 70 659 156 q 334 -17 460 -17 q 138 70 210 -17 q 66 311 66 157 q 126 652 66 490 q 289 901 186 814 q 519 989 391 989 q 710 910 640 989 q 779 691 779 831 m 618 690 q 589 817 618 773 q 507 860 560 860 q 375 788 435 860 q 272 568 316 716 q 228 298 228 419 q 259 162 228 212 q 347 113 290 113 q 480 194 424 113 q 577 418 537 274 q 618 690 618 562 z "},"1":{"ha":572,"x_min":102,"x_max":530,"o":"m 157 0 l 330 811 l 102 756 l 133 897 l 530 989 l 321 0 l 157 0 z "},"2":{"ha":705,"x_min":-43,"x_max":707,"o":"m 541 731 q 505 822 541 789 q 399 856 468 856 q 266 829 332 856 q 145 759 200 802 l 180 919 q 441 989 286 989 q 636 927 566 989 q 707 760 707 866 q 680 619 707 681 q 598 503 654 557 q 408 364 543 449 q 222 233 272 281 q 163 138 173 185 l 594 138 l 565 0 l -43 0 l -31 60 q 23 198 -15 137 q 122 316 60 260 q 312 453 184 372 q 450 552 401 509 q 520 635 499 595 q 541 731 541 676 z "},"3":{"ha":670,"x_min":-40,"x_max":675,"o":"m 675 764 q 607 589 675 659 q 418 499 538 519 l 418 496 q 552 425 505 481 q 600 286 600 368 q 554 127 600 196 q 421 21 509 58 q 214 -17 334 -17 q 81 -3 148 -17 q -40 39 14 12 l -9 178 q 97 131 35 150 q 213 113 159 113 q 378 157 319 113 q 436 285 436 202 q 384 395 436 354 q 222 435 332 435 l 143 435 l 171 565 l 262 565 q 445 610 379 565 q 511 736 511 655 q 471 828 511 795 q 362 860 431 860 q 149 807 255 860 l 180 949 q 407 989 289 989 q 603 928 530 989 q 675 764 675 867 z "},"4":{"ha":783,"x_min":2,"x_max":767,"o":"m 756 972 l 623 345 l 767 345 l 739 214 l 595 214 l 549 0 l 397 0 l 442 214 l 2 214 l 30 346 q 341 660 189 490 q 595 972 494 829 l 756 972 m 470 345 l 556 747 q 191 345 400 549 l 470 345 z "},"5":{"ha":692,"x_min":-5,"x_max":729,"o":"m 342 597 q 557 528 480 597 q 634 336 634 459 q 582 152 634 236 q 439 26 530 68 q 228 -17 348 -17 q 98 -5 165 -17 q -5 26 31 6 l 26 167 q 120 128 61 144 q 231 113 180 113 q 359 139 306 113 q 441 212 413 166 q 470 313 470 257 q 425 428 470 388 q 275 467 379 467 q 107 458 183 467 l 234 972 l 729 972 l 700 835 l 345 835 l 283 595 l 342 597 z "},"6":{"ha":756,"x_min":71,"x_max":777,"o":"m 747 819 q 587 860 681 860 q 435 814 505 860 q 316 685 366 769 q 243 496 266 602 l 245 496 q 342 583 281 550 q 472 616 403 616 q 647 547 583 616 q 711 351 711 477 q 666 163 711 250 q 544 30 621 76 q 370 -16 467 -16 q 150 77 229 -16 q 71 337 71 170 q 140 670 71 518 q 330 905 209 821 q 600 989 452 989 q 777 960 703 989 l 747 819 m 552 336 q 514 450 552 410 q 410 490 477 490 q 282 432 332 490 q 232 291 232 374 q 271 162 232 209 q 378 115 311 115 q 503 178 453 115 q 552 336 552 242 z "},"7":{"ha":696,"x_min":58,"x_max":775,"o":"m 233 0 l 58 0 q 255 400 123 183 q 564 835 387 618 l 97 835 l 127 972 l 775 972 l 755 878 q 416 389 536 596 q 233 0 296 181 z "},"8":{"ha":774,"x_min":28,"x_max":775,"o":"m 28 241 q 94 423 28 347 q 276 527 160 499 q 171 713 171 593 q 211 853 171 790 q 327 953 252 917 q 503 989 402 989 q 702 927 629 989 q 775 762 775 865 q 721 604 775 669 q 570 511 667 539 q 670 429 633 483 q 707 300 707 374 q 659 140 707 214 q 526 26 612 67 q 334 -16 441 -16 q 109 53 189 -16 q 28 241 28 121 m 197 251 q 236 148 197 186 q 346 111 276 111 q 483 166 428 111 q 538 307 538 222 q 499 410 538 371 q 397 448 460 448 q 254 392 311 448 q 197 251 197 336 m 330 698 q 362 610 330 643 q 450 577 395 577 q 564 625 515 577 q 614 742 614 673 q 581 830 614 797 q 490 863 548 863 q 374 816 419 863 q 330 698 330 769 z "},"9":{"ha":762,"x_min":37,"x_max":743,"o":"m 743 638 q 706 389 743 509 q 601 177 669 269 q 435 35 532 86 q 210 -16 338 -16 q 106 -7 151 -16 q 37 13 60 1 l 60 153 q 218 113 127 113 q 444 210 351 113 q 570 473 537 306 l 568 473 q 347 351 484 351 q 215 386 271 351 q 129 483 159 420 q 98 622 98 546 q 146 812 98 724 q 271 945 193 901 q 447 989 349 989 q 664 895 585 989 q 743 638 743 800 m 583 679 q 544 808 583 758 q 440 858 504 858 q 346 828 387 858 q 283 747 305 798 q 260 637 260 696 q 298 519 260 563 q 399 476 336 476 q 495 502 454 476 q 560 575 536 528 q 583 679 583 623 z "},"\r":{"ha":101,"x_min":0,"x_max":0,"o":""}," ":{"ha":382,"x_min":0,"x_max":0,"o":""},"!":{"ha":462,"x_min":77,"x_max":446,"o":"m 281 288 l 149 288 l 275 972 l 446 972 l 281 288 m 277 82 q 249 14 277 42 q 176 -14 220 -14 q 106 12 134 -14 q 77 76 77 38 q 107 145 77 117 q 180 173 136 173 q 249 147 220 173 q 277 82 277 121 z "},"\"":{"ha":602,"x_min":195,"x_max":561,"o":"m 547 676 l 439 676 l 425 979 l 561 979 l 547 676 m 317 676 l 209 676 l 195 979 l 331 979 l 317 676 z "},"#":{"ha":807,"x_min":52,"x_max":823,"o":"m 802 615 l 651 615 l 611 430 l 776 430 l 752 332 l 591 332 l 535 81 l 424 81 l 478 332 l 316 332 l 262 81 l 152 81 l 205 332 l 52 332 l 72 430 l 226 430 l 264 614 l 102 614 l 121 712 l 284 712 l 338 969 l 450 969 l 397 712 l 559 712 l 614 969 l 725 969 l 672 712 l 823 712 l 802 615 m 376 615 l 335 430 l 500 430 l 540 615 l 376 615 z "},"$":{"ha":774,"x_min":46,"x_max":743,"o":"m 715 799 q 537 856 631 844 l 469 534 q 671 275 671 420 q 634 129 671 192 q 527 30 597 66 q 353 -9 456 -6 l 324 -142 l 241 -142 l 269 -7 q 146 14 212 -4 q 46 49 80 32 l 74 189 q 178 142 113 164 q 294 115 242 121 l 361 425 q 236 514 277 475 q 174 601 195 554 q 153 704 153 647 q 193 846 153 783 q 306 944 232 908 q 479 981 380 980 l 503 1097 l 588 1097 l 562 978 q 743 934 656 970 l 715 799 m 452 856 q 342 812 382 852 q 302 714 302 772 q 322 645 302 676 q 393 577 341 613 l 452 856 m 523 258 q 504 320 523 292 q 437 382 484 349 l 380 115 q 484 158 445 118 q 523 258 523 197 z "},"%":{"ha":1175,"x_min":115,"x_max":1111,"o":"m 1111 288 q 1077 139 1111 210 q 982 27 1042 68 q 844 -14 921 -14 q 731 13 777 -14 q 661 86 685 39 q 636 191 636 134 q 674 343 636 271 q 772 454 711 416 q 908 491 833 491 q 1057 436 1004 491 q 1111 288 1111 381 m 260 0 l 126 0 l 963 972 l 1097 972 l 260 0 m 590 783 q 553 629 590 701 q 456 519 516 557 q 323 481 395 481 q 210 508 256 481 q 140 581 164 534 q 115 688 115 627 q 152 838 115 766 q 250 948 189 909 q 387 986 311 986 q 536 932 481 986 q 590 783 590 878 m 992 285 q 969 365 992 335 q 904 394 946 394 q 828 366 862 394 q 774 288 794 337 q 755 191 755 239 q 779 112 755 142 q 848 83 804 83 q 950 142 909 83 q 992 285 992 202 m 471 780 q 447 861 471 833 q 383 890 423 890 q 308 862 341 890 q 254 785 274 833 q 234 687 234 737 q 259 607 234 637 q 327 578 284 578 q 400 606 367 578 q 453 681 434 634 q 471 780 471 727 z "},"&":{"ha":1004,"x_min":50,"x_max":956,"o":"m 956 516 q 769 182 911 328 l 903 0 l 718 0 l 653 88 q 335 -18 513 -18 q 181 15 245 -18 q 83 104 117 47 q 50 231 50 161 q 116 409 50 334 q 334 543 182 483 q 268 737 268 642 q 303 865 268 807 q 404 956 338 922 q 555 989 470 989 q 687 962 631 989 q 774 889 744 936 q 804 783 804 842 q 740 629 804 694 q 536 509 675 564 l 696 288 q 809 516 779 385 l 956 516 m 654 773 q 626 844 654 817 q 549 871 597 871 q 455 836 491 871 q 418 743 418 800 q 471 601 418 673 q 616 684 578 646 q 654 773 654 722 m 585 186 l 531 260 l 397 448 q 254 360 298 407 q 210 249 210 313 q 252 145 210 185 q 362 106 294 106 q 585 186 482 106 z "},"'":{"ha":360,"x_min":192,"x_max":327,"o":"m 312 677 l 205 677 l 192 979 l 327 979 l 312 677 z "},"(":{"ha":468,"x_min":96,"x_max":600,"o":"m 600 972 q 325 592 411 781 q 238 202 238 404 q 265 -17 238 92 q 340 -208 292 -126 l 210 -208 q 126 -11 156 -123 q 96 210 96 101 q 183 612 96 423 q 453 972 271 801 l 600 972 z "},")":{"ha":468,"x_min":-130,"x_max":375,"o":"m 375 553 q 287 152 375 340 q 17 -208 199 -36 l -130 -208 q 145 169 58 -19 q 233 561 233 357 q 205 780 233 671 q 130 972 178 888 l 260 972 q 343 779 312 892 q 375 553 375 666 z "},"*":{"ha":606,"x_min":114,"x_max":621,"o":"m 435 700 l 567 546 l 467 477 l 367 653 l 267 477 l 168 546 l 300 700 l 114 731 l 153 842 l 326 772 l 304 972 l 430 972 l 408 772 l 582 842 l 621 731 l 435 700 z "},"+":{"ha":967,"x_min":174,"x_max":823,"o":"m 555 344 l 555 77 l 442 77 l 442 344 l 174 344 l 174 458 l 442 458 l 442 726 l 555 726 l 555 458 l 823 458 l 823 344 l 555 344 z "},",":{"ha":339,"x_min":-64,"x_max":239,"o":"m 68 -176 l -64 -176 l 83 162 l 239 162 l 68 -176 z "},"-":{"ha":558,"x_min":85,"x_max":481,"o":"m 456 319 l 85 319 l 111 438 l 481 438 l 456 319 z "},".":{"ha":339,"x_min":12,"x_max":212,"o":"m 212 79 q 183 11 212 37 q 111 -16 153 -16 q 40 9 68 -16 q 12 74 12 35 q 42 142 12 115 q 115 170 71 170 q 184 144 157 170 q 212 79 212 117 z "},"/":{"ha":583,"x_min":-132,"x_max":742,"o":"m 33 -161 l -132 -161 l 578 972 l 742 972 l 33 -161 z "},":":{"ha":339,"x_min":12,"x_max":325,"o":"m 325 615 q 295 547 325 574 q 222 519 266 519 q 152 546 179 519 q 125 610 125 572 q 154 679 125 652 q 227 706 184 706 q 296 680 268 706 q 325 615 325 654 m 212 79 q 183 11 212 37 q 111 -16 153 -16 q 40 9 68 -16 q 12 74 12 35 q 42 142 12 115 q 115 170 71 170 q 184 144 157 170 q 212 79 212 117 z "},";":{"ha":339,"x_min":-81,"x_max":325,"o":"m 325 615 q 295 547 325 574 q 222 519 266 519 q 152 546 179 519 q 125 610 125 572 q 154 679 125 652 q 227 706 184 706 q 296 680 268 706 q 325 615 325 654 m 50 -176 l -81 -176 l 65 162 l 222 162 l 50 -176 z "},"<":{"ha":967,"x_min":158,"x_max":766,"o":"m 158 360 l 158 436 l 766 750 l 766 618 l 323 401 l 323 398 l 766 201 l 766 71 l 158 360 z "},"=":{"ha":967,"x_min":174,"x_max":823,"o":"m 174 489 l 174 604 l 823 604 l 823 489 l 174 489 m 174 197 l 174 312 l 823 312 l 823 197 l 174 197 z "},">":{"ha":967,"x_min":216,"x_max":824,"o":"m 216 71 l 216 201 l 661 397 l 661 401 l 216 618 l 216 750 l 824 436 l 824 361 l 216 71 z "},"?":{"ha":610,"x_min":115,"x_max":650,"o":"m 650 772 q 605 624 650 691 q 462 492 559 556 q 362 401 393 446 q 318 283 331 355 l 178 283 q 235 450 200 391 q 340 556 270 509 q 457 657 424 614 q 490 747 490 699 q 453 829 490 798 q 358 861 416 861 q 159 800 252 861 l 189 951 q 396 994 286 994 q 581 934 512 994 q 650 772 650 874 m 315 82 q 286 14 315 41 q 212 -14 256 -14 q 143 12 172 -14 q 115 76 115 38 q 144 145 115 117 q 218 173 172 173 q 287 146 258 173 q 315 82 315 119 z "},"@":{"ha":1329,"x_min":121,"x_max":1249,"o":"m 1249 545 q 1206 331 1249 429 q 1085 178 1162 233 q 909 122 1007 122 q 803 154 842 122 q 763 237 763 186 q 766 267 763 248 l 763 267 q 676 160 724 197 q 562 123 627 123 q 438 182 486 123 q 391 340 391 241 q 437 535 391 444 q 557 679 483 627 q 718 730 631 730 q 802 709 767 730 q 850 650 837 688 l 853 650 l 872 719 l 993 719 q 882 282 882 343 q 896 234 882 248 q 938 221 909 221 q 1035 264 989 221 q 1108 380 1081 308 q 1135 530 1135 452 q 1090 717 1135 637 q 957 840 1044 796 q 743 884 869 884 q 489 818 605 884 q 308 634 373 751 q 242 371 242 516 q 352 77 242 180 q 664 -27 461 -27 q 847 -10 753 -27 q 991 33 940 7 l 970 -75 q 839 -112 927 -96 q 654 -127 751 -127 q 263 6 405 -127 q 121 369 121 138 q 204 688 121 546 q 433 907 288 829 q 755 985 579 985 q 1019 930 907 985 q 1190 775 1131 876 q 1249 545 1249 674 m 811 541 q 787 610 811 585 q 724 634 763 634 q 623 595 669 634 q 548 487 576 555 q 520 343 520 418 q 545 254 520 285 q 607 222 569 222 q 680 249 646 222 q 743 323 715 275 q 791 436 771 371 q 811 541 811 502 z "},"A":{"ha":927,"x_min":-70,"x_max":844,"o":"m 673 0 l 637 244 l 256 244 l 121 0 l -70 0 l 500 972 l 690 972 l 844 0 l 673 0 m 569 779 l 569 803 l 570 827 l 567 827 q 535 752 553 786 l 326 380 l 619 380 l 572 746 q 569 779 569 758 z "},"B":{"ha":848,"x_min":41,"x_max":821,"o":"m 821 758 q 762 594 821 661 q 594 507 703 528 l 594 505 q 724 439 677 492 q 771 307 771 386 q 667 83 771 166 q 383 0 564 0 l 41 0 l 248 972 l 554 972 q 750 916 680 972 q 821 758 821 859 m 646 725 q 609 811 646 782 q 505 840 572 840 l 389 840 l 330 568 l 445 568 q 593 609 540 568 q 646 725 646 651 m 595 302 q 552 399 595 363 q 424 435 510 435 l 302 435 l 238 132 l 378 132 q 539 177 484 132 q 595 302 595 221 z "},"C":{"ha":884,"x_min":81,"x_max":930,"o":"m 895 774 q 659 842 781 842 q 449 788 541 842 q 307 638 357 734 q 257 422 257 543 q 334 206 257 283 q 543 129 411 129 q 669 144 610 129 q 791 193 728 159 l 755 31 q 503 -17 646 -17 q 280 36 376 -17 q 133 185 184 88 q 81 408 81 281 q 154 711 81 577 q 360 917 227 845 q 668 989 493 989 q 930 936 805 989 l 895 774 z "},"D":{"ha":1017,"x_min":41,"x_max":983,"o":"m 983 579 q 910 273 983 406 q 705 70 837 139 q 392 0 572 0 l 41 0 l 248 972 l 555 972 q 867 867 751 972 q 983 579 983 762 m 808 566 q 732 764 808 696 q 514 831 657 831 l 387 831 l 239 140 l 397 140 q 614 193 520 140 q 758 344 707 246 q 808 566 808 442 z "},"E":{"ha":714,"x_min":41,"x_max":774,"o":"m 744 831 l 387 831 l 328 556 l 661 556 l 630 415 l 298 415 l 239 140 l 620 140 l 591 0 l 41 0 l 248 972 l 774 972 l 744 831 z "},"F":{"ha":701,"x_min":41,"x_max":776,"o":"m 745 829 l 387 829 l 326 545 l 658 545 l 627 403 l 295 403 l 210 0 l 41 0 l 248 972 l 776 972 l 745 829 z "},"G":{"ha":970,"x_min":84,"x_max":955,"o":"m 922 770 q 802 825 872 804 q 656 846 732 846 q 448 793 538 846 q 308 645 357 741 q 259 426 259 549 q 334 205 259 286 q 538 125 409 125 q 675 148 612 125 l 725 388 l 513 388 l 543 526 l 922 526 l 822 56 q 517 -18 682 -18 q 288 36 387 -18 q 137 189 189 90 q 84 414 84 288 q 156 713 84 581 q 360 917 228 845 q 669 989 492 989 q 955 929 814 989 l 922 770 z "},"H":{"ha":1022,"x_min":41,"x_max":1034,"o":"m 827 0 l 659 0 l 747 416 l 298 416 l 211 0 l 41 0 l 248 972 l 417 972 l 330 565 l 779 565 l 866 972 l 1034 972 l 827 0 z "},"I":{"ha":405,"x_min":41,"x_max":416,"o":"m 210 0 l 41 0 l 247 972 l 416 972 l 210 0 z "},"J":{"ha":548,"x_min":-65,"x_max":568,"o":"m 64 -17 q -6 -8 35 -17 q -65 9 -47 0 l -36 165 q 11 140 -20 151 q 70 128 41 128 q 196 185 148 128 q 271 367 244 241 l 400 972 l 568 972 l 439 366 q 304 76 397 170 q 64 -17 212 -17 z "},"K":{"ha":868,"x_min":41,"x_max":968,"o":"m 968 972 l 484 494 l 785 0 l 581 0 l 344 417 q 316 477 327 446 l 313 477 l 210 0 l 41 0 l 248 972 l 417 972 l 321 518 l 323 518 l 356 556 l 757 972 l 968 972 z "},"L":{"ha":677,"x_min":41,"x_max":614,"o":"m 584 0 l 41 0 l 248 972 l 417 972 l 241 143 l 614 143 l 584 0 z "},"M":{"ha":1172,"x_min":41,"x_max":1183,"o":"m 977 0 l 822 0 l 953 617 q 1004 818 972 703 l 1000 818 q 891 642 966 741 l 616 273 l 511 273 l 400 630 q 378 722 388 667 q 366 818 368 776 l 361 818 q 326 616 338 668 l 195 0 l 41 0 l 248 972 l 446 972 l 572 572 q 596 451 593 508 l 600 451 q 676 585 637 532 l 967 972 l 1183 972 l 977 0 z "},"N":{"ha":1076,"x_min":41,"x_max":1088,"o":"m 882 0 l 720 0 l 388 699 q 374 732 384 707 q 362 768 364 758 l 358 768 l 352 722 l 344 673 l 201 0 l 41 0 l 247 972 l 424 972 l 749 277 q 771 220 764 243 l 774 220 q 787 311 777 267 l 928 972 l 1088 972 l 882 0 z "},"O":{"ha":1050,"x_min":84,"x_max":1017,"o":"m 1017 574 q 950 280 1017 417 q 765 63 883 142 q 485 -17 647 -17 q 275 35 366 -17 q 134 183 184 87 q 84 399 84 279 q 124 635 84 527 q 240 826 164 744 q 411 949 317 909 q 618 989 506 989 q 826 938 735 989 q 967 792 918 886 q 1017 574 1017 697 m 840 568 q 775 768 840 694 q 600 842 711 842 q 428 784 508 842 q 304 621 349 726 q 260 400 260 515 q 323 202 260 276 q 498 129 387 129 q 673 186 595 129 q 795 349 751 243 q 840 568 840 456 z "},"P":{"ha":837,"x_min":41,"x_max":845,"o":"m 845 706 q 795 520 845 600 q 652 395 746 439 q 427 351 557 351 l 284 351 l 210 0 l 41 0 l 248 972 l 541 972 q 764 902 683 972 q 845 706 845 831 m 669 694 q 625 798 669 759 q 497 837 581 837 l 388 837 l 313 486 l 432 486 q 606 541 543 486 q 669 694 669 595 z "},"Q":{"ha":1050,"x_min":84,"x_max":1017,"o":"m 1017 572 q 967 316 1017 439 q 829 111 918 193 q 629 3 741 29 l 836 -242 l 619 -242 l 465 -16 q 263 42 349 -12 q 131 189 177 96 q 84 397 84 282 q 154 699 84 560 q 347 913 224 838 q 620 989 469 989 q 908 874 800 989 q 1017 572 1017 760 m 840 566 q 776 768 840 695 q 604 842 711 842 q 428 783 507 842 q 304 621 349 724 q 260 399 260 519 q 324 202 260 275 q 498 129 388 129 q 672 185 595 129 q 795 346 749 242 q 840 566 840 450 z "},"R":{"ha":848,"x_min":41,"x_max":839,"o":"m 839 728 q 760 532 839 609 q 551 440 680 454 l 551 437 q 656 296 627 412 l 731 0 l 551 0 l 489 270 q 443 362 475 332 q 355 393 410 393 l 294 393 l 210 0 l 41 0 l 248 972 l 548 972 q 762 908 685 972 q 839 728 839 844 m 663 704 q 625 802 663 765 q 509 839 587 839 l 389 839 l 322 527 l 434 527 q 602 575 541 527 q 663 704 663 623 z "},"S":{"ha":718,"x_min":22,"x_max":728,"o":"m 698 787 q 595 833 655 816 q 481 851 535 851 q 393 833 429 851 q 337 786 356 815 q 317 721 317 756 q 346 634 317 672 q 455 542 374 595 q 600 410 559 472 q 640 271 640 348 q 597 118 640 186 q 476 17 554 50 q 292 -17 398 -17 q 149 1 222 -17 q 22 48 76 19 l 51 203 q 168 143 102 165 q 296 121 234 121 q 421 156 377 121 q 465 254 465 191 q 434 340 465 303 q 316 431 403 376 q 182 555 224 490 q 140 700 140 621 q 182 848 140 782 q 302 952 224 915 q 485 989 379 989 q 728 940 604 989 l 698 787 z "},"T":{"ha":772,"x_min":121,"x_max":876,"o":"m 845 831 l 570 831 l 394 0 l 226 0 l 401 831 l 121 831 l 152 972 l 876 972 l 845 831 z "},"U":{"ha":981,"x_min":108,"x_max":1004,"o":"m 441 -17 q 198 70 288 -17 q 108 301 108 156 q 124 447 108 372 l 237 972 l 406 972 l 293 450 q 275 317 275 358 q 325 179 275 229 q 460 129 375 129 q 621 190 562 129 q 708 385 680 252 l 835 972 l 1004 972 l 878 389 q 792 151 846 237 q 652 24 738 66 q 441 -17 567 -17 z "},"V":{"ha":899,"x_min":140,"x_max":1015,"o":"m 452 0 l 275 0 l 140 972 l 311 972 l 397 255 q 401 199 401 223 l 399 165 l 403 165 q 443 256 416 208 l 829 972 l 1015 972 l 452 0 z "},"W":{"ha":1345,"x_min":135,"x_max":1462,"o":"m 987 0 l 810 0 l 758 689 q 766 777 758 722 l 763 777 q 724 676 746 722 l 385 0 l 198 0 l 135 972 l 311 972 l 339 279 l 339 269 q 331 178 339 231 l 334 178 q 354 230 338 192 q 376 280 370 269 l 721 972 l 889 972 l 936 262 l 936 251 q 932 178 936 210 l 935 178 q 971 277 943 212 l 1284 972 l 1462 972 l 987 0 z "},"X":{"ha":865,"x_min":-67,"x_max":977,"o":"m 572 484 l 770 0 l 581 0 l 474 303 q 448 403 460 344 l 445 403 l 439 391 q 412 341 425 357 l 141 0 l -67 0 l 357 499 l 161 972 l 356 972 l 454 677 q 479 578 478 605 l 483 578 l 488 590 q 516 640 504 624 l 781 972 l 977 972 l 572 484 z "},"Y":{"ha":807,"x_min":137,"x_max":932,"o":"m 408 0 l 239 0 l 315 357 l 137 972 l 317 972 l 416 564 l 423 527 l 427 496 l 429 496 q 464 562 450 542 l 744 972 l 932 972 l 484 361 l 408 0 z "},"Z":{"ha":817,"x_min":-50,"x_max":918,"o":"m 226 140 l 734 140 l 705 0 l -50 0 l -34 80 l 643 831 l 167 831 l 197 972 l 918 972 l 901 897 l 226 140 z "},"[":{"ha":468,"x_min":30,"x_max":568,"o":"m 546 864 l 396 864 l 189 -113 l 338 -113 l 315 -221 l 30 -221 l 283 972 l 568 972 l 546 864 z "},"\\":{"ha":572,"x_min":111,"x_max":486,"o":"m 347 -162 l 111 972 l 254 972 l 486 -162 l 347 -162 z "},"]":{"ha":468,"x_min":-99,"x_max":439,"o":"m 185 -221 l -99 -221 l -76 -113 l 72 -113 l 280 863 l 131 863 l 153 972 l 439 972 l 185 -221 z "},"^":{"ha":967,"x_min":174,"x_max":848,"o":"m 715 418 l 505 827 l 500 827 l 306 418 l 174 418 l 463 989 l 540 989 l 848 418 l 715 418 z "},"_":{"ha":576,"x_min":-118,"x_max":475,"o":"m -118 -201 l -102 -121 l 475 -121 l 458 -201 l -118 -201 z "},"`":{"ha":547,"x_min":197,"x_max":479,"o":"m 366 815 l 197 1036 l 338 1036 l 479 815 l 366 815 z "},"a":{"ha":788,"x_min":47,"x_max":756,"o":"m 634 0 l 468 0 q 472 62 468 17 q 480 132 476 107 l 477 132 q 404 41 435 69 q 337 -2 373 13 q 256 -17 301 -17 q 102 53 157 -17 q 47 246 47 123 q 106 486 47 372 q 265 656 165 600 q 496 711 364 711 q 756 679 606 711 l 661 226 q 642 107 650 178 q 634 0 634 37 m 572 578 q 479 589 530 589 q 342 548 401 589 q 248 426 283 508 q 212 254 212 344 q 238 150 212 186 q 314 113 264 113 q 446 189 387 113 q 532 392 505 266 l 572 578 z "},"b":{"ha":788,"x_min":34,"x_max":741,"o":"m 741 452 q 683 210 741 323 q 528 40 626 97 q 303 -17 430 -17 q 158 2 232 -17 q 34 52 85 20 l 241 1028 l 406 1028 l 338 709 l 307 575 l 310 575 q 413 679 359 646 q 533 711 468 711 q 686 643 631 711 q 741 452 741 574 m 576 438 q 467 582 576 582 q 338 506 398 582 q 256 323 278 431 l 215 130 q 326 106 259 106 q 454 151 397 106 q 544 275 511 195 q 576 438 576 354 z "},"c":{"ha":623,"x_min":47,"x_max":630,"o":"m 598 530 q 534 567 572 552 q 450 582 496 582 q 332 544 385 582 q 245 434 279 506 q 211 284 211 363 q 249 156 211 200 q 356 113 286 113 q 445 130 398 113 q 530 171 492 146 l 501 33 q 310 -17 405 -17 q 117 59 186 -17 q 47 268 47 134 q 99 492 47 389 q 244 653 151 595 q 456 711 338 711 q 554 700 505 711 q 630 669 603 688 l 598 530 z "},"d":{"ha":788,"x_min":47,"x_max":829,"o":"m 634 0 l 468 0 q 480 130 468 32 l 477 130 q 376 18 428 54 q 257 -17 324 -17 q 102 52 157 -17 q 47 245 47 121 q 103 483 47 372 q 259 652 160 593 q 483 711 357 711 q 597 699 543 711 l 667 1028 l 829 1028 l 659 221 q 643 115 651 186 q 634 0 634 43 m 572 576 q 479 589 524 589 q 342 548 401 589 q 248 426 283 507 q 212 256 212 344 q 238 149 212 185 q 316 113 265 113 q 446 189 387 113 q 533 397 504 266 l 572 576 z "},"e":{"ha":699,"x_min":47,"x_max":681,"o":"m 681 524 q 564 339 681 398 q 210 277 448 279 l 209 269 l 209 256 q 251 146 209 185 q 368 107 293 107 q 478 126 420 107 q 586 174 537 144 l 559 39 q 333 -17 456 -17 q 122 58 198 -17 q 47 271 47 134 q 98 491 47 389 q 242 653 150 594 q 444 711 334 711 q 617 660 553 711 q 681 524 681 608 m 522 519 q 497 573 522 553 q 429 593 473 593 q 299 534 357 593 q 222 389 241 475 q 522 519 522 389 z "},"f":{"ha":465,"x_min":7,"x_max":623,"o":"m 597 897 q 513 915 559 915 q 433 884 461 915 q 391 788 405 852 l 371 694 l 532 694 l 504 568 l 341 568 l 170 -231 l 7 -231 l 178 568 l 60 568 l 87 694 l 205 694 l 231 808 q 329 988 258 931 q 515 1044 400 1044 q 623 1028 576 1044 l 597 897 z "},"g":{"ha":788,"x_min":-23,"x_max":756,"o":"m 192 -326 q -23 -275 80 -326 l 6 -136 q 204 -199 103 -199 q 371 -142 309 -199 q 459 43 433 -84 l 477 128 l 474 128 q 371 16 423 49 q 256 -17 319 -17 q 103 51 159 -17 q 47 244 47 119 q 103 483 47 373 q 258 652 160 592 q 481 711 357 711 q 756 680 592 711 l 627 66 q 542 -162 595 -81 q 402 -285 488 -243 q 192 -326 317 -326 m 572 578 q 469 589 530 589 q 338 544 398 589 q 245 422 279 499 q 212 256 212 346 q 239 149 212 186 q 313 113 266 113 q 403 145 360 113 q 481 246 446 178 q 532 390 516 315 l 572 578 z "},"h":{"ha":802,"x_min":22,"x_max":741,"o":"m 741 524 q 721 391 741 488 l 638 0 l 474 0 l 558 401 q 572 490 572 474 q 489 582 572 582 q 396 547 445 582 q 309 455 347 512 q 259 339 271 398 l 186 0 l 22 0 l 241 1028 l 405 1028 l 302 546 l 304 546 q 429 668 361 625 q 566 711 498 711 q 697 662 653 711 q 741 524 741 613 z "},"i":{"ha":400,"x_min":60,"x_max":397,"o":"m 397 930 q 368 862 397 889 q 297 836 339 836 q 228 860 256 836 q 200 924 200 884 q 230 991 200 966 q 302 1017 260 1017 q 369 992 341 1017 q 397 930 397 968 m 213 -12 q 99 26 138 -12 q 60 134 60 64 q 68 203 60 169 l 169 694 l 334 694 l 241 257 q 227 170 227 189 q 286 118 227 118 q 348 129 321 118 l 322 4 q 213 -12 264 -12 z "},"j":{"ha":349,"x_min":-249,"x_max":397,"o":"m 397 930 q 368 862 397 889 q 297 836 339 836 q 228 860 256 836 q 200 924 200 884 q 230 991 200 966 q 302 1017 260 1017 q 369 992 341 1017 q 397 930 397 968 m -125 -326 q -249 -305 -205 -326 l -222 -171 q -182 -190 -206 -182 q -141 -197 -158 -197 q -40 -147 -81 -197 q 24 12 1 -96 l 170 694 l 334 694 l 188 9 q 73 -245 150 -165 q -125 -326 -4 -326 z "},"k":{"ha":730,"x_min":22,"x_max":783,"o":"m 428 370 l 640 0 l 456 0 l 266 363 l 263 363 l 186 0 l 22 0 l 241 1028 l 405 1028 l 270 397 l 273 397 l 584 694 l 783 694 l 428 370 z "},"l":{"ha":400,"x_min":59,"x_max":406,"o":"m 213 -12 q 98 26 138 -12 q 59 132 59 63 q 85 295 59 177 q 241 1028 111 414 l 406 1028 l 241 257 q 227 170 227 189 q 286 118 227 118 q 348 129 321 118 l 322 4 q 213 -12 270 -12 z "},"m":{"ha":1228,"x_min":22,"x_max":1168,"o":"m 1168 524 q 1147 391 1168 490 l 1063 0 l 901 0 l 985 401 q 999 490 999 474 q 918 582 999 582 q 786 506 856 582 q 698 342 716 429 l 626 0 l 462 0 l 547 401 q 561 490 561 474 q 480 582 561 582 q 391 546 439 582 q 307 453 344 510 q 260 341 271 395 l 186 0 l 22 0 l 127 486 q 163 694 151 602 l 323 694 q 302 545 317 637 l 304 545 q 425 668 358 624 q 557 711 491 711 q 728 542 716 711 q 853 668 785 625 q 994 711 922 711 q 1124 663 1081 711 q 1168 524 1168 614 z "},"n":{"ha":806,"x_min":24,"x_max":745,"o":"m 745 525 q 724 391 745 490 l 641 0 l 477 0 l 561 401 q 574 490 574 474 q 553 556 574 531 q 492 582 532 582 q 400 548 449 582 q 313 456 351 513 q 262 341 275 398 l 190 0 l 24 0 l 130 486 q 165 694 154 602 l 326 694 q 304 545 320 637 l 307 545 q 431 668 361 625 q 569 711 500 711 q 699 663 653 711 q 745 525 745 615 z "},"o":{"ha":771,"x_min":47,"x_max":724,"o":"m 724 428 q 673 198 724 302 q 533 38 623 94 q 328 -17 444 -17 q 122 58 197 -17 q 47 267 47 134 q 97 496 47 393 q 237 655 148 599 q 443 711 326 711 q 648 636 572 711 q 724 428 724 560 m 558 424 q 525 539 558 496 q 431 582 491 582 q 319 539 370 582 q 240 425 269 497 q 212 269 212 352 q 246 154 212 196 q 339 113 280 113 q 453 155 402 113 q 531 270 503 197 q 558 424 558 342 z "},"p":{"ha":788,"x_min":-49,"x_max":741,"o":"m 741 453 q 685 215 741 326 q 533 43 629 104 q 316 -17 436 -17 q 184 3 247 -17 l 116 -321 l -49 -321 l 119 473 q 137 579 127 508 q 148 694 146 650 l 310 694 q 304 632 310 677 q 295 562 299 587 l 298 562 q 534 711 391 711 q 686 642 632 711 q 741 453 741 573 m 576 438 q 549 546 576 510 q 469 582 521 582 q 378 547 422 582 q 298 444 334 513 q 248 304 262 376 l 208 124 q 258 112 222 119 q 320 106 293 106 q 451 151 393 106 q 543 274 510 197 q 576 438 576 352 z "},"q":{"ha":788,"x_min":47,"x_max":755,"o":"m 545 -321 l 381 -321 l 446 -15 q 478 120 460 50 l 475 120 q 257 -17 383 -17 q 102 52 158 -17 q 47 246 47 121 q 106 488 47 375 q 265 656 165 600 q 492 711 364 711 q 755 674 621 711 l 545 -321 m 571 576 q 477 589 524 589 q 342 548 401 589 q 248 425 283 507 q 212 257 212 344 q 238 149 212 185 q 315 113 265 113 q 446 187 387 113 q 531 385 504 261 l 571 576 z "},"r":{"ha":524,"x_min":22,"x_max":573,"o":"m 541 536 q 461 558 500 558 q 333 487 391 558 q 250 297 275 416 l 186 0 l 22 0 l 119 452 q 159 694 153 621 l 321 694 q 302 548 314 629 l 304 548 q 394 668 347 625 q 505 711 441 711 q 573 701 530 711 l 541 536 z "},"s":{"ha":579,"x_min":7,"x_max":551,"o":"m 523 547 q 452 577 493 564 q 370 590 411 590 q 285 566 313 590 q 257 504 257 542 q 280 448 257 470 q 347 401 303 425 q 467 307 435 352 q 499 202 499 262 q 465 87 499 136 q 365 11 431 39 q 204 -17 299 -17 q 95 -5 153 -17 q 7 22 37 6 l 34 157 q 122 119 71 134 q 221 103 174 103 q 310 125 281 103 q 339 187 339 148 q 319 240 339 218 q 241 294 299 262 q 130 381 165 335 q 95 490 95 427 q 128 604 95 553 q 223 683 161 654 q 370 711 285 711 q 470 702 421 711 q 551 680 518 693 l 523 547 z "},"t":{"ha":485,"x_min":54,"x_max":526,"o":"m 497 568 l 328 568 l 262 254 q 250 175 250 195 q 264 130 250 144 q 311 116 278 116 q 406 140 342 116 l 378 12 q 244 -14 311 -14 q 83 142 83 -14 q 98 245 83 182 l 165 568 l 54 568 l 84 694 l 192 694 l 228 861 l 400 906 l 356 694 l 526 694 l 497 568 z "},"u":{"ha":803,"x_min":56,"x_max":774,"o":"m 638 0 l 475 0 l 496 147 l 494 147 q 371 26 439 70 q 233 -17 303 -17 q 101 32 146 -17 q 56 170 56 81 q 77 303 56 203 l 159 694 l 323 694 l 239 295 q 224 204 224 219 q 245 140 224 163 q 306 116 265 116 q 402 151 353 116 q 489 244 451 185 q 539 361 527 302 l 610 694 l 774 694 l 675 228 q 638 0 648 102 z "},"v":{"ha":699,"x_min":85,"x_max":764,"o":"m 353 0 l 186 0 l 85 694 l 248 694 l 293 283 q 300 170 300 224 l 300 150 l 302 150 q 365 283 332 219 l 583 694 l 764 694 l 353 0 z "},"w":{"ha":1052,"x_min":82,"x_max":1105,"o":"m 754 0 l 588 0 l 561 437 l 559 482 q 564 530 559 504 l 561 530 q 530 451 552 494 l 304 0 l 136 0 l 82 694 l 238 694 l 255 209 l 255 201 q 250 137 255 169 l 254 137 q 275 196 271 186 q 524 694 279 205 l 676 694 l 701 179 q 697 136 701 165 l 702 136 q 735 220 707 159 l 944 694 l 1105 694 l 754 0 z "},"x":{"ha":696,"x_min":-64,"x_max":761,"o":"m 454 344 l 611 0 l 431 0 l 356 199 l 334 264 l 331 264 q 304 225 317 243 q 127 0 292 207 l -64 0 l 246 349 l 94 694 l 275 694 l 345 492 q 365 423 357 458 l 368 423 q 390 456 377 437 q 576 694 403 474 l 761 694 l 454 344 z "},"y":{"ha":709,"x_min":-109,"x_max":779,"o":"m -18 -326 q -109 -312 -66 -326 l -80 -180 q -12 -197 -54 -197 q 133 -105 73 -197 l 203 3 l 72 694 l 242 694 l 307 216 l 310 172 l 309 144 l 312 144 q 345 216 329 187 l 604 694 l 779 694 l 311 -88 q 158 -272 234 -218 q -18 -326 81 -326 z "},"z":{"ha":651,"x_min":-55,"x_max":696,"o":"m 214 126 l 573 126 l 546 0 l -55 0 l -42 63 l 437 568 l 102 568 l 130 694 l 696 694 l 680 623 l 214 126 z "},"{":{"ha":468,"x_min":52,"x_max":541,"o":"m 206 366 l 206 363 q 269 237 269 330 q 262 167 269 203 l 227 6 q 220 -48 220 -23 q 241 -107 220 -88 q 307 -127 262 -125 l 286 -231 q 135 -189 187 -231 q 83 -63 83 -146 q 92 5 83 -31 l 130 182 q 136 233 136 210 q 52 322 136 318 l 75 424 q 161 456 130 426 q 207 552 193 486 l 245 735 q 300 871 264 820 q 390 947 336 923 q 541 972 445 971 l 519 866 q 429 835 460 866 q 383 737 397 804 l 344 557 q 206 366 308 397 z "},"|":{"ha":393,"x_min":136,"x_max":271,"o":"m 136 -326 l 136 1063 l 271 1063 l 271 -326 l 136 -326 z "},"}":{"ha":468,"x_min":-74,"x_max":414,"o":"m -74 -230 l -52 -124 q 37 -95 3 -124 q 85 5 70 -65 l 122 184 q 173 311 138 260 q 261 377 208 361 l 261 380 q 197 505 197 414 q 205 576 197 542 l 239 736 q 246 789 246 766 q 225 848 246 829 q 159 869 204 867 l 181 973 q 383 806 383 970 q 375 736 383 773 l 337 560 q 331 510 331 532 q 414 420 331 422 l 392 318 q 306 286 337 317 q 260 190 274 256 l 220 7 q 165 -130 202 -78 q 74 -206 128 -182 q -74 -230 19 -230 z "},"~":{"ha":967,"x_min":146,"x_max":840,"o":"m 840 516 q 782 348 836 408 q 640 288 728 288 q 569 299 603 288 q 463 354 534 310 q 411 384 438 370 q 355 398 383 398 q 288 368 311 398 q 262 284 264 337 l 146 284 q 204 452 151 391 q 349 513 258 513 q 428 500 389 513 q 548 433 466 487 q 596 407 576 414 q 637 400 616 400 q 700 432 675 400 q 725 516 724 465 l 840 516 z "},"Ä":{"ha":927,"x_min":-70,"x_max":844,"o":"m 673 0 l 637 244 l 256 244 l 121 0 l -70 0 l 500 972 l 690 972 l 844 0 l 673 0 m 569 779 l 569 803 l 570 827 l 567 827 q 535 752 553 786 l 326 380 l 619 380 l 572 746 q 569 779 569 758 m 839 1142 q 815 1085 839 1108 q 753 1061 791 1061 q 692 1085 715 1061 q 668 1142 668 1109 q 692 1199 668 1177 q 753 1221 717 1221 q 814 1198 789 1221 q 839 1142 839 1176 m 553 1142 q 528 1084 553 1107 q 467 1061 503 1061 q 407 1084 433 1061 q 381 1142 381 1107 q 406 1198 381 1175 q 467 1221 430 1221 q 529 1198 504 1221 q 553 1142 553 1176 z "},"Å":{"ha":927,"x_min":-70,"x_max":844,"o":"m 673 0 l 637 244 l 257 244 l 121 0 l -70 0 l 486 947 q 441 1046 441 983 q 460 1118 441 1084 q 516 1172 480 1152 q 598 1192 552 1192 q 710 1151 668 1192 q 752 1049 752 1111 q 736 987 752 1015 q 695 943 721 959 l 844 0 l 673 0 m 671 1049 q 650 1099 671 1080 q 595 1119 629 1119 q 543 1099 564 1119 q 522 1049 522 1079 q 542 996 522 1016 q 595 977 562 977 q 649 998 628 977 q 671 1049 671 1019 m 619 380 l 570 750 l 568 770 l 568 799 l 570 823 l 566 823 q 545 771 559 800 q 326 380 531 742 l 619 380 z "},"Ç":{"ha":884,"x_min":81,"x_max":930,"o":"m 895 774 q 659 842 781 842 q 449 788 541 842 q 307 638 357 734 q 257 422 257 543 q 334 206 257 283 q 543 129 411 129 q 669 144 610 129 q 791 193 728 159 l 755 31 q 503 -17 646 -17 q 280 36 376 -17 q 133 185 184 88 q 81 408 81 281 q 154 711 81 577 q 360 917 227 845 q 668 989 493 989 q 930 936 805 989 l 895 774 m 624 -159 q 567 -264 624 -225 q 410 -302 509 -302 q 342 -298 389 -302 l 359 -222 q 410 -227 383 -227 q 489 -211 463 -227 q 515 -169 515 -195 q 437 -121 515 -121 l 403 -123 l 431 0 l 515 0 l 501 -63 q 591 -90 558 -64 q 624 -159 624 -115 z "},"É":{"ha":714,"x_min":41,"x_max":781,"o":"m 744 831 l 387 831 l 328 556 l 661 556 l 630 415 l 298 415 l 239 140 l 620 140 l 591 0 l 41 0 l 248 972 l 774 972 l 744 831 m 545 1061 l 424 1061 l 629 1282 l 781 1282 l 545 1061 z "},"Ñ":{"ha":1076,"x_min":41,"x_max":1088,"o":"m 882 0 l 720 0 l 388 699 q 374 732 384 707 q 362 768 364 758 l 358 768 l 352 722 l 344 673 l 201 0 l 41 0 l 247 972 l 424 972 l 749 277 q 771 220 764 243 l 774 220 q 787 311 777 267 l 928 972 l 1088 972 l 882 0 m 932 1245 q 879 1121 924 1168 q 771 1075 834 1075 q 714 1084 737 1075 q 673 1104 692 1093 q 639 1125 655 1116 q 602 1134 623 1134 q 549 1112 568 1134 q 526 1062 530 1090 l 441 1062 q 494 1185 448 1137 q 608 1233 541 1233 q 661 1223 640 1233 q 701 1202 683 1214 q 735 1181 718 1191 q 775 1172 752 1172 q 824 1192 804 1172 q 848 1245 843 1213 l 932 1245 z "},"Ö":{"ha":1050,"x_min":84,"x_max":1017,"o":"m 1017 574 q 950 280 1017 417 q 765 63 883 142 q 485 -17 647 -17 q 275 35 366 -17 q 134 183 184 87 q 84 399 84 279 q 124 635 84 527 q 240 826 164 744 q 411 949 317 909 q 618 989 506 989 q 826 938 735 989 q 967 792 918 886 q 1017 574 1017 697 m 840 568 q 775 768 840 694 q 600 842 711 842 q 428 784 508 842 q 304 621 349 726 q 260 400 260 515 q 323 202 260 276 q 498 129 387 129 q 673 186 595 129 q 795 349 751 243 q 840 568 840 456 m 869 1143 q 845 1085 869 1109 q 783 1062 821 1062 q 722 1086 745 1062 q 698 1143 698 1109 q 722 1199 698 1177 q 783 1221 747 1221 q 844 1199 819 1221 q 869 1143 869 1177 m 583 1143 q 558 1085 583 1108 q 497 1062 532 1062 q 437 1085 463 1062 q 411 1143 411 1107 q 435 1199 411 1176 q 497 1221 460 1221 q 558 1199 534 1221 q 583 1143 583 1177 z "},"Ü":{"ha":981,"x_min":108,"x_max":1004,"o":"m 441 -17 q 198 70 288 -17 q 108 301 108 156 q 124 447 108 372 l 237 972 l 406 972 l 293 450 q 275 317 275 358 q 325 179 275 229 q 460 129 375 129 q 621 190 562 129 q 708 385 680 252 l 835 972 l 1004 972 l 878 389 q 792 151 846 237 q 652 24 738 66 q 441 -17 567 -17 m 864 1143 q 840 1085 864 1109 q 779 1062 817 1062 q 717 1086 741 1062 q 693 1143 693 1109 q 718 1199 693 1177 q 778 1221 742 1221 q 839 1199 814 1221 q 864 1143 864 1177 m 578 1143 q 553 1085 578 1108 q 492 1062 528 1062 q 432 1085 458 1062 q 406 1143 406 1107 q 431 1199 406 1176 q 492 1221 455 1221 q 554 1199 529 1221 q 578 1143 578 1177 z "},"á":{"ha":788,"x_min":47,"x_max":756,"o":"m 634 0 l 468 0 q 472 62 468 17 q 480 132 476 107 l 477 132 q 404 41 435 69 q 337 -2 373 13 q 256 -17 301 -17 q 102 53 157 -17 q 47 246 47 123 q 106 486 47 372 q 265 656 165 600 q 496 711 364 711 q 756 679 606 711 l 661 226 q 642 107 650 178 q 634 0 634 37 m 572 578 q 479 589 530 589 q 342 548 401 589 q 248 426 283 508 q 212 254 212 344 q 238 150 212 186 q 314 113 264 113 q 446 189 387 113 q 532 392 505 266 l 572 578 m 495 815 l 374 815 l 578 1036 l 731 1036 l 495 815 z "},"à":{"ha":788,"x_min":47,"x_max":756,"o":"m 634 0 l 468 0 q 472 62 468 17 q 480 132 476 107 l 477 132 q 404 41 435 69 q 337 -2 373 13 q 256 -17 301 -17 q 102 53 157 -17 q 47 246 47 123 q 106 486 47 372 q 265 656 165 600 q 496 711 364 711 q 756 679 606 711 l 661 226 q 642 107 650 178 q 634 0 634 37 m 572 578 q 479 589 530 589 q 342 548 401 589 q 248 426 283 508 q 212 254 212 344 q 238 150 212 186 q 314 113 264 113 q 446 189 387 113 q 532 392 505 266 l 572 578 m 502 815 l 333 1036 l 474 1036 l 615 815 l 502 815 z "},"â":{"ha":788,"x_min":47,"x_max":756,"o":"m 634 0 l 468 0 q 472 62 468 17 q 480 132 476 107 l 477 132 q 404 41 435 69 q 337 -2 373 13 q 256 -17 301 -17 q 102 53 157 -17 q 47 246 47 123 q 106 486 47 372 q 265 656 165 600 q 496 711 364 711 q 756 679 606 711 l 661 226 q 642 107 650 178 q 634 0 634 37 m 572 578 q 479 589 530 589 q 342 548 401 589 q 248 426 283 508 q 212 254 212 344 q 238 150 212 186 q 314 113 264 113 q 446 189 387 113 q 532 392 505 266 l 572 578 m 602 815 l 524 958 l 385 815 l 272 815 l 471 1038 l 600 1038 l 707 815 l 602 815 z "},"ä":{"ha":788,"x_min":47,"x_max":756,"o":"m 634 0 l 468 0 q 472 62 468 17 q 480 132 476 107 l 477 132 q 404 41 435 69 q 337 -2 373 13 q 256 -17 301 -17 q 102 53 157 -17 q 47 246 47 123 q 106 486 47 372 q 265 656 165 600 q 496 711 364 711 q 756 679 606 711 l 661 226 q 642 107 650 178 q 634 0 634 37 m 572 578 q 479 589 530 589 q 342 548 401 589 q 248 426 283 508 q 212 254 212 344 q 238 150 212 186 q 314 113 264 113 q 446 189 387 113 q 532 392 505 266 l 572 578 m 724 896 q 701 839 724 862 q 639 815 677 815 q 577 839 601 815 q 553 896 553 863 q 578 952 553 930 q 638 975 602 975 q 700 952 675 975 q 724 896 724 930 m 439 896 q 413 838 439 861 q 353 815 388 815 q 292 838 318 815 q 267 896 267 861 q 291 952 267 929 q 353 975 315 975 q 414 952 389 975 q 439 896 439 930 z "},"ã":{"ha":788,"x_min":47,"x_max":756,"o":"m 634 0 l 468 0 q 472 62 468 17 q 480 132 476 107 l 477 132 q 404 41 435 69 q 337 -2 373 13 q 256 -17 301 -17 q 102 53 157 -17 q 47 246 47 123 q 106 486 47 372 q 265 656 165 600 q 496 711 364 711 q 756 679 606 711 l 661 226 q 642 107 650 178 q 634 0 634 37 m 572 578 q 479 589 530 589 q 342 548 401 589 q 248 426 283 508 q 212 254 212 344 q 238 150 212 186 q 314 113 264 113 q 446 189 387 113 q 532 392 505 266 l 572 578 m 742 998 q 689 874 734 921 q 581 828 644 828 q 524 837 547 828 q 483 858 501 846 q 448 878 465 869 q 412 887 432 887 q 358 865 377 887 q 336 815 340 844 l 251 815 q 304 938 258 890 q 418 986 350 986 q 471 977 449 986 q 510 956 492 967 q 545 935 528 944 q 585 925 562 925 q 633 945 614 925 q 657 998 652 966 l 742 998 z "},"å":{"ha":788,"x_min":47,"x_max":756,"o":"m 634 0 l 468 0 q 472 62 468 17 q 480 132 476 107 l 477 132 q 404 41 435 69 q 337 -2 373 13 q 256 -17 301 -17 q 102 53 157 -17 q 47 246 47 123 q 106 486 47 372 q 265 656 165 600 q 496 711 364 711 q 756 679 606 711 l 661 226 q 642 107 650 178 q 634 0 634 37 m 572 578 q 479 589 530 589 q 342 548 401 589 q 248 426 283 508 q 212 254 212 344 q 238 150 212 186 q 314 113 264 113 q 446 189 387 113 q 532 392 505 266 l 572 578 m 663 933 q 618 831 663 871 q 510 791 574 791 q 404 829 446 791 q 361 928 361 867 q 405 1031 361 992 q 513 1071 448 1071 q 621 1033 580 1071 q 663 933 663 995 m 584 932 q 563 982 584 962 q 510 1001 543 1001 q 459 981 479 1001 q 439 932 439 960 q 458 880 439 899 q 510 861 477 861 q 563 881 542 861 q 584 932 584 901 z "},"ç":{"ha":623,"x_min":47,"x_max":630,"o":"m 598 530 q 534 567 572 552 q 450 582 496 582 q 332 544 385 582 q 245 434 279 506 q 211 284 211 363 q 249 156 211 200 q 356 113 286 113 q 445 130 398 113 q 530 171 492 146 l 501 33 q 310 -17 405 -17 q 117 59 186 -17 q 47 268 47 134 q 99 492 47 389 q 244 653 151 595 q 456 711 338 711 q 554 700 505 711 q 630 669 603 688 l 598 530 m 430 -159 q 373 -264 430 -225 q 216 -302 315 -302 q 149 -298 195 -302 l 165 -222 q 216 -227 189 -227 q 295 -211 269 -227 q 321 -169 321 -195 q 243 -121 321 -121 l 209 -123 l 237 0 l 321 0 l 307 -63 q 397 -90 364 -64 q 430 -159 430 -115 z "},"é":{"ha":699,"x_min":47,"x_max":686,"o":"m 681 524 q 564 339 681 398 q 210 277 448 279 l 209 269 l 209 256 q 251 146 209 185 q 368 107 293 107 q 478 126 420 107 q 586 174 537 144 l 559 39 q 333 -17 456 -17 q 122 58 198 -17 q 47 271 47 134 q 98 491 47 389 q 242 653 150 594 q 444 711 334 711 q 617 660 553 711 q 681 524 681 608 m 522 519 q 497 573 522 553 q 429 593 473 593 q 299 534 357 593 q 222 389 241 475 q 522 519 522 389 m 450 815 l 328 815 l 533 1036 l 686 1036 l 450 815 z "},"è":{"ha":699,"x_min":47,"x_max":681,"o":"m 681 524 q 564 339 681 398 q 210 277 448 279 l 209 269 l 209 256 q 251 146 209 185 q 368 107 293 107 q 478 126 420 107 q 586 174 537 144 l 559 39 q 333 -17 456 -17 q 122 58 198 -17 q 47 271 47 134 q 98 491 47 389 q 242 653 150 594 q 444 711 334 711 q 617 660 553 711 q 681 524 681 608 m 522 519 q 497 573 522 553 q 429 593 473 593 q 299 534 357 593 q 222 389 241 475 q 522 519 522 389 m 461 815 l 292 1036 l 433 1036 l 574 815 l 461 815 z "},"ê":{"ha":699,"x_min":47,"x_max":681,"o":"m 681 524 q 564 339 681 398 q 210 277 448 279 l 209 269 l 209 256 q 251 146 209 185 q 368 107 293 107 q 478 126 420 107 q 586 174 537 144 l 559 39 q 333 -17 456 -17 q 122 58 198 -17 q 47 271 47 134 q 98 491 47 389 q 242 653 150 594 q 444 711 334 711 q 617 660 553 711 q 681 524 681 608 m 522 519 q 497 573 522 553 q 429 593 473 593 q 299 534 357 593 q 222 389 241 475 q 522 519 522 389 m 562 815 l 484 958 l 345 815 l 233 815 l 431 1038 l 561 1038 l 667 815 l 562 815 z "},"ë":{"ha":699,"x_min":47,"x_max":681,"o":"m 681 524 q 564 339 681 398 q 210 277 448 279 l 209 269 l 209 256 q 251 146 209 185 q 368 107 293 107 q 478 126 420 107 q 586 174 537 144 l 559 39 q 333 -17 456 -17 q 122 58 198 -17 q 47 271 47 134 q 98 491 47 389 q 242 653 150 594 q 444 711 334 711 q 617 660 553 711 q 681 524 681 608 m 522 519 q 497 573 522 553 q 429 593 473 593 q 299 534 357 593 q 222 389 241 475 q 522 519 522 389 m 679 896 q 655 839 679 862 q 593 815 631 815 q 532 839 555 815 q 508 896 508 863 q 532 952 508 930 q 593 975 557 975 q 654 952 629 975 q 679 896 679 930 m 393 896 q 368 838 393 861 q 307 815 342 815 q 247 838 273 815 q 221 896 221 861 q 245 952 221 929 q 307 975 270 975 q 369 952 344 975 q 393 896 393 930 z "},"í":{"ha":400,"x_min":59,"x_max":496,"o":"m 213 -12 q 98 26 138 -12 q 59 132 59 63 q 77 256 59 177 l 169 694 l 334 694 l 241 257 q 227 170 227 189 q 286 118 227 118 q 348 129 321 118 l 322 4 q 213 -12 270 -12 m 260 815 l 138 815 l 343 1036 l 496 1036 l 260 815 z "},"ì":{"ha":400,"x_min":59,"x_max":411,"o":"m 213 -12 q 98 26 138 -12 q 59 132 59 63 q 77 256 59 177 l 169 694 l 334 694 l 241 257 q 227 170 227 189 q 286 118 227 118 q 348 129 321 118 l 322 4 q 213 -12 270 -12 m 298 815 l 129 1036 l 270 1036 l 411 815 l 298 815 z "},"î":{"ha":400,"x_min":52,"x_max":486,"o":"m 213 -12 q 98 26 138 -12 q 59 132 59 63 q 77 256 59 177 l 169 694 l 334 694 l 241 257 q 227 170 227 189 q 286 118 227 118 q 348 129 321 118 l 322 4 q 213 -12 270 -12 m 381 815 l 303 958 l 164 815 l 52 815 l 250 1038 l 380 1038 l 486 815 l 381 815 z "},"ï":{"ha":400,"x_min":48,"x_max":506,"o":"m 213 -12 q 98 26 138 -12 q 59 132 59 63 q 77 256 59 177 l 169 694 l 334 694 l 241 257 q 227 170 227 189 q 286 118 227 118 q 348 129 321 118 l 322 4 q 213 -12 270 -12 m 506 896 q 482 839 506 862 q 420 815 458 815 q 359 839 382 815 q 335 896 335 863 q 359 952 335 930 q 420 975 384 975 q 481 952 456 975 q 506 896 506 930 m 220 896 q 195 838 220 861 q 134 815 170 815 q 74 838 100 815 q 48 896 48 861 q 73 952 48 929 q 134 975 97 975 q 196 952 171 975 q 220 896 220 930 z "},"ñ":{"ha":806,"x_min":24,"x_max":745,"o":"m 745 525 q 724 391 745 490 l 641 0 l 477 0 l 561 401 q 574 490 574 474 q 553 556 574 531 q 492 582 532 582 q 400 548 449 582 q 313 456 351 513 q 262 341 275 398 l 190 0 l 24 0 l 130 486 q 165 694 154 602 l 326 694 q 304 545 320 637 l 307 545 q 431 668 361 625 q 569 711 500 711 q 699 663 653 711 q 745 525 745 615 m 736 998 q 683 874 728 921 q 575 828 638 828 q 518 837 541 828 q 477 858 496 846 q 443 878 459 869 q 406 887 427 887 q 353 865 372 887 q 330 815 334 844 l 245 815 q 298 938 252 890 q 412 986 345 986 q 465 977 444 986 q 505 956 487 967 q 539 935 522 944 q 579 925 556 925 q 628 945 608 925 q 652 998 647 966 l 736 998 z "},"ó":{"ha":771,"x_min":47,"x_max":724,"o":"m 724 428 q 673 198 724 302 q 533 38 623 94 q 328 -17 444 -17 q 122 58 197 -17 q 47 267 47 134 q 97 496 47 393 q 237 655 148 599 q 443 711 326 711 q 648 636 572 711 q 724 428 724 560 m 558 424 q 525 539 558 496 q 431 582 491 582 q 319 539 370 582 q 240 425 269 497 q 212 269 212 352 q 246 154 212 196 q 339 113 280 113 q 453 155 402 113 q 531 270 503 197 q 558 424 558 342 m 458 815 l 337 815 l 542 1036 l 694 1036 l 458 815 z "},"ò":{"ha":771,"x_min":47,"x_max":724,"o":"m 724 428 q 673 198 724 302 q 533 38 623 94 q 328 -17 444 -17 q 122 58 197 -17 q 47 267 47 134 q 97 496 47 393 q 237 655 148 599 q 443 711 326 711 q 648 636 572 711 q 724 428 724 560 m 558 424 q 525 539 558 496 q 431 582 491 582 q 319 539 370 582 q 240 425 269 497 q 212 269 212 352 q 246 154 212 196 q 339 113 280 113 q 453 155 402 113 q 531 270 503 197 q 558 424 558 342 m 484 815 l 315 1036 l 456 1036 l 597 815 l 484 815 z "},"ô":{"ha":771,"x_min":47,"x_max":724,"o":"m 724 428 q 673 198 724 302 q 533 38 623 94 q 328 -17 444 -17 q 122 58 197 -17 q 47 267 47 134 q 97 496 47 393 q 237 655 148 599 q 443 711 326 711 q 648 636 572 711 q 724 428 724 560 m 558 424 q 525 539 558 496 q 431 582 491 582 q 319 539 370 582 q 240 425 269 497 q 212 269 212 352 q 246 154 212 196 q 339 113 280 113 q 453 155 402 113 q 531 270 503 197 q 558 424 558 342 m 566 815 l 488 958 l 349 815 l 237 815 l 435 1038 l 565 1038 l 671 815 l 566 815 z "},"ö":{"ha":771,"x_min":47,"x_max":724,"o":"m 724 428 q 673 198 724 302 q 533 38 623 94 q 328 -17 444 -17 q 122 58 197 -17 q 47 267 47 134 q 97 496 47 393 q 237 655 148 599 q 443 711 326 711 q 648 636 572 711 q 724 428 724 560 m 558 424 q 525 539 558 496 q 431 582 491 582 q 319 539 370 582 q 240 425 269 497 q 212 269 212 352 q 246 154 212 196 q 339 113 280 113 q 453 155 402 113 q 531 270 503 197 q 558 424 558 342 m 697 896 q 673 839 697 862 q 612 815 650 815 q 550 839 574 815 q 526 896 526 863 q 551 952 526 930 q 611 975 575 975 q 672 952 648 975 q 697 896 697 930 m 412 896 q 386 838 412 861 q 326 815 361 815 q 265 838 291 815 q 239 896 239 861 q 264 952 239 929 q 326 975 288 975 q 387 952 362 975 q 412 896 412 930 z "},"õ":{"ha":771,"x_min":47,"x_max":724,"o":"m 724 428 q 673 198 724 302 q 533 38 623 94 q 328 -17 444 -17 q 122 58 197 -17 q 47 267 47 134 q 97 496 47 393 q 237 655 148 599 q 443 711 326 711 q 648 636 572 711 q 724 428 724 560 m 558 424 q 525 539 558 496 q 431 582 491 582 q 319 539 370 582 q 240 425 269 497 q 212 269 212 352 q 246 154 212 196 q 339 113 280 113 q 453 155 402 113 q 531 270 503 197 q 558 424 558 342 m 717 998 q 664 874 709 921 q 555 828 618 828 q 499 837 522 828 q 458 858 476 846 q 423 878 439 869 q 387 887 407 887 q 333 865 352 887 q 311 815 315 844 l 226 815 q 279 938 233 890 q 393 986 325 986 q 446 977 424 986 q 485 956 467 967 q 519 935 503 944 q 559 925 536 925 q 608 945 589 925 q 632 998 627 966 l 717 998 z "},"ú":{"ha":803,"x_min":56,"x_max":774,"o":"m 638 0 l 475 0 l 496 147 l 494 147 q 371 26 439 70 q 233 -17 303 -17 q 101 32 146 -17 q 56 170 56 81 q 77 303 56 203 l 159 694 l 323 694 l 239 295 q 224 204 224 219 q 245 140 224 163 q 306 116 265 116 q 402 151 353 116 q 489 244 451 185 q 539 361 527 302 l 610 694 l 774 694 l 675 228 q 638 0 648 102 m 486 815 l 365 815 l 570 1036 l 722 1036 l 486 815 z "},"ù":{"ha":803,"x_min":56,"x_max":774,"o":"m 638 0 l 475 0 l 496 147 l 494 147 q 371 26 439 70 q 233 -17 303 -17 q 101 32 146 -17 q 56 170 56 81 q 77 303 56 203 l 159 694 l 323 694 l 239 295 q 224 204 224 219 q 245 140 224 163 q 306 116 265 116 q 402 151 353 116 q 489 244 451 185 q 539 361 527 302 l 610 694 l 774 694 l 675 228 q 638 0 648 102 m 495 815 l 326 1036 l 467 1036 l 608 815 l 495 815 z "},"û":{"ha":803,"x_min":56,"x_max":774,"o":"m 638 0 l 475 0 l 496 147 l 494 147 q 371 26 439 70 q 233 -17 303 -17 q 101 32 146 -17 q 56 170 56 81 q 77 303 56 203 l 159 694 l 323 694 l 239 295 q 224 204 224 219 q 245 140 224 163 q 306 116 265 116 q 402 151 353 116 q 489 244 451 185 q 539 361 527 302 l 610 694 l 774 694 l 675 228 q 638 0 648 102 m 589 815 l 511 958 l 372 815 l 259 815 l 458 1038 l 587 1038 l 694 815 l 589 815 z "},"ü":{"ha":803,"x_min":56,"x_max":774,"o":"m 638 0 l 475 0 l 496 147 l 494 147 q 371 26 439 70 q 233 -17 303 -17 q 101 32 146 -17 q 56 170 56 81 q 77 303 56 203 l 159 694 l 323 694 l 239 295 q 224 204 224 219 q 245 140 224 163 q 306 116 265 116 q 402 151 353 116 q 489 244 451 185 q 539 361 527 302 l 610 694 l 774 694 l 675 228 q 638 0 648 102 m 721 896 q 697 839 721 862 q 635 815 673 815 q 574 839 597 815 q 550 896 550 863 q 574 952 550 930 q 635 975 599 975 q 696 952 671 975 q 721 896 721 930 m 435 896 q 410 838 435 861 q 349 815 385 815 q 289 838 315 815 q 263 896 263 861 q 288 952 263 929 q 349 975 312 975 q 411 952 386 975 q 435 896 435 930 z "},"†":{"ha":543,"x_min":77,"x_max":594,"o":"m 567 597 l 390 617 l 261 146 l 191 146 l 262 617 l 77 597 l 104 724 l 302 707 l 334 972 l 468 972 l 389 707 l 594 724 l 567 597 z "},"°":{"ha":526,"x_min":165,"x_max":547,"o":"m 547 798 q 491 664 547 720 q 355 608 435 608 q 221 663 277 608 q 165 798 165 719 q 221 931 165 876 q 355 986 276 986 q 491 931 435 986 q 547 798 547 876 m 453 798 q 425 866 453 838 q 355 895 397 895 q 287 867 315 895 q 258 798 258 838 q 288 728 258 757 q 355 699 317 699 q 423 728 393 699 q 453 798 453 757 z "},"¢":{"ha":774,"x_min":123,"x_max":731,"o":"m 700 646 q 584 698 659 686 l 486 238 q 631 295 562 247 l 602 155 q 459 108 543 117 l 430 -29 l 332 -29 l 360 106 q 186 195 249 119 q 123 388 123 271 q 231 695 123 570 q 515 830 339 819 l 543 961 l 640 961 l 612 826 q 731 790 696 814 l 700 646 m 486 694 q 339 593 392 673 q 286 406 286 513 q 315 299 286 339 q 390 245 344 260 l 486 694 z "},"£":{"ha":774,"x_min":7,"x_max":787,"o":"m 758 815 q 625 857 701 857 q 446 670 484 857 l 419 544 l 609 544 l 583 422 l 393 422 l 372 326 q 224 130 340 189 l 670 130 l 643 0 l 7 0 l 35 123 q 156 193 113 144 q 216 319 199 242 l 238 422 l 113 422 l 138 544 l 264 544 l 296 694 q 416 912 326 836 q 635 989 505 989 q 724 980 684 989 q 787 958 764 970 l 758 815 z "},"§":{"ha":648,"x_min":25,"x_max":650,"o":"m 625 856 q 553 887 595 874 q 474 899 511 899 q 383 876 416 899 q 350 810 350 852 q 360 768 350 786 q 387 735 370 751 q 465 683 404 720 q 570 595 538 639 q 601 492 601 551 q 559 373 601 429 q 450 288 518 317 q 490 176 490 234 q 457 61 490 111 q 362 -17 425 11 q 215 -44 300 -44 q 108 -32 161 -44 q 25 -3 54 -20 l 52 123 q 136 84 88 99 q 225 68 183 68 q 321 94 290 68 q 353 158 353 119 q 342 200 353 181 q 311 237 331 219 q 233 290 290 255 q 112 473 112 363 q 149 586 112 536 q 260 669 185 637 q 212 789 212 730 q 286 952 212 892 q 480 1011 359 1011 q 565 1003 517 1011 q 650 979 613 994 l 625 856 m 466 469 q 445 528 466 502 q 381 578 424 554 l 330 611 q 269 567 293 595 q 245 501 245 539 q 262 441 245 465 q 330 385 279 418 q 356 369 343 376 q 382 350 370 361 q 444 400 421 368 q 466 469 466 432 z "},"•":{"ha":574,"x_min":119,"x_max":479,"o":"m 479 404 q 426 276 479 329 q 298 224 372 224 q 172 276 224 224 q 119 404 119 329 q 173 532 119 479 q 299 585 227 585 q 427 532 374 585 q 479 404 479 479 z "},"¶":{"ha":671,"x_min":100,"x_max":644,"o":"m 561 882 l 561 0 l 465 0 l 465 882 l 372 882 l 372 0 l 276 0 l 276 589 q 151 645 201 591 q 100 783 100 700 q 155 920 100 867 q 288 972 210 972 l 644 972 l 644 882 l 561 882 z "},"ß":{"ha":793,"x_min":17,"x_max":779,"o":"m 779 817 q 748 693 779 749 q 665 600 718 638 q 548 545 613 562 l 548 542 q 693 458 641 523 q 746 298 746 393 q 704 136 746 208 q 586 23 663 63 q 404 -17 509 -17 q 323 -10 363 -17 q 263 5 283 -3 l 294 144 q 345 121 314 130 q 402 113 375 113 q 531 165 483 113 q 578 301 578 218 q 527 430 578 385 q 382 477 475 475 l 407 598 q 557 665 503 611 q 612 800 612 718 q 582 883 612 851 q 503 915 551 915 q 396 867 437 915 q 336 724 356 819 l 182 0 l 17 0 l 176 747 q 517 1044 239 1044 q 708 982 638 1044 q 779 817 779 920 z "},"­":{"ha":558,"x_min":85,"x_max":481,"o":"m 456 319 l 85 319 l 111 438 l 481 438 l 456 319 z "},"®":{"ha":1226,"x_min":202,"x_max":1024,"o":"m 613 173 q 322 292 443 173 q 202 578 202 410 q 322 866 202 746 q 613 986 443 986 q 903 866 783 986 q 1024 578 1024 746 q 903 292 1024 410 q 613 173 783 173 m 614 918 q 375 818 474 918 q 275 578 275 718 q 375 339 275 438 q 614 241 474 241 q 852 339 754 241 q 951 578 951 438 q 852 818 951 718 q 614 918 754 918 m 823 328 l 703 328 l 654 446 q 572 534 616 534 l 542 534 l 542 328 l 444 328 l 444 838 l 597 838 q 745 800 693 838 q 796 699 796 763 q 765 609 796 646 q 671 559 733 572 l 671 557 q 756 463 714 549 l 823 328 m 542 756 l 542 611 l 597 611 q 692 684 692 611 q 666 739 692 722 q 587 756 641 756 l 542 756 z "},"©":{"ha":1239,"x_min":131,"x_max":1159,"o":"m 1159 488 q 1091 231 1159 348 q 904 49 1023 115 q 644 -17 786 -17 q 384 46 501 -17 q 199 224 267 109 q 131 484 131 339 q 198 740 131 624 q 385 922 266 855 q 648 989 503 989 q 907 925 789 989 q 1092 745 1025 861 q 1159 488 1159 629 m 1083 485 q 1026 706 1083 606 q 868 864 970 807 q 646 922 767 922 q 420 864 522 922 q 262 706 319 807 q 206 485 206 605 q 264 261 206 362 q 424 103 323 159 q 646 46 526 46 q 868 106 766 46 q 1027 266 970 165 q 1083 485 1083 366 m 851 190 q 667 144 765 144 q 499 186 575 144 q 379 304 422 229 q 336 471 336 379 q 381 657 336 576 q 506 783 425 739 q 688 827 587 827 q 849 790 776 827 l 849 659 q 775 696 821 682 q 680 709 730 709 q 571 681 621 709 q 495 601 522 653 q 467 481 467 549 q 529 319 467 381 q 685 258 590 258 q 779 274 732 258 q 851 309 826 290 l 851 190 z "},"™":{"ha":1072,"x_min":108,"x_max":1003,"o":"m 916 524 l 916 836 l 912 836 l 784 524 l 718 524 l 596 836 l 593 836 l 593 524 l 509 524 l 509 972 l 625 972 l 755 650 l 758 650 l 892 972 l 1003 972 l 1003 524 l 916 524 m 327 897 l 327 524 l 236 524 l 236 897 l 108 897 l 108 972 l 457 972 l 457 897 l 327 897 z "},"´":{"ha":547,"x_min":239,"x_max":597,"o":"m 361 815 l 239 815 l 444 1036 l 597 1036 l 361 815 z "},"¨":{"ha":547,"x_min":149,"x_max":606,"o":"m 606 896 q 583 839 606 862 q 521 815 559 815 q 459 839 483 815 q 435 896 435 863 q 460 952 435 930 q 520 975 484 975 q 582 952 557 975 q 606 896 606 930 m 321 896 q 295 838 321 861 q 235 815 270 815 q 174 838 200 815 q 149 896 149 861 q 173 952 149 929 q 235 975 197 975 q 296 952 271 975 q 321 896 321 930 z "},"≠":{"ha":967,"x_min":175,"x_max":823,"o":"m 454 197 l 353 0 l 222 0 l 325 197 l 175 197 l 175 312 l 385 312 l 476 489 l 175 489 l 175 604 l 536 604 l 640 806 l 769 806 l 666 604 l 823 604 l 823 489 l 607 489 l 515 312 l 823 312 l 823 197 l 454 197 z "},"Æ":{"ha":1249,"x_min":-90,"x_max":1301,"o":"m 1272 831 l 912 831 l 854 556 l 1187 556 l 1157 415 l 824 415 l 765 140 l 1145 140 l 1117 0 l 568 0 l 620 244 l 286 244 l 109 0 l -90 0 l 640 972 l 1301 972 l 1272 831 m 707 832 l 389 387 l 650 387 l 743 832 l 707 832 z "},"Ø":{"ha":1050,"x_min":31,"x_max":1052,"o":"m 945 827 q 1017 572 1017 717 q 945 272 1017 412 q 757 58 874 132 q 481 -17 640 -17 q 336 8 406 -17 q 213 81 267 33 l 99 -36 l 31 31 l 150 153 q 84 399 84 260 q 235 818 84 649 q 618 987 386 987 q 880 897 774 987 l 985 1003 l 1052 937 l 945 827 m 773 786 q 606 850 705 850 q 427 795 507 850 q 299 630 347 739 q 251 398 251 520 q 272 277 251 335 l 773 786 m 848 571 q 823 702 848 643 l 320 189 q 496 118 383 118 q 674 175 595 118 q 801 340 753 231 q 848 571 848 450 z "},"∞":{"ha":1131,"x_min":68,"x_max":1099,"o":"m 1099 401 q 1065 267 1099 330 q 972 169 1031 205 q 842 133 913 133 q 583 311 686 133 q 464 182 532 227 q 326 136 396 136 q 140 210 212 136 q 68 404 68 283 q 103 537 68 475 q 196 636 137 600 q 326 671 256 671 q 471 628 408 671 q 585 494 534 584 q 700 622 634 575 q 842 668 766 668 q 975 635 916 668 q 1066 541 1034 602 q 1099 401 1099 479 m 977 402 q 936 512 977 468 q 831 555 895 555 q 732 518 779 555 q 642 401 686 481 q 728 285 682 322 q 831 248 774 248 q 937 290 897 248 q 977 402 977 333 m 526 405 q 439 521 485 484 q 335 559 393 559 q 231 516 272 559 q 191 403 191 473 q 232 294 191 336 q 336 252 273 252 q 435 288 389 252 q 526 405 481 325 z "},"±":{"ha":967,"x_min":172,"x_max":821,"o":"m 553 456 l 553 188 l 440 188 l 440 456 l 173 456 l 173 570 l 440 570 l 440 840 l 553 840 l 553 570 l 821 570 l 821 456 l 553 456 m 172 0 l 172 114 l 820 114 l 820 0 l 172 0 z "},"≤":{"ha":967,"x_min":180,"x_max":829,"o":"m 201 443 l 201 522 l 810 826 l 810 695 l 365 485 l 365 482 l 810 292 l 810 160 l 201 443 m 180 0 l 180 114 l 829 114 l 829 0 l 180 0 z "},"≥":{"ha":967,"x_min":180,"x_max":829,"o":"m 201 160 l 201 292 l 645 480 l 645 484 l 201 695 l 201 826 l 810 522 l 810 443 l 201 160 m 180 0 l 180 114 l 829 114 l 829 0 l 180 0 z "},"¥":{"ha":774,"x_min":53,"x_max":878,"o":"m 543 532 l 724 532 l 701 421 l 484 421 l 458 299 l 675 299 l 652 188 l 435 188 l 394 0 l 235 0 l 275 188 l 53 188 l 76 299 l 298 299 l 324 421 l 101 421 l 125 532 l 311 532 l 168 972 l 334 972 l 419 628 l 435 558 l 438 558 q 459 595 448 576 q 708 972 471 614 l 878 972 l 543 532 z "},"µ":{"ha":826,"x_min":-47,"x_max":774,"o":"m 494 147 q 254 -17 394 -17 q 207 -7 229 -17 q 179 18 186 2 l 111 -295 l -47 -295 l 159 694 l 323 694 l 240 302 q 226 212 226 231 q 306 116 226 116 q 403 152 353 116 q 490 246 452 187 q 541 366 528 305 l 610 694 l 774 694 l 676 230 q 669 170 669 194 q 683 133 669 146 q 724 119 698 119 q 770 127 745 119 l 743 1 q 631 -13 692 -13 q 529 18 564 -13 q 494 106 494 48 l 496 147 l 494 147 z "},"∂":{"ha":772,"x_min":58,"x_max":746,"o":"m 746 625 q 720 386 746 513 q 641 169 694 258 q 507 31 588 79 q 326 -17 427 -17 q 130 57 201 -17 q 58 260 58 132 q 106 483 58 380 q 233 641 155 586 q 408 696 311 696 q 514 671 472 696 q 586 593 556 646 l 589 593 l 590 631 q 547 823 590 762 q 416 885 504 885 q 329 870 378 885 q 242 833 279 855 l 276 970 q 458 1014 366 1014 q 674 921 602 1014 q 746 625 746 827 m 570 453 q 519 544 554 512 q 439 576 485 576 q 330 533 379 576 q 251 417 280 490 q 222 266 222 343 q 254 153 222 194 q 343 113 286 113 q 491 207 428 113 q 570 453 553 300 z "},"∑":{"ha":873,"x_min":56,"x_max":861,"o":"m 56 -319 l 56 -233 l 490 334 l 77 879 l 77 972 l 837 972 l 837 830 l 314 830 l 684 338 l 292 -181 l 861 -181 l 861 -319 l 56 -319 z "},"∏":{"ha":1073,"x_min":141,"x_max":984,"o":"m 817 -319 l 817 823 l 307 823 l 307 -319 l 141 -319 l 141 972 l 984 972 l 984 -319 l 817 -319 z "},"∫":{"ha":774,"x_min":142,"x_max":675,"o":"m 675 897 q 599 914 640 914 q 516 880 544 914 q 489 785 489 845 l 489 -81 q 420 -262 489 -193 q 236 -330 351 -330 q 142 -317 179 -330 l 142 -184 q 217 -201 174 -201 q 299 -166 272 -201 q 327 -72 327 -132 l 327 793 q 397 976 327 907 q 581 1044 468 1044 q 675 1031 638 1044 l 675 897 z "},"ª":{"ha":629,"x_min":127,"x_max":652,"o":"m 565 485 l 438 485 l 441 530 l 446 574 l 444 574 q 273 472 372 472 q 167 519 206 472 q 127 659 127 566 q 170 826 127 746 q 283 947 212 907 q 448 987 354 987 q 652 964 532 987 l 585 642 q 572 563 580 615 q 565 485 565 511 m 510 886 q 441 895 477 895 q 348 867 389 895 q 281 783 307 839 q 256 668 256 728 q 328 568 256 568 q 421 623 377 568 q 484 762 465 677 l 510 886 z "},"º":{"ha":627,"x_min":130,"x_max":649,"o":"m 649 775 q 613 621 649 690 q 512 512 578 551 q 359 472 446 472 q 192 533 254 472 q 130 694 130 593 q 166 843 130 775 q 269 948 203 910 q 418 986 335 986 q 588 930 526 986 q 649 775 649 873 m 522 767 q 493 857 522 824 q 410 889 464 889 q 298 832 340 889 q 256 692 256 776 q 286 602 256 635 q 366 568 315 568 q 479 625 437 568 q 522 767 522 681 z "},"Ω":{"ha":1072,"x_min":-11,"x_max":1055,"o":"m 1055 607 q 970 332 1055 456 q 731 138 884 209 l 959 138 l 930 0 l 551 0 l 584 159 q 799 341 727 231 q 871 589 871 452 q 802 773 871 704 q 618 843 732 843 q 439 794 519 843 q 315 657 359 746 q 270 453 270 568 q 300 295 270 366 q 401 159 330 224 l 368 0 l -11 0 l 18 138 l 258 138 q 133 286 178 198 q 89 474 89 374 q 159 744 89 627 q 352 925 229 861 q 627 989 475 989 q 851 941 753 989 q 1002 805 949 892 q 1055 607 1055 718 z "},"æ":{"ha":1171,"x_min":47,"x_max":1154,"o":"m 1154 524 q 1037 339 1154 399 q 681 277 920 279 l 680 258 q 722 147 680 187 q 840 107 764 107 q 950 126 892 107 q 1058 174 1009 144 l 1031 39 q 806 -17 927 -17 q 631 35 699 -17 q 543 180 562 86 l 540 180 q 254 -17 414 -17 q 102 51 157 -17 q 47 238 47 118 q 82 420 47 328 q 179 577 118 512 q 325 676 240 642 q 513 711 409 711 q 734 665 627 711 q 920 711 816 711 q 1089 660 1025 711 q 1154 524 1154 608 m 994 519 q 968 573 994 553 q 900 593 942 593 q 770 537 827 593 q 694 390 713 480 q 994 519 994 390 m 614 568 q 509 589 567 589 q 359 545 425 589 q 252 416 293 501 q 211 246 211 332 q 232 149 211 186 q 296 113 253 113 q 420 185 358 113 q 535 399 481 257 q 614 568 579 516 z "},"ø":{"ha":771,"x_min":-26,"x_max":810,"o":"m 692 572 q 724 428 724 512 q 673 199 724 303 q 533 39 623 94 q 328 -17 444 -17 q 134 51 205 -17 l 35 -41 l -26 27 l 78 123 q 47 267 47 189 q 98 497 47 393 q 239 656 149 601 q 444 711 328 711 q 634 644 558 711 l 749 751 l 810 682 l 692 572 m 528 544 q 433 588 494 588 q 314 547 367 588 q 230 433 260 507 q 200 275 200 360 q 203 241 200 257 l 528 544 m 570 421 q 567 458 570 446 l 241 152 q 282 119 256 132 q 338 106 307 106 q 458 147 406 106 q 541 261 511 188 q 570 421 570 334 z "},"¿":{"ha":610,"x_min":-37,"x_max":498,"o":"m 498 623 q 467 554 498 581 q 396 527 437 527 q 326 553 354 527 q 298 618 298 578 q 327 686 298 659 q 401 714 357 714 q 471 688 444 714 q 498 623 498 662 m 217 -294 q 32 -233 101 -294 q -37 -73 -37 -172 q 7 75 -37 8 q 151 208 51 142 q 248 295 217 252 q 295 416 279 338 l 434 416 q 376 245 411 301 q 273 144 340 189 q 158 46 193 91 q 124 -47 124 1 q 159 -131 124 -101 q 251 -161 195 -161 q 450 -99 355 -161 l 427 -250 q 329 -282 385 -269 q 217 -294 273 -294 z "}," ":{"ha":382,"x_min":0,"x_max":0,"o":""},"¡":{"ha":462,"x_min":14,"x_max":382,"o":"m 382 623 q 351 554 382 581 q 281 527 321 527 q 211 553 239 527 q 182 618 182 578 q 212 686 182 659 q 286 714 241 714 q 355 688 328 714 q 382 623 382 661 m 184 -272 l 14 -272 l 179 412 l 312 412 l 184 -272 z "},"¬":{"ha":967,"x_min":166,"x_max":815,"o":"m 702 176 l 702 454 l 166 454 l 166 568 l 815 568 l 815 176 l 702 176 z "},"√":{"ha":903,"x_min":93,"x_max":804,"o":"m 534 -1 l 429 -1 l 212 505 l 93 505 l 93 599 l 301 599 l 476 181 l 697 1028 l 804 1028 l 534 -1 z "},"ƒ":{"ha":774,"x_min":38,"x_max":743,"o":"m 718 830 q 639 853 677 853 q 569 828 598 853 q 529 753 541 802 l 503 635 l 622 635 l 594 515 l 477 515 l 385 98 q 292 -119 351 -52 q 132 -187 232 -187 q 81 -183 109 -187 q 38 -171 54 -178 l 55 -50 q 113 -68 81 -68 q 186 -28 159 -68 q 233 102 213 12 l 324 515 l 239 515 l 267 635 l 349 635 l 377 760 q 464 920 400 863 q 625 977 527 977 q 743 956 686 977 l 718 830 z "},"≈":{"ha":967,"x_min":152,"x_max":846,"o":"m 846 664 q 788 496 842 557 q 644 435 735 435 q 568 448 605 435 q 468 502 532 461 q 416 532 443 517 q 360 546 389 546 q 293 516 317 546 q 267 433 270 487 l 152 433 q 210 602 157 543 q 355 661 264 661 q 405 656 381 661 q 449 642 428 651 q 515 605 470 633 q 594 560 569 570 q 643 549 619 549 q 705 581 682 549 q 730 664 729 613 l 846 664 m 846 372 q 788 205 842 266 q 644 144 735 144 q 570 156 606 144 q 468 211 534 168 q 416 241 443 227 q 360 255 389 255 q 294 226 318 255 q 267 141 271 197 l 152 141 q 210 310 157 249 q 355 370 263 370 q 428 359 391 370 q 515 315 465 347 l 554 290 q 643 258 604 258 q 705 290 682 258 q 730 372 729 321 l 846 372 z "},"Δ":{"ha":973,"x_min":-21,"x_max":861,"o":"m 861 72 l 846 0 l -21 0 l -5 72 l 524 972 l 722 972 l 861 72 m 596 802 l 597 825 l 593 825 q 577 790 586 812 q 554 744 568 768 l 210 140 l 684 140 l 603 715 q 596 802 596 761 z "},"«":{"ha":764,"x_min":48,"x_max":760,"o":"m 518 135 l 354 364 l 604 596 l 760 596 l 500 355 l 660 135 l 518 135 m 213 135 l 48 364 l 299 596 l 455 596 l 195 355 l 355 135 l 213 135 z "},"»":{"ha":764,"x_min":3,"x_max":715,"o":"m 465 137 l 309 137 l 569 378 l 409 598 l 550 598 l 715 369 l 465 137 m 159 137 l 3 137 l 264 378 l 104 598 l 245 598 l 410 369 l 159 137 z "},"…":{"ha":1145,"x_min":36,"x_max":998,"o":"m 998 82 q 968 13 998 41 q 896 -14 938 -14 q 827 12 855 -14 q 798 76 798 38 q 828 145 798 117 q 901 174 857 174 q 970 147 942 174 q 998 82 998 120 m 616 82 q 587 13 616 41 q 515 -14 557 -14 q 445 12 473 -14 q 416 76 416 38 q 447 146 416 118 q 519 174 477 174 q 589 147 561 174 q 616 82 616 120 m 235 82 q 205 13 235 41 q 133 -14 176 -14 q 64 12 93 -14 q 36 76 36 38 q 65 145 36 117 q 138 174 95 174 q 208 147 180 174 q 235 82 235 120 z "},"À":{"ha":927,"x_min":-70,"x_max":844,"o":"m 673 0 l 637 244 l 256 244 l 121 0 l -70 0 l 500 972 l 690 972 l 844 0 l 673 0 m 569 779 l 569 803 l 570 827 l 567 827 q 535 752 553 786 l 326 380 l 619 380 l 572 746 q 569 779 569 758 m 616 1062 l 448 1283 l 589 1283 l 730 1062 l 616 1062 z "},"Ã":{"ha":927,"x_min":-70,"x_max":854,"o":"m 673 0 l 637 244 l 256 244 l 121 0 l -70 0 l 500 972 l 690 972 l 844 0 l 673 0 m 569 779 l 569 803 l 570 827 l 567 827 q 535 752 553 786 l 326 380 l 619 380 l 572 746 q 569 779 569 758 m 854 1245 q 801 1121 846 1168 q 693 1075 756 1075 q 636 1084 659 1075 q 595 1104 614 1093 q 561 1125 577 1116 q 524 1134 545 1134 q 471 1112 490 1134 q 448 1062 452 1090 l 363 1062 q 416 1185 370 1137 q 530 1233 463 1233 q 583 1223 562 1233 q 623 1202 605 1214 q 657 1181 640 1191 q 697 1172 674 1172 q 746 1192 726 1172 q 770 1245 765 1213 l 854 1245 z "},"Õ":{"ha":1050,"x_min":84,"x_max":1017,"o":"m 1017 574 q 950 280 1017 417 q 765 63 883 142 q 485 -17 647 -17 q 275 35 366 -17 q 134 183 184 87 q 84 399 84 279 q 124 635 84 527 q 240 826 164 744 q 411 949 317 909 q 618 989 506 989 q 826 938 735 989 q 967 792 918 886 q 1017 574 1017 697 m 840 568 q 775 768 840 694 q 600 842 711 842 q 428 784 508 842 q 304 621 349 726 q 260 400 260 515 q 323 202 260 276 q 498 129 387 129 q 673 186 595 129 q 795 349 751 243 q 840 568 840 456 m 890 1244 q 837 1121 882 1167 q 728 1074 791 1074 q 672 1083 694 1074 q 631 1104 649 1093 q 596 1124 612 1115 q 559 1133 580 1133 q 506 1112 525 1133 q 484 1061 488 1090 l 399 1061 q 452 1184 406 1137 q 566 1232 498 1232 q 618 1223 597 1232 q 658 1202 640 1213 q 692 1181 675 1190 q 732 1171 709 1171 q 781 1192 762 1171 q 805 1244 800 1212 l 890 1244 z "},"Œ":{"ha":1278,"x_min":83,"x_max":1337,"o":"m 1307 831 l 949 831 l 890 556 l 1223 556 l 1194 415 l 861 415 l 802 140 l 1183 140 l 1154 0 l 679 0 l 633 -3 q 538 -13 571 -9 q 475 -17 506 -17 q 272 36 362 -17 q 132 184 181 89 q 83 402 83 280 q 149 702 83 571 q 336 911 215 833 q 615 989 457 989 q 747 981 665 989 q 852 972 823 972 l 1337 972 l 1307 831 m 778 819 q 605 842 718 842 q 430 786 508 842 q 306 624 353 731 q 259 399 259 517 q 323 202 259 275 q 500 129 387 129 q 637 149 562 129 l 778 819 z "},"œ":{"ha":1194,"x_min":47,"x_max":1176,"o":"m 1176 524 q 1059 339 1176 398 q 705 277 943 279 l 703 265 l 703 254 q 745 146 703 186 q 862 107 787 107 q 974 126 914 107 q 1081 174 1034 144 l 1054 39 q 838 -17 956 -17 q 688 19 749 -17 q 597 125 626 55 l 594 125 q 478 21 547 59 q 325 -17 409 -17 q 122 60 197 -17 q 47 267 47 137 q 95 494 47 391 q 232 654 144 596 q 429 711 319 711 q 568 674 509 711 q 659 566 628 637 l 661 566 q 938 711 772 711 q 1065 688 1011 711 q 1147 621 1118 664 q 1176 524 1176 577 m 1017 517 q 992 574 1017 554 q 924 593 966 593 q 794 535 852 593 q 718 389 736 477 q 1017 517 1017 389 m 555 424 q 524 540 555 498 q 431 582 492 582 q 319 539 370 582 q 240 425 269 497 q 212 269 212 352 q 246 154 212 196 q 339 113 280 113 q 451 155 401 113 q 528 269 501 197 q 555 424 555 342 z "},"–":{"ha":694,"x_min":-5,"x_max":713,"o":"m -5 319 l 19 438 l 713 438 l 689 319 l -5 319 z "},"—":{"ha":1389,"x_min":-5,"x_max":1408,"o":"m -5 319 l 19 438 l 1408 438 l 1383 319 l -5 319 z "},"“":{"ha":602,"x_min":139,"x_max":642,"o":"m 529 676 l 393 676 l 535 979 l 642 979 l 529 676 m 275 676 l 139 676 l 280 979 l 387 979 l 275 676 z "},"”":{"ha":602,"x_min":152,"x_max":654,"o":"m 511 676 l 406 676 l 519 979 l 654 979 l 511 676 m 257 676 l 152 676 l 265 979 l 400 979 l 257 676 z "},"‘":{"ha":349,"x_min":139,"x_max":388,"o":"m 275 676 l 139 676 l 280 979 l 388 979 l 275 676 z "},"’":{"ha":349,"x_min":152,"x_max":400,"o":"m 257 676 l 152 676 l 265 979 l 400 979 l 257 676 z "},"÷":{"ha":967,"x_min":173,"x_max":822,"o":"m 581 664 q 556 604 581 627 q 498 581 531 581 q 438 605 463 581 q 414 664 414 629 q 437 724 414 700 q 498 749 461 749 q 559 726 536 749 q 581 664 581 703 m 173 344 l 173 458 l 822 458 l 822 344 l 173 344 m 581 135 q 557 77 581 100 q 498 54 533 54 q 438 78 463 54 q 414 135 414 102 q 438 197 414 172 q 498 222 463 222 q 561 198 540 222 q 581 135 581 175 z "},"◊":{"ha":812,"x_min":81,"x_max":772,"o":"m 458 0 l 393 0 l 81 485 l 393 972 l 458 972 l 772 486 l 458 0 m 427 841 l 205 486 l 427 130 l 649 486 l 427 841 z "},"ÿ":{"ha":709,"x_min":-109,"x_max":779,"o":"m -18 -326 q -109 -312 -66 -326 l -80 -180 q -12 -197 -54 -197 q 133 -105 73 -197 l 203 3 l 72 694 l 242 694 l 307 216 l 310 172 l 309 144 l 312 144 q 345 216 329 187 l 604 694 l 779 694 l 311 -88 q 158 -272 234 -218 q -18 -326 81 -326 m 665 896 q 642 839 665 862 q 580 815 618 815 q 518 839 542 815 q 494 896 494 863 q 519 952 494 930 q 579 975 543 975 q 641 952 616 975 q 665 896 665 930 m 380 896 q 354 838 380 861 q 294 815 329 815 q 233 838 259 815 q 208 896 208 861 q 232 952 208 929 q 294 975 256 975 q 355 952 330 975 q 380 896 380 930 z "},"Ÿ":{"ha":807,"x_min":137,"x_max":932,"o":"m 408 0 l 239 0 l 315 357 l 137 972 l 317 972 l 416 564 l 423 527 l 427 496 l 429 496 q 464 562 450 542 l 744 972 l 932 972 l 484 361 l 408 0 m 771 1143 q 747 1086 771 1109 q 686 1063 724 1063 q 624 1086 648 1063 q 600 1143 600 1110 q 625 1200 600 1178 q 685 1222 649 1222 q 746 1200 722 1222 q 771 1143 771 1177 m 486 1143 q 460 1086 486 1109 q 399 1063 435 1063 q 339 1085 365 1063 q 313 1143 313 1108 q 338 1199 313 1177 q 399 1222 362 1222 q 461 1200 436 1222 q 486 1143 486 1177 z "},"⁄":{"ha":315,"x_min":-271,"x_max":661,"o":"m -138 0 l -271 0 l 529 972 l 661 972 l -138 0 z "},"€":{"ha":774,"x_min":31,"x_max":846,"o":"m 818 798 q 648 859 736 859 q 459 801 538 859 q 338 634 380 743 l 695 634 l 674 540 l 307 540 q 292 414 294 484 l 647 414 l 627 319 l 295 319 q 364 163 309 214 q 507 113 420 113 q 692 166 598 113 l 669 22 q 480 -18 577 -18 q 241 72 332 -18 q 137 319 149 162 l 31 319 l 51 414 l 134 414 q 150 540 140 496 l 79 540 l 98 634 l 175 634 q 359 896 233 803 q 658 989 486 989 q 765 977 713 989 q 846 948 818 964 l 818 798 z "},"‹":{"ha":458,"x_min":49,"x_max":456,"o":"m 213 135 l 49 364 l 299 596 l 456 596 l 196 355 l 355 135 l 213 135 z "},"›":{"ha":458,"x_min":3,"x_max":410,"o":"m 159 137 l 3 137 l 263 378 l 103 598 l 245 598 l 410 369 l 159 137 z "},"ﬁ":{"ha":867,"x_min":7,"x_max":864,"o":"m 597 897 q 513 915 559 915 q 433 884 461 915 q 391 788 405 852 l 371 694 l 532 694 l 504 568 l 341 568 l 170 -231 l 7 -231 l 178 568 l 60 568 l 87 694 l 205 694 l 231 808 q 329 988 258 931 q 515 1044 400 1044 q 623 1028 576 1044 l 597 897 m 864 930 q 835 862 864 889 q 764 836 806 836 q 695 860 723 836 q 667 924 667 884 q 696 991 667 966 q 768 1017 726 1017 q 836 992 808 1017 q 864 930 864 968 m 680 -12 q 566 26 605 -12 q 527 134 527 64 q 534 203 527 169 l 635 694 l 800 694 l 708 257 q 694 170 694 189 q 753 118 694 118 q 814 129 787 118 l 789 4 q 680 -12 730 -12 z "},"ﬂ":{"ha":867,"x_min":7,"x_max":872,"o":"m 597 897 q 513 915 559 915 q 433 884 461 915 q 391 788 405 852 l 371 694 l 532 694 l 504 568 l 341 568 l 170 -231 l 7 -231 l 178 568 l 60 568 l 87 694 l 205 694 l 231 808 q 329 988 258 931 q 515 1044 400 1044 q 623 1028 576 1044 l 597 897 m 680 -12 q 565 26 604 -12 q 526 132 526 63 q 551 295 526 177 q 707 1028 577 414 l 872 1028 l 708 257 q 694 170 694 189 q 753 118 694 118 q 814 129 787 118 l 789 4 q 680 -12 736 -12 z "},"‡":{"ha":543,"x_min":23,"x_max":606,"o":"m 513 339 l 313 356 l 294 146 l 160 146 l 229 356 l 23 339 l 50 467 l 225 446 l 280 559 l 273 671 l 89 651 l 116 779 l 316 762 l 335 972 l 469 972 l 399 762 l 606 779 l 579 651 l 404 671 l 349 559 l 356 446 l 540 467 l 513 339 z "},"·":{"ha":339,"x_min":87,"x_max":287,"o":"m 287 435 q 258 367 287 395 q 184 338 229 338 q 115 365 142 338 q 87 429 87 391 q 117 498 87 471 q 189 525 146 525 q 259 499 231 525 q 287 435 287 473 z "},"‚":{"ha":349,"x_min":-25,"x_max":222,"o":"m 80 -153 l -25 -153 l 88 149 l 222 149 l 80 -153 z "},"„":{"ha":602,"x_min":-25,"x_max":477,"o":"m 334 -155 l 228 -155 l 342 147 l 477 147 l 334 -155 m 80 -155 l -25 -155 l 88 147 l 222 147 l 80 -155 z "},"‰":{"ha":1720,"x_min":115,"x_max":1655,"o":"m 1655 288 q 1622 139 1655 209 q 1528 27 1588 68 q 1390 -14 1467 -14 q 1276 13 1322 -14 q 1206 85 1230 39 q 1181 191 1181 132 q 1219 343 1181 271 q 1318 454 1257 416 q 1453 491 1379 491 q 1602 437 1548 491 q 1655 288 1655 382 m 1111 288 q 1077 139 1111 210 q 982 27 1042 68 q 844 -14 921 -14 q 731 13 777 -14 q 661 86 685 39 q 636 191 636 134 q 674 343 636 271 q 772 454 711 416 q 908 491 833 491 q 1057 436 1004 491 q 1111 288 1111 381 m 260 0 l 126 0 l 963 972 l 1097 972 l 260 0 m 590 783 q 553 629 590 701 q 456 519 516 557 q 323 481 395 481 q 210 508 256 481 q 140 581 164 534 q 115 688 115 627 q 152 838 115 766 q 250 948 189 909 q 387 986 311 986 q 536 932 481 986 q 590 783 590 878 m 1538 285 q 1515 366 1538 337 q 1449 394 1491 394 q 1373 365 1407 394 q 1320 288 1339 336 q 1301 191 1301 239 q 1325 112 1301 142 q 1394 83 1350 83 q 1496 142 1455 83 q 1538 285 1538 202 m 992 285 q 969 365 992 335 q 904 394 946 394 q 828 366 862 394 q 774 288 794 337 q 755 191 755 239 q 779 112 755 142 q 848 83 804 83 q 950 142 909 83 q 992 285 992 202 m 471 780 q 447 861 471 833 q 383 890 423 890 q 308 862 341 890 q 254 785 274 833 q 234 687 234 737 q 259 607 234 637 q 327 578 284 578 q 400 606 367 578 q 453 681 434 634 q 471 780 471 727 z "},"Â":{"ha":927,"x_min":-70,"x_max":844,"o":"m 673 0 l 637 244 l 256 244 l 121 0 l -70 0 l 500 972 l 690 972 l 844 0 l 673 0 m 569 779 l 569 803 l 570 827 l 567 827 q 535 752 553 786 l 326 380 l 619 380 l 572 746 q 569 779 569 758 m 714 1061 l 636 1204 l 497 1061 l 385 1061 l 583 1284 l 713 1284 l 819 1061 l 714 1061 z "},"Ê":{"ha":714,"x_min":41,"x_max":774,"o":"m 744 831 l 387 831 l 328 556 l 661 556 l 630 415 l 298 415 l 239 140 l 620 140 l 591 0 l 41 0 l 248 972 l 774 972 l 744 831 m 640 1061 l 562 1204 l 422 1061 l 310 1061 l 509 1284 l 638 1284 l 745 1061 l 640 1061 z "},"Á":{"ha":927,"x_min":-70,"x_max":844,"o":"m 673 0 l 637 244 l 256 244 l 121 0 l -70 0 l 500 972 l 690 972 l 844 0 l 673 0 m 569 779 l 569 803 l 570 827 l 567 827 q 535 752 553 786 l 326 380 l 619 380 l 572 746 q 569 779 569 758 m 591 1062 l 470 1062 l 675 1283 l 827 1283 l 591 1062 z "},"Ë":{"ha":714,"x_min":41,"x_max":774,"o":"m 744 831 l 387 831 l 328 556 l 661 556 l 630 415 l 298 415 l 239 140 l 620 140 l 591 0 l 41 0 l 248 972 l 774 972 l 744 831 m 760 1143 q 736 1085 760 1109 q 674 1062 712 1062 q 612 1086 636 1062 q 589 1143 589 1109 q 613 1199 589 1177 q 673 1221 637 1221 q 735 1199 710 1221 q 760 1143 760 1177 m 474 1143 q 449 1085 474 1108 q 388 1062 423 1062 q 328 1085 353 1062 q 302 1143 302 1107 q 326 1199 302 1176 q 388 1221 351 1221 q 449 1199 425 1221 q 474 1143 474 1177 z "},"È":{"ha":714,"x_min":41,"x_max":774,"o":"m 744 831 l 387 831 l 328 556 l 661 556 l 630 415 l 298 415 l 239 140 l 620 140 l 591 0 l 41 0 l 248 972 l 774 972 l 744 831 m 541 1061 l 372 1282 l 513 1282 l 654 1061 l 541 1061 z "},"Í":{"ha":405,"x_min":41,"x_max":568,"o":"m 210 0 l 41 0 l 247 972 l 416 972 l 210 0 m 332 1061 l 210 1061 l 415 1282 l 568 1282 l 332 1061 z "},"Î":{"ha":405,"x_min":41,"x_max":561,"o":"m 210 0 l 41 0 l 247 972 l 416 972 l 210 0 m 456 1061 l 378 1204 l 239 1061 l 126 1061 l 325 1284 l 454 1284 l 561 1061 l 456 1061 z "},"Ï":{"ha":405,"x_min":41,"x_max":581,"o":"m 210 0 l 41 0 l 247 972 l 416 972 l 210 0 m 581 1143 q 557 1085 581 1109 q 495 1062 533 1062 q 433 1086 457 1062 q 410 1143 410 1109 q 434 1199 410 1177 q 494 1221 458 1221 q 556 1199 531 1221 q 581 1143 581 1177 m 295 1143 q 270 1085 295 1108 q 209 1062 244 1062 q 149 1085 174 1062 q 123 1143 123 1107 q 147 1199 123 1176 q 209 1221 172 1221 q 270 1199 245 1221 q 295 1143 295 1177 z "},"Ì":{"ha":405,"x_min":41,"x_max":486,"o":"m 210 0 l 41 0 l 247 972 l 416 972 l 210 0 m 373 1062 l 204 1283 l 345 1283 l 486 1062 l 373 1062 z "},"Ó":{"ha":1050,"x_min":84,"x_max":1017,"o":"m 1017 574 q 950 280 1017 417 q 765 63 883 142 q 485 -17 647 -17 q 275 35 366 -17 q 134 183 184 87 q 84 399 84 279 q 124 635 84 527 q 240 826 164 744 q 411 949 317 909 q 618 989 506 989 q 826 938 735 989 q 967 792 918 886 q 1017 574 1017 697 m 840 568 q 775 768 840 694 q 600 842 711 842 q 428 784 508 842 q 304 621 349 726 q 260 400 260 515 q 323 202 260 276 q 498 129 387 129 q 673 186 595 129 q 795 349 751 243 q 840 568 840 456 m 606 1062 l 484 1062 l 689 1283 l 842 1283 l 606 1062 z "},"Ô":{"ha":1050,"x_min":84,"x_max":1017,"o":"m 1017 574 q 950 280 1017 417 q 765 63 883 142 q 485 -17 647 -17 q 275 35 366 -17 q 134 183 184 87 q 84 399 84 279 q 124 635 84 527 q 240 826 164 744 q 411 949 317 909 q 618 989 506 989 q 826 938 735 989 q 967 792 918 886 q 1017 574 1017 697 m 840 568 q 775 768 840 694 q 600 842 711 842 q 428 784 508 842 q 304 621 349 726 q 260 400 260 515 q 323 202 260 276 q 498 129 387 129 q 673 186 595 129 q 795 349 751 243 q 840 568 840 456 m 725 1062 l 647 1205 l 508 1062 l 395 1062 l 594 1285 l 724 1285 l 830 1062 l 725 1062 z "},"Ò":{"ha":1050,"x_min":84,"x_max":1017,"o":"m 1017 574 q 950 280 1017 417 q 765 63 883 142 q 485 -17 647 -17 q 275 35 366 -17 q 134 183 184 87 q 84 399 84 279 q 124 635 84 527 q 240 826 164 744 q 411 949 317 909 q 618 989 506 989 q 826 938 735 989 q 967 792 918 886 q 1017 574 1017 697 m 840 568 q 775 768 840 694 q 600 842 711 842 q 428 784 508 842 q 304 621 349 726 q 260 400 260 515 q 323 202 260 276 q 498 129 387 129 q 673 186 595 129 q 795 349 751 243 q 840 568 840 456 m 641 1061 l 472 1282 l 613 1282 l 754 1061 l 641 1061 z "},"Ú":{"ha":981,"x_min":108,"x_max":1004,"o":"m 441 -17 q 198 70 288 -17 q 108 301 108 156 q 124 447 108 372 l 237 972 l 406 972 l 293 450 q 275 317 275 358 q 325 179 275 229 q 460 129 375 129 q 621 190 562 129 q 708 385 680 252 l 835 972 l 1004 972 l 878 389 q 792 151 846 237 q 652 24 738 66 q 441 -17 567 -17 m 632 1062 l 511 1062 l 715 1283 l 868 1283 l 632 1062 z "},"Û":{"ha":981,"x_min":108,"x_max":1004,"o":"m 441 -17 q 198 70 288 -17 q 108 301 108 156 q 124 447 108 372 l 237 972 l 406 972 l 293 450 q 275 317 275 358 q 325 179 275 229 q 460 129 375 129 q 621 190 562 129 q 708 385 680 252 l 835 972 l 1004 972 l 878 389 q 792 151 846 237 q 652 24 738 66 q 441 -17 567 -17 m 742 1061 l 664 1204 l 525 1061 l 412 1061 l 611 1284 l 741 1284 l 847 1061 l 742 1061 z "},"Ù":{"ha":981,"x_min":108,"x_max":1004,"o":"m 441 -17 q 198 70 288 -17 q 108 301 108 156 q 124 447 108 372 l 237 972 l 406 972 l 293 450 q 275 317 275 358 q 325 179 275 229 q 460 129 375 129 q 621 190 562 129 q 708 385 680 252 l 835 972 l 1004 972 l 878 389 q 792 151 846 237 q 652 24 738 66 q 441 -17 567 -17 m 648 1061 l 479 1282 l 620 1282 l 761 1061 l 648 1061 z "},"ı":{"ha":400,"x_min":59,"x_max":348,"o":"m 213 -12 q 98 26 138 -12 q 59 132 59 63 q 77 256 59 177 l 169 694 l 334 694 l 241 257 q 227 170 227 189 q 286 118 227 118 q 348 129 321 118 l 322 4 q 213 -12 270 -12 z "},"ˆ":{"ha":547,"x_min":144,"x_max":578,"o":"m 473 815 l 395 958 l 256 815 l 144 815 l 342 1038 l 472 1038 l 578 815 l 473 815 z "},"˜":{"ha":547,"x_min":134,"x_max":625,"o":"m 625 998 q 571 874 616 921 q 463 828 526 828 q 407 837 429 828 q 366 858 384 846 q 331 878 347 869 q 294 887 315 887 q 241 865 260 887 q 218 815 222 844 l 134 815 q 186 938 140 890 q 300 986 233 986 q 353 977 332 986 q 393 956 375 967 q 427 935 410 944 q 467 925 444 925 q 516 945 496 925 q 540 998 535 966 l 625 998 z "},"ˉ":{"ha":547,"x_min":177,"x_max":566,"o":"m 548 815 l 177 815 l 195 910 l 566 910 l 548 815 z "},"˘":{"ha":547,"x_min":199,"x_max":602,"o":"m 602 1006 q 513 865 574 915 q 368 815 452 815 q 247 857 294 815 q 199 969 199 899 q 204 1006 199 989 l 294 1006 l 292 985 q 316 926 292 947 q 377 906 340 906 q 507 1006 473 906 l 602 1006 z "},"˙":{"ha":547,"x_min":295,"x_max":465,"o":"m 465 897 q 441 839 465 862 q 380 815 417 815 q 319 839 344 815 q 295 897 295 862 q 319 952 295 931 q 380 974 344 974 q 440 952 416 974 q 465 897 465 931 z "},"˚":{"ha":547,"x_min":238,"x_max":539,"o":"m 539 933 q 495 831 539 871 q 387 791 450 791 q 280 829 323 791 q 238 928 238 867 q 281 1031 238 992 q 390 1071 325 1071 q 498 1033 456 1071 q 539 933 539 995 m 460 932 q 440 982 460 962 q 387 1001 419 1001 q 336 981 356 1001 q 316 932 316 960 q 335 880 316 899 q 387 861 354 861 q 439 881 418 861 q 460 932 460 901 z "},"¸":{"ha":547,"x_min":39,"x_max":321,"o":"m 321 -159 q 263 -264 321 -225 q 106 -302 206 -302 q 39 -298 86 -302 l 56 -222 q 107 -227 80 -227 q 186 -211 159 -227 q 212 -169 212 -195 q 134 -121 212 -121 l 100 -123 l 127 0 l 212 0 l 198 -63 q 288 -90 255 -64 q 321 -159 321 -115 z "},"˝":{"ha":547,"x_min":155,"x_max":671,"o":"m 479 815 l 372 815 l 536 1036 l 671 1036 l 479 815 m 262 815 l 155 815 l 321 1036 l 452 1036 l 262 815 z "},"˛":{"ha":547,"x_min":22,"x_max":241,"o":"m 241 0 q 151 -95 177 -60 q 125 -159 125 -130 q 178 -210 125 -210 q 241 -193 205 -210 l 226 -276 q 144 -293 197 -293 q 52 -263 81 -293 q 22 -183 22 -233 q 53 -99 22 -143 q 155 0 83 -56 l 241 0 z "},"ˇ":{"ha":547,"x_min":194,"x_max":629,"o":"m 431 815 l 300 815 l 194 1038 l 298 1038 l 377 896 l 517 1038 l 629 1038 l 431 815 z "},"Ł":{"ha":677,"x_min":2,"x_max":614,"o":"m 584 0 l 41 0 l 120 370 l 2 321 l 31 464 l 151 513 l 248 972 l 417 972 l 336 588 l 542 676 l 513 534 l 304 445 l 241 143 l 614 143 l 584 0 z "},"ł":{"ha":400,"x_min":5,"x_max":430,"o":"m 214 -12 q 99 26 138 -12 q 60 132 60 63 q 65 192 60 155 q 106 397 70 228 l 5 340 l 33 478 l 136 535 l 241 1028 l 406 1028 l 321 627 l 430 688 l 401 551 l 292 492 q 242 259 260 340 q 228 170 225 177 q 287 118 228 118 q 349 129 321 118 l 323 4 q 214 -12 271 -12 z "},"Š":{"ha":718,"x_min":22,"x_max":761,"o":"m 698 787 q 595 833 655 816 q 481 851 535 851 q 393 833 429 851 q 337 786 356 815 q 317 721 317 756 q 346 634 317 672 q 455 542 374 595 q 600 410 559 472 q 640 271 640 348 q 597 118 640 186 q 476 17 554 50 q 292 -17 398 -17 q 149 1 222 -17 q 22 48 76 19 l 51 203 q 168 143 102 165 q 296 121 234 121 q 421 156 377 121 q 465 254 465 191 q 434 340 465 303 q 316 431 403 376 q 182 555 224 490 q 140 700 140 621 q 182 848 140 782 q 302 952 224 915 q 485 989 379 989 q 728 940 604 989 l 698 787 m 563 1062 l 432 1062 l 326 1285 l 431 1285 l 509 1143 l 649 1285 l 761 1285 l 563 1062 z "},"š":{"ha":579,"x_min":7,"x_max":650,"o":"m 523 547 q 452 577 493 564 q 370 590 411 590 q 285 566 313 590 q 257 504 257 542 q 280 448 257 470 q 347 401 303 425 q 467 307 435 352 q 499 202 499 262 q 465 87 499 136 q 365 11 431 39 q 204 -17 299 -17 q 95 -5 153 -17 q 7 22 37 6 l 34 157 q 122 119 71 134 q 221 103 174 103 q 310 125 281 103 q 339 187 339 148 q 319 240 339 218 q 241 294 299 262 q 130 381 165 335 q 95 490 95 427 q 128 604 95 553 q 223 683 161 654 q 370 711 285 711 q 470 702 421 711 q 551 680 518 693 l 523 547 m 452 815 l 321 815 l 215 1038 l 319 1038 l 398 896 l 538 1038 l 650 1038 l 452 815 z "},"Ž":{"ha":817,"x_min":-50,"x_max":918,"o":"m 226 140 l 734 140 l 705 0 l -50 0 l -34 80 l 643 831 l 167 831 l 197 972 l 918 972 l 901 897 l 226 140 m 628 1062 l 497 1062 l 391 1285 l 496 1285 l 574 1143 l 714 1285 l 826 1285 l 628 1062 z "},"ž":{"ha":651,"x_min":-55,"x_max":696,"o":"m 214 126 l 573 126 l 546 0 l -55 0 l -42 63 l 437 568 l 102 568 l 130 694 l 696 694 l 680 623 l 214 126 m 497 815 l 366 815 l 260 1038 l 365 1038 l 444 896 l 583 1038 l 695 1038 l 497 815 z "},"¦":{"ha":393,"x_min":136,"x_max":271,"o":"m 136 474 l 136 1063 l 271 1063 l 271 474 l 136 474 m 136 -326 l 136 266 l 271 266 l 271 -326 l 136 -326 z "},"Ð":{"ha":1017,"x_min":18,"x_max":983,"o":"m 983 574 q 910 269 983 401 q 704 68 837 137 q 390 0 572 0 l 41 0 l 132 420 l 18 420 l 46 561 l 161 561 l 248 972 l 551 972 q 781 924 682 972 q 931 784 880 875 q 983 574 983 692 m 808 561 q 731 762 808 693 q 514 831 654 831 l 387 831 l 328 561 l 537 561 l 508 420 l 299 420 l 239 140 l 388 140 q 697 253 587 140 q 808 561 808 365 z "},"ð":{"ha":771,"x_min":47,"x_max":728,"o":"m 562 886 q 672 695 634 802 q 711 471 711 588 q 659 218 711 332 q 519 43 607 104 q 318 -17 432 -17 q 118 59 190 -17 q 47 267 47 136 q 92 485 47 381 q 220 650 138 588 q 401 711 303 711 q 533 651 487 711 l 536 651 q 494 750 523 698 q 435 834 465 802 l 237 754 l 201 829 l 376 899 q 226 1028 323 958 l 416 1028 q 503 951 469 989 l 692 1030 l 728 956 l 562 886 m 546 433 q 513 543 546 505 q 422 582 481 582 q 319 542 366 582 q 242 426 272 503 q 212 267 212 350 q 242 154 212 195 q 330 113 273 113 q 437 153 389 113 q 515 272 485 193 q 546 433 546 351 z "},"Ý":{"ha":807,"x_min":137,"x_max":932,"o":"m 408 0 l 239 0 l 315 357 l 137 972 l 317 972 l 416 564 l 423 527 l 427 496 l 429 496 q 464 562 450 542 l 744 972 l 932 972 l 484 361 l 408 0 m 548 1062 l 427 1062 l 631 1283 l 784 1283 l 548 1062 z "},"ý":{"ha":709,"x_min":-109,"x_max":779,"o":"m -18 -326 q -109 -312 -66 -326 l -80 -180 q -12 -197 -54 -197 q 133 -105 73 -197 l 203 3 l 72 694 l 242 694 l 307 216 l 310 172 l 309 144 l 312 144 q 345 216 329 187 l 604 694 l 779 694 l 311 -88 q 158 -272 234 -218 q -18 -326 81 -326 m 444 815 l 323 815 l 528 1036 l 680 1036 l 444 815 z "},"Þ":{"ha":837,"x_min":41,"x_max":814,"o":"m 814 559 q 764 372 814 453 q 620 247 714 291 q 395 203 525 203 l 254 203 l 210 0 l 41 0 l 248 972 l 417 972 l 386 824 l 509 824 q 733 754 653 824 q 814 559 814 684 m 638 547 q 591 651 638 614 q 459 689 544 689 l 357 689 l 282 338 l 401 338 q 575 393 513 338 q 638 547 638 448 z "},"þ":{"ha":788,"x_min":-49,"x_max":741,"o":"m 741 453 q 685 215 741 326 q 533 43 629 104 q 316 -17 436 -17 q 184 3 247 -17 l 116 -321 l -49 -321 l 237 1028 l 400 1028 l 331 701 q 295 562 315 629 l 298 562 q 534 711 391 711 q 686 642 632 711 q 741 453 741 573 m 576 438 q 549 546 576 510 q 469 582 521 582 q 378 547 422 582 q 298 444 334 513 q 248 304 262 376 l 208 124 q 258 112 222 119 q 320 106 293 106 q 451 151 393 106 q 543 274 510 197 q 576 438 576 352 z "},"−":{"ha":967,"x_min":174,"x_max":823,"o":"m 174 344 l 174 458 l 823 458 l 823 344 l 174 344 z "},"×":{"ha":967,"x_min":182,"x_max":804,"o":"m 723 91 l 494 321 l 263 91 l 182 172 l 412 401 l 182 631 l 262 712 l 494 481 l 724 712 l 804 630 l 574 401 l 804 172 l 723 91 z "},"½":{"ha":1326,"x_min":153,"x_max":1237,"o":"m 336 0 l 203 0 l 1003 972 l 1135 972 l 336 0 m 227 396 l 323 854 q 274 822 299 837 q 225 795 249 807 q 183 775 202 783 q 153 764 163 767 l 174 865 q 237 889 204 875 q 300 919 269 903 q 359 952 331 935 q 410 987 387 970 l 465 987 l 342 396 l 227 396 m 1158 0 l 767 0 l 779 60 q 804 123 786 95 q 848 175 823 151 q 903 219 873 199 q 962 258 932 239 q 1020 296 991 277 q 1069 335 1048 315 q 1103 379 1090 355 q 1116 431 1116 402 q 1097 475 1116 458 q 1045 492 1078 492 q 994 488 1019 492 q 950 475 970 483 q 915 458 930 467 q 890 441 899 449 l 912 551 q 944 569 926 562 q 984 581 963 576 q 1025 588 1004 586 q 1065 590 1046 590 q 1140 579 1108 590 q 1194 551 1172 569 q 1226 507 1215 532 q 1237 452 1237 481 q 1214 359 1237 401 q 1155 281 1190 316 q 1078 218 1119 245 q 1000 168 1036 190 q 940 132 964 146 q 913 108 915 117 l 912 100 l 1179 100 l 1158 0 z "},"¼":{"ha":1296,"x_min":148,"x_max":1206,"o":"m 339 0 l 206 0 l 1006 972 l 1139 972 l 339 0 m 222 396 l 318 854 q 269 822 294 837 q 221 795 244 807 q 178 775 197 783 q 148 764 159 767 l 169 865 q 232 889 199 875 q 295 919 264 903 q 354 952 326 935 q 405 987 382 970 l 460 987 l 337 396 l 222 396 m 1187 130 l 1112 130 l 1086 0 l 971 0 l 998 130 l 730 130 l 748 214 q 828 292 789 252 q 906 375 867 332 q 985 469 945 419 q 1069 576 1025 518 l 1206 576 l 1131 218 l 1206 218 l 1187 130 m 1017 218 l 1066 456 q 1025 402 1050 435 q 970 336 1000 370 q 911 271 941 302 q 857 218 881 239 l 1017 218 z "},"¾":{"ha":1347,"x_min":90,"x_max":1257,"o":"m 372 0 l 239 0 l 1040 972 l 1172 972 l 372 0 m 1238 130 l 1163 130 l 1137 0 l 1022 0 l 1048 130 l 781 130 l 799 214 q 879 292 840 252 q 957 375 918 332 q 1036 469 996 419 q 1120 576 1076 518 l 1257 576 l 1182 218 l 1257 218 l 1238 130 m 1067 218 l 1117 456 q 1076 402 1101 435 q 1021 336 1050 370 q 962 271 991 302 q 908 218 932 239 l 1067 218 m 501 561 q 473 469 501 509 q 391 405 444 428 q 260 382 337 382 q 162 392 214 382 q 90 414 111 401 l 112 518 q 179 491 135 503 q 262 479 224 479 q 351 503 319 479 q 382 565 382 526 q 262 641 382 641 l 197 641 l 219 739 l 284 739 q 382 764 345 739 q 419 827 419 789 q 399 870 419 853 q 334 888 379 888 q 202 852 268 888 l 225 960 q 292 979 252 971 q 368 986 331 986 q 494 948 448 986 q 540 848 540 911 q 501 750 540 789 q 397 696 462 711 l 397 693 q 501 561 501 667 z "},"₣":{"ha":699,"x_min":-21,"x_max":777,"o":"m 417 170 l 245 170 l 209 0 l 43 0 l 78 170 l -21 170 l 3 286 l 103 286 l 249 972 l 777 972 l 747 832 l 386 832 l 326 549 l 659 549 l 629 410 l 296 410 l 270 286 l 442 286 l 417 170 z "},"Ğ":{"ha":970,"x_min":84,"x_max":955,"o":"m 922 770 q 802 825 872 804 q 656 846 732 846 q 448 793 538 846 q 308 645 357 741 q 259 426 259 549 q 334 205 259 286 q 538 125 409 125 q 675 148 612 125 l 725 388 l 513 388 l 543 526 l 922 526 l 822 56 q 517 -18 682 -18 q 288 36 387 -18 q 137 189 189 90 q 84 414 84 288 q 156 713 84 581 q 360 917 228 845 q 669 989 492 989 q 955 929 814 989 l 922 770 m 905 1253 q 816 1112 878 1162 q 671 1062 755 1062 q 550 1104 597 1062 q 502 1216 502 1145 q 507 1253 502 1236 l 597 1253 l 595 1232 q 620 1173 595 1194 q 680 1153 644 1153 q 810 1253 777 1153 l 905 1253 z "},"ğ":{"ha":788,"x_min":-23,"x_max":756,"o":"m 192 -326 q -23 -275 80 -326 l 6 -136 q 204 -199 103 -199 q 371 -142 309 -199 q 459 43 433 -84 l 477 128 l 474 128 q 371 16 423 49 q 256 -17 319 -17 q 103 51 159 -17 q 47 244 47 119 q 103 483 47 373 q 258 652 160 592 q 481 711 357 711 q 756 680 592 711 l 627 66 q 542 -162 595 -81 q 402 -285 488 -243 q 192 -326 317 -326 m 572 578 q 469 589 530 589 q 338 544 398 589 q 245 422 279 499 q 212 256 212 346 q 239 149 212 186 q 313 113 266 113 q 403 145 360 113 q 481 246 446 178 q 532 390 516 315 l 572 578 m 754 1006 q 666 865 727 915 q 521 815 604 815 q 399 857 447 815 q 351 969 351 899 q 357 1006 351 989 l 447 1006 l 445 985 q 469 926 445 947 q 530 906 493 906 q 659 1006 626 906 l 754 1006 z "},"İ":{"ha":405,"x_min":41,"x_max":445,"o":"m 210 0 l 41 0 l 247 972 l 416 972 l 210 0 m 445 1143 q 421 1085 445 1109 q 360 1062 397 1062 q 300 1085 324 1062 q 275 1143 275 1109 q 300 1199 275 1178 q 360 1221 324 1221 q 421 1199 397 1221 q 445 1143 445 1178 z "},"Ş":{"ha":718,"x_min":22,"x_max":728,"o":"m 698 787 q 595 833 655 816 q 481 851 535 851 q 393 833 429 851 q 337 786 356 815 q 317 721 317 756 q 346 634 317 672 q 455 542 374 595 q 600 410 559 472 q 640 271 640 348 q 597 118 640 186 q 476 17 554 50 q 292 -17 398 -17 q 149 1 222 -17 q 22 48 76 19 l 51 203 q 168 143 102 165 q 296 121 234 121 q 421 156 377 121 q 465 254 465 191 q 434 340 465 303 q 316 431 403 376 q 182 555 224 490 q 140 700 140 621 q 182 848 140 782 q 302 952 224 915 q 485 989 379 989 q 728 940 604 989 l 698 787 m 450 -159 q 392 -264 450 -225 q 235 -302 335 -302 q 168 -298 215 -302 l 185 -222 q 236 -227 209 -227 q 315 -211 288 -227 q 341 -169 341 -195 q 263 -121 341 -121 l 229 -123 l 256 0 l 341 0 l 327 -63 q 417 -90 384 -64 q 450 -159 450 -115 z "},"ş":{"ha":579,"x_min":7,"x_max":551,"o":"m 523 547 q 452 577 493 564 q 370 590 411 590 q 285 566 313 590 q 257 504 257 542 q 280 448 257 470 q 347 401 303 425 q 467 307 435 352 q 499 202 499 262 q 465 87 499 136 q 365 11 431 39 q 204 -17 299 -17 q 95 -5 153 -17 q 7 22 37 6 l 34 157 q 122 119 71 134 q 221 103 174 103 q 310 125 281 103 q 339 187 339 148 q 319 240 339 218 q 241 294 299 262 q 130 381 165 335 q 95 490 95 427 q 128 604 95 553 q 223 683 161 654 q 370 711 285 711 q 470 702 421 711 q 551 680 518 693 l 523 547 m 368 -159 q 311 -264 368 -225 q 154 -302 254 -302 q 87 -298 134 -302 l 104 -222 q 155 -227 127 -227 q 233 -211 207 -227 q 260 -169 260 -195 q 182 -121 260 -121 l 147 -123 l 175 0 l 260 0 l 245 -63 q 335 -90 302 -64 q 368 -159 368 -115 z "},"Ć":{"ha":884,"x_min":81,"x_max":930,"o":"m 895 774 q 659 842 781 842 q 449 788 541 842 q 307 638 357 734 q 257 422 257 543 q 334 206 257 283 q 543 129 411 129 q 669 144 610 129 q 791 193 728 159 l 755 31 q 503 -17 646 -17 q 280 36 376 -17 q 133 185 184 88 q 81 408 81 281 q 154 711 81 577 q 360 917 227 845 q 668 989 493 989 q 930 936 805 989 l 895 774 m 664 1062 l 543 1062 l 747 1283 l 900 1283 l 664 1062 z "},"ć":{"ha":623,"x_min":47,"x_max":724,"o":"m 598 530 q 534 567 572 552 q 450 582 496 582 q 332 544 385 582 q 245 434 279 506 q 211 284 211 363 q 249 156 211 200 q 356 113 286 113 q 445 130 398 113 q 530 171 492 146 l 501 33 q 310 -17 405 -17 q 117 59 186 -17 q 47 268 47 134 q 99 492 47 389 q 244 653 151 595 q 456 711 338 711 q 554 700 505 711 q 630 669 603 688 l 598 530 m 488 815 l 367 815 l 572 1036 l 724 1036 l 488 815 z "},"Č":{"ha":884,"x_min":81,"x_max":930,"o":"m 895 774 q 659 842 781 842 q 449 788 541 842 q 307 638 357 734 q 257 422 257 543 q 334 206 257 283 q 543 129 411 129 q 669 144 610 129 q 791 193 728 159 l 755 31 q 503 -17 646 -17 q 280 36 376 -17 q 133 185 184 88 q 81 408 81 281 q 154 711 81 577 q 360 917 227 845 q 668 989 493 989 q 930 936 805 989 l 895 774 m 715 1062 l 585 1062 l 479 1285 l 583 1285 l 662 1143 l 802 1285 l 913 1285 l 715 1062 z "},"č":{"ha":623,"x_min":47,"x_max":732,"o":"m 598 530 q 534 567 572 552 q 450 582 496 582 q 332 544 385 582 q 245 434 279 506 q 211 284 211 363 q 249 156 211 200 q 356 113 286 113 q 445 130 398 113 q 530 171 492 146 l 501 33 q 310 -17 405 -17 q 117 59 186 -17 q 47 268 47 134 q 99 492 47 389 q 244 653 151 595 q 456 711 338 711 q 554 700 505 711 q 630 669 603 688 l 598 530 m 534 815 l 403 815 l 297 1038 l 401 1038 l 480 896 l 620 1038 l 732 1038 l 534 815 z "},"đ":{"ha":788,"x_min":47,"x_max":898,"o":"m 803 906 l 898 906 l 876 807 l 782 807 l 659 221 q 643 115 651 186 q 634 0 634 43 l 468 0 q 480 130 468 32 l 477 130 q 376 18 428 54 q 257 -17 324 -17 q 102 52 157 -17 q 47 245 47 121 q 103 483 47 372 q 259 652 160 593 q 483 711 357 711 q 597 699 543 711 l 620 807 l 395 807 l 417 906 l 641 906 l 667 1028 l 829 1028 l 803 906 m 572 576 q 479 589 524 589 q 342 548 401 589 q 248 426 283 507 q 212 256 212 344 q 238 149 212 185 q 316 113 265 113 q 408 149 366 113 q 484 252 451 185 q 533 397 516 318 l 572 576 z "},"¯":{"ha":576,"x_min":103,"x_max":696,"o":"m 103 945 l 119 1025 l 696 1025 l 680 945 l 103 945 z "},"∙":{"ha":338,"x_min":69,"x_max":271,"o":"m 271 433 q 242 365 271 393 q 168 338 214 338 q 98 366 127 338 q 69 433 69 393 q 98 499 69 471 q 170 526 126 526 q 241 499 212 526 q 271 433 271 473 z "},"Ă":{"ha":927,"x_min":-70,"x_max":844,"o":"m 673 0 l 637 244 l 256 244 l 121 0 l -70 0 l 500 972 l 690 972 l 844 0 l 673 0 m 569 779 l 569 803 l 570 827 l 567 827 q 535 752 553 786 l 326 380 l 619 380 l 572 746 q 569 779 569 758 m 842 1253 q 754 1113 815 1162 q 609 1063 692 1063 q 487 1104 535 1063 q 439 1217 439 1146 q 445 1253 439 1237 l 535 1253 l 533 1232 q 557 1174 533 1194 q 618 1154 581 1154 q 747 1253 714 1154 l 842 1253 z "},"ă":{"ha":788,"x_min":47,"x_max":756,"o":"m 634 0 l 468 0 q 472 62 468 17 q 480 132 476 107 l 477 132 q 404 41 435 69 q 337 -2 373 13 q 256 -17 301 -17 q 102 53 157 -17 q 47 246 47 123 q 106 486 47 372 q 265 656 165 600 q 496 711 364 711 q 756 679 606 711 l 661 226 q 642 107 650 178 q 634 0 634 37 m 572 578 q 479 589 530 589 q 342 548 401 589 q 248 426 283 508 q 212 254 212 344 q 238 150 212 186 q 314 113 264 113 q 446 189 387 113 q 532 392 505 266 l 572 578 m 746 1006 q 657 865 719 915 q 513 815 596 815 q 391 857 439 815 q 343 969 343 899 q 349 1006 343 989 l 439 1006 l 437 985 q 461 926 437 947 q 522 906 485 906 q 651 1006 618 906 l 746 1006 z "},"Ą":{"ha":927,"x_min":-70,"x_max":844,"o":"m 673 0 l 637 244 l 256 244 l 121 0 l -70 0 l 500 972 l 690 972 l 844 0 l 673 0 m 569 779 l 569 803 l 570 827 l 567 827 q 535 752 553 786 l 326 380 l 619 380 l 572 746 q 569 779 569 758 m 759 0 q 668 -95 694 -60 q 642 -159 642 -130 q 695 -210 642 -210 q 758 -193 722 -210 l 743 -276 q 661 -293 714 -293 q 569 -263 598 -293 q 540 -183 540 -233 q 570 -99 540 -143 q 673 0 600 -56 l 759 0 z "},"ą":{"ha":788,"x_min":47,"x_max":756,"o":"m 634 0 l 468 0 q 472 62 468 17 q 480 132 476 107 l 477 132 q 404 41 435 69 q 337 -2 373 13 q 256 -17 301 -17 q 102 53 157 -17 q 47 246 47 123 q 106 486 47 372 q 265 656 165 600 q 496 711 364 711 q 756 679 606 711 l 661 226 q 642 107 650 178 q 634 0 634 37 m 572 578 q 479 589 530 589 q 342 548 401 589 q 248 426 283 508 q 212 254 212 344 q 238 150 212 186 q 314 113 264 113 q 446 189 387 113 q 532 392 505 266 l 572 578 m 589 0 q 499 -95 525 -60 q 473 -159 473 -130 q 526 -210 473 -210 q 589 -193 553 -210 l 574 -276 q 492 -293 545 -293 q 399 -263 429 -293 q 370 -183 370 -233 q 400 -99 370 -143 q 503 0 431 -56 l 589 0 z "},"Ď":{"ha":1017,"x_min":41,"x_max":983,"o":"m 983 579 q 910 273 983 406 q 705 70 837 139 q 392 0 572 0 l 41 0 l 248 972 l 555 972 q 867 867 751 972 q 983 579 983 762 m 808 566 q 732 764 808 696 q 514 831 657 831 l 387 831 l 239 140 l 397 140 q 614 193 520 140 q 758 344 707 246 q 808 566 808 442 m 641 1062 l 510 1062 l 404 1285 l 509 1285 l 587 1143 l 727 1285 l 839 1285 l 641 1062 z "},"ď":{"ha":929,"x_min":47,"x_max":1116,"o":"m 634 0 l 468 0 q 480 130 468 32 l 477 130 q 376 18 428 54 q 257 -17 324 -17 q 102 52 157 -17 q 47 245 47 121 q 103 483 47 372 q 259 652 160 593 q 483 711 357 711 q 597 699 543 711 l 667 1028 l 829 1028 l 659 221 q 643 115 651 186 q 634 0 634 43 m 572 576 q 479 589 524 589 q 342 548 401 589 q 248 426 283 507 q 212 256 212 344 q 238 149 212 185 q 316 113 265 113 q 446 189 387 113 q 533 397 504 266 l 572 576 m 1116 1028 l 958 821 l 851 821 l 965 1028 l 1116 1028 z "},"Đ":{"ha":1017,"x_min":18,"x_max":983,"o":"m 983 574 q 910 269 983 401 q 704 68 837 137 q 390 0 572 0 l 41 0 l 132 420 l 18 420 l 46 561 l 161 561 l 248 972 l 551 972 q 781 924 682 972 q 931 784 880 875 q 983 574 983 692 m 808 561 q 731 762 808 693 q 514 831 654 831 l 387 831 l 328 561 l 537 561 l 508 420 l 299 420 l 239 140 l 388 140 q 697 253 587 140 q 808 561 808 365 z "},"Ę":{"ha":714,"x_min":41,"x_max":774,"o":"m 744 831 l 387 831 l 328 556 l 661 556 l 630 415 l 298 415 l 239 140 l 620 140 l 591 0 l 41 0 l 248 972 l 774 972 l 744 831 m 505 0 q 415 -95 441 -60 q 389 -159 389 -130 q 441 -210 389 -210 q 505 -193 469 -210 l 490 -276 q 408 -293 460 -293 q 315 -263 345 -293 q 286 -183 286 -233 q 316 -99 286 -143 q 419 0 347 -56 l 505 0 z "},"ę":{"ha":699,"x_min":47,"x_max":681,"o":"m 681 524 q 564 339 681 398 q 210 277 448 279 l 209 269 l 209 256 q 251 146 209 185 q 368 107 293 107 q 478 126 420 107 q 586 174 537 144 l 559 39 q 333 -17 456 -17 q 122 58 198 -17 q 47 271 47 134 q 98 491 47 389 q 242 653 150 594 q 444 711 334 711 q 617 660 553 711 q 681 524 681 608 m 522 519 q 497 573 522 553 q 429 593 473 593 q 299 534 357 593 q 222 389 241 475 q 522 519 522 389 m 405 0 q 314 -95 340 -60 q 288 -159 288 -130 q 341 -210 288 -210 q 404 -193 368 -210 l 389 -276 q 307 -293 360 -293 q 215 -263 244 -293 q 186 -183 186 -233 q 216 -99 186 -143 q 319 0 246 -56 l 405 0 z "},"Ě":{"ha":714,"x_min":41,"x_max":787,"o":"m 744 831 l 387 831 l 328 556 l 661 556 l 630 415 l 298 415 l 239 140 l 620 140 l 591 0 l 41 0 l 248 972 l 774 972 l 744 831 m 589 1062 l 458 1062 l 352 1285 l 456 1285 l 535 1143 l 675 1285 l 787 1285 l 589 1062 z "},"ě":{"ha":699,"x_min":47,"x_max":714,"o":"m 681 524 q 564 339 681 398 q 210 277 448 279 l 209 269 l 209 256 q 251 146 209 185 q 368 107 293 107 q 478 126 420 107 q 586 174 537 144 l 559 39 q 333 -17 456 -17 q 122 58 198 -17 q 47 271 47 134 q 98 491 47 389 q 242 653 150 594 q 444 711 334 711 q 617 660 553 711 q 681 524 681 608 m 522 519 q 497 573 522 553 q 429 593 473 593 q 299 534 357 593 q 222 389 241 475 q 522 519 522 389 m 516 815 l 385 815 l 279 1038 l 384 1038 l 463 896 l 602 1038 l 714 1038 l 516 815 z "},"Ĺ":{"ha":677,"x_min":41,"x_max":799,"o":"m 584 0 l 41 0 l 248 972 l 417 972 l 241 143 l 614 143 l 584 0 m 563 1062 l 441 1062 l 646 1283 l 799 1283 l 563 1062 z "},"ĺ":{"ha":400,"x_min":59,"x_max":587,"o":"m 213 -12 q 98 26 138 -12 q 59 132 59 63 q 85 295 59 177 q 241 1028 111 414 l 406 1028 l 241 257 q 227 170 227 189 q 286 118 227 118 q 348 129 321 118 l 322 4 q 213 -12 270 -12 m 351 1119 l 230 1119 l 435 1340 l 587 1340 l 351 1119 z "},"Ľ":{"ha":677,"x_min":41,"x_max":785,"o":"m 584 0 l 41 0 l 248 972 l 417 972 l 241 143 l 614 143 l 584 0 m 785 972 l 628 765 l 521 765 l 635 972 l 785 972 z "},"ľ":{"ha":505,"x_min":59,"x_max":694,"o":"m 213 -12 q 98 26 138 -12 q 59 132 59 63 q 85 295 59 177 q 241 1028 111 414 l 406 1028 l 241 257 q 227 170 227 189 q 286 118 227 118 q 348 129 321 118 l 322 4 q 213 -12 270 -12 m 694 1028 l 537 821 l 430 821 l 544 1028 l 694 1028 z "},"Ŀ":{"ha":677,"x_min":41,"x_max":652,"o":"m 584 0 l 41 0 l 248 972 l 417 972 l 241 143 l 614 143 l 584 0 m 652 523 q 628 465 652 488 q 567 441 604 441 q 507 465 531 441 q 482 523 482 488 q 507 579 482 557 q 567 600 531 600 q 628 579 604 600 q 652 523 652 557 z "},"ŀ":{"ha":519,"x_min":59,"x_max":554,"o":"m 213 -12 q 98 26 138 -12 q 59 132 59 63 q 85 295 59 177 q 241 1028 111 414 l 406 1028 l 241 257 q 227 170 227 189 q 286 118 227 118 q 348 129 321 118 l 322 4 q 213 -12 270 -12 m 554 503 q 530 445 554 468 q 469 421 507 421 q 409 445 433 421 q 385 503 385 468 q 409 558 385 537 q 469 580 433 580 q 530 558 506 580 q 554 503 554 537 z "},"Ń":{"ha":1076,"x_min":41,"x_max":1088,"o":"m 882 0 l 720 0 l 388 699 q 374 732 384 707 q 362 768 364 758 l 358 768 l 352 722 l 344 673 l 201 0 l 41 0 l 247 972 l 424 972 l 749 277 q 771 220 764 243 l 774 220 q 787 311 777 267 l 928 972 l 1088 972 l 882 0 m 679 1062 l 557 1062 l 762 1283 l 915 1283 l 679 1062 z "},"ń":{"ha":806,"x_min":24,"x_max":776,"o":"m 745 525 q 724 391 745 490 l 641 0 l 477 0 l 561 401 q 574 490 574 474 q 553 556 574 531 q 492 582 532 582 q 400 548 449 582 q 313 456 351 513 q 262 341 275 398 l 190 0 l 24 0 l 130 486 q 165 694 154 602 l 326 694 q 304 545 320 637 l 307 545 q 431 668 361 625 q 569 711 500 711 q 699 663 653 711 q 745 525 745 615 m 540 815 l 418 815 l 623 1036 l 776 1036 l 540 815 z "},"Ň":{"ha":1076,"x_min":41,"x_max":1088,"o":"m 882 0 l 720 0 l 388 699 q 374 732 384 707 q 362 768 364 758 l 358 768 l 352 722 l 344 673 l 201 0 l 41 0 l 247 972 l 424 972 l 749 277 q 771 220 764 243 l 774 220 q 787 311 777 267 l 928 972 l 1088 972 l 882 0 m 732 1062 l 601 1062 l 495 1285 l 600 1285 l 678 1143 l 818 1285 l 930 1285 l 732 1062 z "},"ň":{"ha":806,"x_min":24,"x_max":761,"o":"m 745 525 q 724 391 745 490 l 641 0 l 477 0 l 561 401 q 574 490 574 474 q 553 556 574 531 q 492 582 532 582 q 400 548 449 582 q 313 456 351 513 q 262 341 275 398 l 190 0 l 24 0 l 130 486 q 165 694 154 602 l 326 694 q 304 545 320 637 l 307 545 q 431 668 361 625 q 569 711 500 711 q 699 663 653 711 q 745 525 745 615 m 563 815 l 432 815 l 326 1038 l 431 1038 l 509 896 l 649 1038 l 761 1038 l 563 815 z "},"Ő":{"ha":1050,"x_min":84,"x_max":1017,"o":"m 1017 574 q 950 280 1017 417 q 765 63 883 142 q 485 -17 647 -17 q 275 35 366 -17 q 134 183 184 87 q 84 399 84 279 q 124 635 84 527 q 240 826 164 744 q 411 949 317 909 q 618 989 506 989 q 826 938 735 989 q 967 792 918 886 q 1017 574 1017 697 m 840 568 q 775 768 840 694 q 600 842 711 842 q 428 784 508 842 q 304 621 349 726 q 260 400 260 515 q 323 202 260 276 q 498 129 387 129 q 673 186 595 129 q 795 349 751 243 q 840 568 840 456 m 751 1063 l 644 1063 l 809 1283 l 944 1283 l 751 1063 m 535 1063 l 427 1063 l 593 1283 l 725 1283 l 535 1063 z "},"ő":{"ha":771,"x_min":47,"x_max":794,"o":"m 724 428 q 673 198 724 302 q 533 38 623 94 q 328 -17 444 -17 q 122 58 197 -17 q 47 267 47 134 q 97 496 47 393 q 237 655 148 599 q 443 711 326 711 q 648 636 572 711 q 724 428 724 560 m 558 424 q 525 539 558 496 q 431 582 491 582 q 319 539 370 582 q 240 425 269 497 q 212 269 212 352 q 246 154 212 196 q 339 113 280 113 q 453 155 402 113 q 531 270 503 197 q 558 424 558 342 m 602 815 l 494 815 l 659 1036 l 794 1036 l 602 815 m 385 815 l 277 815 l 444 1036 l 575 1036 l 385 815 z "},"Ŕ":{"ha":848,"x_min":41,"x_max":839,"o":"m 839 728 q 760 532 839 609 q 551 440 680 454 l 551 437 q 656 296 627 412 l 731 0 l 551 0 l 489 270 q 443 362 475 332 q 355 393 410 393 l 294 393 l 210 0 l 41 0 l 248 972 l 548 972 q 762 908 685 972 q 839 728 839 844 m 663 704 q 625 802 663 765 q 509 839 587 839 l 389 839 l 322 527 l 434 527 q 602 575 541 527 q 663 704 663 623 m 560 1062 l 439 1062 l 644 1283 l 796 1283 l 560 1062 z "},"ŕ":{"ha":524,"x_min":22,"x_max":637,"o":"m 541 536 q 461 558 500 558 q 333 487 391 558 q 250 297 275 416 l 186 0 l 22 0 l 119 452 q 159 694 153 621 l 321 694 q 302 548 314 629 l 304 548 q 394 668 347 625 q 505 711 441 711 q 573 701 530 711 l 541 536 m 401 815 l 280 815 l 485 1036 l 637 1036 l 401 815 z "},"Ř":{"ha":848,"x_min":41,"x_max":839,"o":"m 839 728 q 760 532 839 609 q 551 440 680 454 l 551 437 q 656 296 627 412 l 731 0 l 551 0 l 489 270 q 443 362 475 332 q 355 393 410 393 l 294 393 l 210 0 l 41 0 l 248 972 l 548 972 q 762 908 685 972 q 839 728 839 844 m 663 704 q 625 802 663 765 q 509 839 587 839 l 389 839 l 322 527 l 434 527 q 602 575 541 527 q 663 704 663 623 m 595 1062 l 465 1062 l 359 1285 l 463 1285 l 542 1143 l 682 1285 l 793 1285 l 595 1062 z "},"ř":{"ha":524,"x_min":22,"x_max":646,"o":"m 541 536 q 461 558 500 558 q 333 487 391 558 q 250 297 275 416 l 186 0 l 22 0 l 119 452 q 159 694 153 621 l 321 694 q 302 548 314 629 l 304 548 q 394 668 347 625 q 505 711 441 711 q 573 701 530 711 l 541 536 m 448 815 l 317 815 l 212 1038 l 316 1038 l 395 896 l 534 1038 l 646 1038 l 448 815 z "},"Ś":{"ha":718,"x_min":22,"x_max":762,"o":"m 698 787 q 595 833 655 816 q 481 851 535 851 q 393 833 429 851 q 337 786 356 815 q 317 721 317 756 q 346 634 317 672 q 455 542 374 595 q 600 410 559 472 q 640 271 640 348 q 597 118 640 186 q 476 17 554 50 q 292 -17 398 -17 q 149 1 222 -17 q 22 48 76 19 l 51 203 q 168 143 102 165 q 296 121 234 121 q 421 156 377 121 q 465 254 465 191 q 434 340 465 303 q 316 431 403 376 q 182 555 224 490 q 140 700 140 621 q 182 848 140 782 q 302 952 224 915 q 485 989 379 989 q 728 940 604 989 l 698 787 m 526 1062 l 404 1062 l 609 1283 l 762 1283 l 526 1062 z "},"ś":{"ha":579,"x_min":7,"x_max":659,"o":"m 523 547 q 452 577 493 564 q 370 590 411 590 q 285 566 313 590 q 257 504 257 542 q 280 448 257 470 q 347 401 303 425 q 467 307 435 352 q 499 202 499 262 q 465 87 499 136 q 365 11 431 39 q 204 -17 299 -17 q 95 -5 153 -17 q 7 22 37 6 l 34 157 q 122 119 71 134 q 221 103 174 103 q 310 125 281 103 q 339 187 339 148 q 319 240 339 218 q 241 294 299 262 q 130 381 165 335 q 95 490 95 427 q 128 604 95 553 q 223 683 161 654 q 370 711 285 711 q 470 702 421 711 q 551 680 518 693 l 523 547 m 422 815 l 301 815 l 506 1036 l 659 1036 l 422 815 z "},"Ţ":{"ha":772,"x_min":121,"x_max":876,"o":"m 845 831 l 570 831 l 394 0 l 226 0 l 401 831 l 121 831 l 152 972 l 876 972 l 845 831 m 445 -159 q 388 -264 445 -225 q 231 -302 330 -302 q 163 -298 210 -302 l 180 -222 q 231 -227 204 -227 q 310 -211 283 -227 q 336 -169 336 -195 q 258 -121 336 -121 l 224 -123 l 252 0 l 336 0 l 322 -63 q 412 -90 379 -64 q 445 -159 445 -115 z "},"ţ":{"ha":485,"x_min":54,"x_max":526,"o":"m 497 568 l 328 568 l 262 254 q 250 175 250 195 q 264 130 250 144 q 311 116 278 116 q 406 140 342 116 l 378 12 q 244 -14 311 -14 q 83 142 83 -14 q 98 245 83 182 l 165 568 l 54 568 l 84 694 l 192 694 l 228 861 l 400 906 l 356 694 l 526 694 l 497 568 m 357 -159 q 299 -264 357 -225 q 142 -302 242 -302 q 75 -298 122 -302 l 92 -222 q 143 -227 116 -227 q 222 -211 195 -227 q 248 -169 248 -195 q 170 -121 248 -121 l 136 -123 l 163 0 l 248 0 l 234 -63 q 324 -90 291 -64 q 357 -159 357 -115 z "},"Ť":{"ha":772,"x_min":121,"x_max":876,"o":"m 845 831 l 570 831 l 394 0 l 226 0 l 401 831 l 121 831 l 152 972 l 876 972 l 845 831 m 586 1062 l 455 1062 l 349 1285 l 454 1285 l 532 1143 l 672 1285 l 784 1285 l 586 1062 z "},"ť":{"ha":603,"x_min":54,"x_max":743,"o":"m 497 568 l 328 568 l 262 254 q 250 175 250 195 q 264 130 250 144 q 311 116 278 116 q 406 140 342 116 l 378 12 q 244 -14 311 -14 q 83 142 83 -14 q 98 245 83 182 l 165 568 l 54 568 l 84 694 l 192 694 l 228 861 l 400 906 l 356 694 l 526 694 l 497 568 m 743 981 l 585 773 l 478 773 l 592 981 l 743 981 z "},"Ů":{"ha":981,"x_min":108,"x_max":1004,"o":"m 441 -17 q 198 70 288 -17 q 108 301 108 156 q 124 447 108 372 l 237 972 l 406 972 l 293 450 q 275 317 275 358 q 325 179 275 229 q 460 129 375 129 q 621 190 562 129 q 708 385 680 252 l 835 972 l 1004 972 l 878 389 q 792 151 846 237 q 652 24 738 66 q 441 -17 567 -17 m 792 1195 q 748 1093 792 1133 q 640 1053 703 1053 q 533 1090 576 1053 q 491 1190 491 1128 q 534 1293 491 1254 q 643 1333 578 1333 q 751 1295 709 1333 q 792 1195 792 1257 m 713 1194 q 693 1243 713 1224 q 640 1263 672 1263 q 589 1242 609 1263 q 569 1194 569 1222 q 588 1142 569 1161 q 640 1122 607 1122 q 692 1142 671 1122 q 713 1194 713 1162 z "},"ů":{"ha":803,"x_min":56,"x_max":774,"o":"m 638 0 l 475 0 l 496 147 l 494 147 q 371 26 439 70 q 233 -17 303 -17 q 101 32 146 -17 q 56 170 56 81 q 77 303 56 203 l 159 694 l 323 694 l 239 295 q 224 204 224 219 q 245 140 224 163 q 306 116 265 116 q 402 151 353 116 q 489 244 451 185 q 539 361 527 302 l 610 694 l 774 694 l 675 228 q 638 0 648 102 m 650 933 q 605 831 650 871 q 497 791 561 791 q 391 829 433 791 q 349 928 349 867 q 392 1031 349 992 q 500 1071 435 1071 q 608 1033 567 1071 q 650 933 650 995 m 571 932 q 550 982 571 962 q 497 1001 530 1001 q 447 981 467 1001 q 427 932 427 960 q 446 880 427 899 q 497 861 465 861 q 550 881 529 861 q 571 932 571 901 z "},"Ű":{"ha":981,"x_min":108,"x_max":1004,"o":"m 441 -17 q 198 70 288 -17 q 108 301 108 156 q 124 447 108 372 l 237 972 l 406 972 l 293 450 q 275 317 275 358 q 325 179 275 229 q 460 129 375 129 q 621 190 562 129 q 708 385 680 252 l 835 972 l 1004 972 l 878 389 q 792 151 846 237 q 652 24 738 66 q 441 -17 567 -17 m 755 1062 l 648 1062 l 812 1282 l 947 1282 l 755 1062 m 538 1062 l 431 1062 l 597 1282 l 728 1282 l 538 1062 z "},"ű":{"ha":803,"x_min":56,"x_max":813,"o":"m 638 0 l 475 0 l 496 147 l 494 147 q 371 26 439 70 q 233 -17 303 -17 q 101 32 146 -17 q 56 170 56 81 q 77 303 56 203 l 159 694 l 323 694 l 239 295 q 224 204 224 219 q 245 140 224 163 q 306 116 265 116 q 402 151 353 116 q 489 244 451 185 q 539 361 527 302 l 610 694 l 774 694 l 675 228 q 638 0 648 102 m 621 815 l 513 815 l 678 1036 l 813 1036 l 621 815 m 404 815 l 296 815 l 463 1036 l 594 1036 l 404 815 z "},"Ź":{"ha":817,"x_min":-50,"x_max":918,"o":"m 226 140 l 734 140 l 705 0 l -50 0 l -34 80 l 643 831 l 167 831 l 197 972 l 918 972 l 901 897 l 226 140 m 576 1063 l 454 1063 l 659 1284 l 812 1284 l 576 1063 z "},"ź":{"ha":651,"x_min":-55,"x_max":696,"o":"m 214 126 l 573 126 l 546 0 l -55 0 l -42 63 l 437 568 l 102 568 l 130 694 l 696 694 l 680 623 l 214 126 m 454 815 l 332 815 l 537 1036 l 690 1036 l 454 815 z "},"Ż":{"ha":817,"x_min":-50,"x_max":918,"o":"m 226 140 l 734 140 l 705 0 l -50 0 l -34 80 l 643 831 l 167 831 l 197 972 l 918 972 l 901 897 l 226 140 m 650 1143 q 626 1085 650 1109 q 565 1062 602 1062 q 505 1085 529 1062 q 480 1143 480 1109 q 505 1199 480 1178 q 565 1221 529 1221 q 626 1199 602 1221 q 650 1143 650 1178 z "},"ż":{"ha":651,"x_min":-55,"x_max":696,"o":"m 214 126 l 573 126 l 546 0 l -55 0 l -42 63 l 437 568 l 102 568 l 130 694 l 696 694 l 680 623 l 214 126 m 514 897 q 490 839 514 862 q 429 815 467 815 q 369 839 393 815 q 345 897 345 862 q 369 952 345 931 q 429 974 393 974 q 490 952 466 974 q 514 897 514 931 z "},"Γ":{"ha":696,"x_min":41,"x_max":790,"o":"m 760 829 l 385 829 l 209 0 l 41 0 l 248 972 l 790 972 l 760 829 z "},"Θ":{"ha":1050,"x_min":84,"x_max":1017,"o":"m 1017 574 q 950 280 1017 417 q 765 63 883 142 q 485 -17 647 -17 q 275 35 366 -17 q 134 183 184 87 q 84 399 84 279 q 124 635 84 527 q 240 826 164 744 q 411 949 317 909 q 618 989 506 989 q 826 938 735 989 q 967 792 918 886 q 1017 574 1017 697 m 840 568 q 775 768 840 694 q 600 842 711 842 q 428 784 508 842 q 304 621 349 726 q 260 400 260 515 q 323 202 260 276 q 498 129 387 129 q 673 186 595 129 q 795 349 751 243 q 840 568 840 456 m 700 418 l 370 418 l 398 552 l 728 552 l 700 418 z "},"Φ":{"ha":1097,"x_min":51,"x_max":1086,"o":"m 1086 554 q 1028 331 1086 431 q 873 178 971 231 q 648 126 774 126 l 570 126 l 541 -14 l 380 -14 l 410 126 l 370 126 q 137 211 224 126 q 51 444 51 296 q 109 672 51 570 q 266 826 167 774 q 493 879 365 879 l 572 879 l 594 985 l 751 985 l 729 879 l 768 879 q 1001 792 916 879 q 1086 554 1086 705 m 919 550 q 869 697 919 644 q 732 750 820 750 l 702 750 l 597 254 l 644 254 q 788 292 726 254 q 885 399 851 330 q 919 550 919 467 m 494 750 q 350 712 412 750 q 254 607 288 675 q 219 454 219 538 q 268 307 219 361 q 406 254 317 254 l 436 254 l 541 750 l 494 750 z "},"α":{"ha":886,"x_min":47,"x_max":902,"o":"m 554 350 q 519 531 547 477 q 444 585 492 585 q 333 539 385 585 q 247 414 281 494 q 214 248 214 334 q 239 152 214 189 q 310 115 264 115 q 526 296 427 115 l 554 350 m 566 191 q 434 36 505 88 q 271 -17 363 -17 q 106 52 166 -17 q 47 242 47 121 q 100 475 47 366 q 245 648 153 584 q 441 711 337 711 q 570 666 520 711 q 642 524 620 621 l 645 524 q 732 694 691 609 l 902 694 l 692 342 q 718 176 699 223 q 772 129 736 129 q 819 138 802 129 l 786 3 q 715 -8 751 -8 q 608 41 644 -8 q 568 191 573 90 l 566 191 z "},"δ":{"ha":833,"x_min":45,"x_max":845,"o":"m 815 845 q 703 893 768 874 q 585 911 637 911 q 476 888 515 911 q 438 823 438 865 q 452 773 438 797 q 491 726 466 750 q 598 644 517 702 q 733 502 693 574 q 774 338 774 429 q 669 76 774 170 q 374 -18 564 -18 q 134 62 222 -18 q 45 277 45 142 q 129 496 45 407 q 378 631 213 586 q 271 825 271 720 q 354 985 271 930 q 596 1041 437 1041 q 729 1028 661 1041 q 845 994 798 1015 l 815 845 m 469 551 q 212 282 212 484 q 256 157 212 203 q 382 112 301 112 q 548 170 488 112 q 608 328 608 228 q 576 443 608 389 q 469 551 543 498 z "},"ε":{"ha":646,"x_min":18,"x_max":637,"o":"m 298 -17 q 91 35 163 -17 q 18 174 18 87 q 72 298 18 249 q 228 362 126 347 l 229 365 q 145 417 179 379 q 112 508 112 455 q 194 658 112 605 q 429 711 277 711 q 546 702 488 711 q 637 675 604 692 l 612 549 q 522 581 574 568 q 432 593 471 593 q 321 568 362 593 q 281 494 281 543 q 318 432 281 454 q 425 410 356 410 q 518 414 477 410 l 496 298 q 399 302 470 302 q 189 191 189 302 q 334 102 189 102 q 564 156 441 102 l 535 22 q 298 -17 424 -17 z "},"σ":{"ha":827,"x_min":47,"x_max":888,"o":"m 862 572 l 705 572 q 733 412 733 500 q 628 98 733 214 q 342 -17 522 -17 q 126 59 205 -17 q 47 269 47 134 q 165 581 47 468 q 492 694 283 694 l 888 694 l 862 572 m 568 425 q 551 571 568 521 l 487 571 q 286 489 359 571 q 212 270 212 408 q 252 154 212 197 q 357 112 292 112 q 512 196 456 112 q 568 425 568 279 z "},"τ":{"ha":723,"x_min":41,"x_max":767,"o":"m 387 -12 q 271 27 311 -12 q 230 135 230 65 q 236 206 230 178 l 311 568 l 233 568 q 138 553 190 568 q 41 513 86 538 l 71 652 q 160 683 106 671 q 274 694 214 694 l 767 694 l 740 568 l 473 568 l 404 235 q 394 168 394 193 q 453 118 394 118 q 515 129 488 118 l 488 4 q 387 -12 437 -12 z "},"φ":{"ha":1047,"x_min":47,"x_max":1000,"o":"m 1000 435 q 946 200 1000 301 q 788 41 893 98 q 549 -17 683 -17 l 522 -17 l 457 -324 l 301 -324 l 366 -17 l 348 -17 q 128 59 209 -17 q 47 266 47 135 q 100 496 47 384 q 248 694 153 609 l 425 694 q 268 498 328 610 q 209 277 209 385 q 253 154 209 198 q 380 109 298 109 l 393 109 l 469 467 q 563 654 496 596 q 743 711 629 711 q 929 635 859 711 q 1000 435 1000 558 m 839 431 q 810 545 839 505 q 733 585 782 585 q 665 560 691 585 q 627 477 640 535 l 549 109 l 566 109 q 705 148 642 109 q 803 259 768 186 q 839 431 839 332 z "},"‗":{"ha":576,"x_min":0,"x_max":576,"o":"m 0 -188 l 0 -107 l 576 -107 l 576 -188 l 0 -188 m 0 -349 l 0 -268 l 576 -268 l 576 -349 l 0 -349 z "},"‼":{"ha":768,"x_min":77,"x_max":752,"o":"m 281 288 l 149 288 l 275 972 l 446 972 l 281 288 m 277 82 q 249 14 277 42 q 176 -14 220 -14 q 106 12 134 -14 q 77 76 77 38 q 107 145 77 117 q 180 173 136 173 q 249 147 220 173 q 277 82 277 121 m 588 288 l 455 288 l 581 972 l 752 972 l 588 288 m 584 82 q 555 14 584 42 q 482 -14 526 -14 q 412 12 441 -14 q 384 76 384 38 q 413 145 384 117 q 487 173 443 173 q 555 147 527 173 q 584 82 584 121 z "},"ⁿ":{"ha":572,"x_min":90,"x_max":593,"o":"m 205 486 l 90 486 l 194 973 l 309 973 l 288 875 l 290 875 q 372 956 324 925 q 472 986 420 986 q 562 952 530 986 q 593 857 593 918 q 583 770 593 815 l 523 486 l 408 486 l 470 779 q 477 834 477 811 q 462 876 477 860 q 416 892 447 892 q 350 871 382 892 q 292 814 317 850 q 260 745 267 779 l 205 486 z "},"₧":{"ha":1664,"x_min":43,"x_max":1629,"o":"m 946 -14 q 788 140 788 -14 q 799 227 788 180 l 849 464 l 743 464 l 759 539 q 616 400 713 448 q 380 351 519 351 l 281 351 l 208 0 l 43 0 l 248 972 l 487 972 q 715 901 633 972 q 796 702 796 829 q 779 585 796 635 l 875 585 l 906 733 l 1075 781 l 1034 585 l 1190 585 l 1163 464 l 1008 464 l 962 251 q 952 176 952 198 q 1006 115 952 115 q 1105 139 1044 115 l 1078 9 q 946 -14 1020 -14 m 1588 181 q 1518 37 1588 89 q 1316 -16 1448 -16 q 1206 -5 1263 -16 q 1116 21 1150 5 l 1141 151 q 1221 119 1170 134 q 1322 104 1272 104 q 1410 121 1377 104 q 1443 170 1443 139 q 1424 209 1443 192 q 1331 256 1404 225 q 1231 323 1262 286 q 1200 413 1200 360 q 1271 546 1200 497 q 1459 595 1341 595 q 1549 586 1501 595 q 1629 564 1597 578 l 1603 441 q 1533 466 1577 456 q 1452 476 1489 476 q 1347 418 1347 476 q 1373 379 1347 395 q 1451 342 1398 363 q 1557 274 1527 311 q 1588 181 1588 237 m 382 486 q 561 541 500 486 q 621 700 621 596 q 575 802 621 766 q 451 838 530 838 l 385 838 l 310 486 l 382 486 z "},"Ĳ":{"ha":959,"x_min":41,"x_max":979,"o":"m 210 0 l 41 0 l 247 972 l 416 972 l 210 0 m 475 -17 q 405 -8 446 -17 q 346 9 363 0 l 375 165 q 422 140 391 151 q 481 128 452 128 q 607 185 559 128 q 682 367 655 241 l 811 972 l 979 972 l 850 366 q 715 76 808 170 q 475 -17 623 -17 z "},"ĳ":{"ha":750,"x_min":60,"x_max":798,"o":"m 397 930 q 368 862 397 889 q 297 836 339 836 q 228 860 256 836 q 200 924 200 884 q 230 991 200 966 q 302 1017 260 1017 q 369 992 341 1017 q 397 930 397 968 m 213 -12 q 99 26 138 -12 q 60 134 60 64 q 68 203 60 169 l 169 694 l 334 694 l 241 257 q 227 170 227 189 q 286 118 227 118 q 348 129 321 118 l 322 4 q 213 -12 264 -12 m 798 930 q 769 862 798 889 q 698 836 740 836 q 629 860 657 836 q 601 924 601 884 q 631 991 601 966 q 703 1017 661 1017 q 770 992 742 1017 q 798 930 798 968 m 276 -326 q 152 -305 195 -326 l 179 -171 q 219 -190 195 -182 q 260 -197 243 -197 q 361 -147 320 -197 q 425 12 402 -96 l 570 694 l 734 694 l 589 9 q 474 -245 551 -165 q 276 -326 397 -326 z "},"ŉ":{"ha":918,"x_min":66,"x_max":857,"o":"m 857 525 q 836 391 857 490 l 753 0 l 589 0 l 673 401 q 686 490 686 474 q 665 556 686 531 q 604 582 644 582 q 512 548 561 582 q 425 456 463 513 q 374 341 387 398 l 302 0 l 136 0 l 241 486 q 277 694 266 602 l 437 694 q 416 545 432 637 l 419 545 q 543 668 473 625 q 681 711 612 711 q 811 663 765 711 q 857 525 857 615 m 171 676 l 66 676 l 179 979 l 314 979 l 171 676 z "},"′":{"ha":362,"x_min":187,"x_max":372,"o":"m 372 979 l 294 677 l 187 677 l 238 979 l 372 979 z "},"″":{"ha":597,"x_min":192,"x_max":608,"o":"m 608 979 l 530 676 l 422 676 l 473 979 l 608 979 m 378 979 l 300 677 l 192 677 l 243 979 l 378 979 z "},"℅":{"ha":1116,"x_min":75,"x_max":1066,"o":"m 1066 288 q 1032 137 1066 208 q 938 27 998 67 q 800 -14 877 -14 q 648 42 704 -14 q 593 191 593 98 q 628 338 593 269 q 725 449 663 408 q 864 490 787 490 q 1013 435 959 490 q 1066 288 1066 381 m 208 0 l 75 0 l 907 972 l 1041 972 l 208 0 m 948 284 q 860 393 948 393 q 754 333 798 393 q 711 191 711 273 q 804 83 711 83 q 907 142 866 83 q 948 284 948 202 m 505 954 l 484 848 q 371 889 431 889 q 260 832 305 889 q 215 692 215 774 q 239 609 215 640 q 309 579 264 579 q 444 627 366 579 l 421 516 q 291 482 355 482 q 148 536 201 482 q 96 686 96 589 q 132 838 96 769 q 233 947 168 907 q 377 986 298 986 q 505 954 455 986 z "},"ℓ":{"ha":449,"x_min":5,"x_max":437,"o":"m 5 296 l 131 452 l 131 754 q 169 953 131 895 q 290 1011 208 1011 q 397 968 357 1011 q 437 858 437 926 q 386 694 437 790 q 218 450 335 599 l 218 174 q 233 86 218 111 q 283 60 247 60 q 418 132 325 60 l 418 43 q 265 -17 344 -17 q 164 26 197 -17 q 131 163 131 70 l 131 338 l 60 252 l 5 296 m 218 571 q 333 752 307 696 q 359 857 359 808 q 292 943 359 943 q 235 904 252 943 q 218 758 218 865 l 218 571 z "},"□":{"ha":839,"x_min":98,"x_max":739,"o":"m 739 640 l 739 0 l 98 0 l 98 640 l 739 640 m 150 52 l 688 52 l 688 589 l 150 589 l 150 52 z "},"▪":{"ha":492,"x_min":89,"x_max":403,"o":"m 403 301 l 89 301 l 89 615 l 403 615 l 403 301 z "},"▫":{"ha":492,"x_min":89,"x_max":403,"o":"m 403 615 l 403 301 l 89 301 l 89 615 l 403 615 m 351 564 l 140 564 l 140 353 l 351 353 l 351 564 z "},"●":{"ha":839,"x_min":121,"x_max":718,"o":"m 419 690 q 570 649 502 690 q 678 538 638 608 q 718 392 718 467 q 678 242 718 312 q 568 133 637 173 q 421 93 499 93 q 270 134 340 93 q 160 243 200 174 q 121 392 121 313 q 161 542 121 473 q 273 650 202 610 q 419 690 343 690 z "},"◦":{"ha":492,"x_min":76,"x_max":416,"o":"m 245 629 q 366 579 315 629 q 416 460 416 530 q 367 339 416 389 q 245 289 317 289 q 125 339 175 289 q 76 460 76 390 q 126 579 76 529 q 245 629 176 629 m 245 578 q 162 543 197 578 q 127 460 127 509 q 162 375 127 410 q 247 340 197 340 q 330 375 296 340 q 365 460 365 410 q 329 543 365 509 q 245 578 294 578 z "},"Ā":{"ha":927,"x_min":-70,"x_max":844,"o":"m 673 0 l 637 244 l 256 244 l 121 0 l -70 0 l 500 972 l 690 972 l 844 0 l 673 0 m 569 779 l 569 803 l 570 827 l 567 827 q 535 752 553 786 l 326 380 l 619 380 l 572 746 q 569 779 569 758 m 790 1062 l 419 1062 l 437 1157 l 808 1157 l 790 1062 z "},"ā":{"ha":788,"x_min":47,"x_max":756,"o":"m 634 0 l 468 0 q 472 62 468 17 q 480 132 476 107 l 477 132 q 404 41 435 69 q 337 -2 373 13 q 256 -17 301 -17 q 102 53 157 -17 q 47 246 47 123 q 106 486 47 372 q 265 656 165 600 q 496 711 364 711 q 756 679 606 711 l 661 226 q 642 107 650 178 q 634 0 634 37 m 572 578 q 479 589 530 589 q 342 548 401 589 q 248 426 283 508 q 212 254 212 344 q 238 150 212 186 q 314 113 264 113 q 446 189 387 113 q 532 392 505 266 l 572 578 m 701 815 l 330 815 l 348 910 l 719 910 l 701 815 z "},"Ĉ":{"ha":884,"x_min":81,"x_max":930,"o":"m 895 774 q 659 842 781 842 q 449 788 541 842 q 307 638 357 734 q 257 422 257 543 q 334 206 257 283 q 543 129 411 129 q 669 144 610 129 q 791 193 728 159 l 755 31 q 503 -17 646 -17 q 280 36 376 -17 q 133 185 184 88 q 81 408 81 281 q 154 711 81 577 q 360 917 227 845 q 668 989 493 989 q 930 936 805 989 l 895 774 m 772 1063 l 694 1206 l 555 1063 l 443 1063 l 642 1286 l 771 1286 l 878 1063 l 772 1063 z "},"ĉ":{"ha":623,"x_min":47,"x_max":675,"o":"m 598 530 q 534 567 572 552 q 450 582 496 582 q 332 544 385 582 q 245 434 279 506 q 211 284 211 363 q 249 156 211 200 q 356 113 286 113 q 445 130 398 113 q 530 171 492 146 l 501 33 q 310 -17 405 -17 q 117 59 186 -17 q 47 268 47 134 q 99 492 47 389 q 244 653 151 595 q 456 711 338 711 q 554 700 505 711 q 630 669 603 688 l 598 530 m 570 815 l 492 958 l 353 815 l 240 815 l 439 1038 l 568 1038 l 675 815 l 570 815 z "},"Ċ":{"ha":884,"x_min":81,"x_max":930,"o":"m 895 774 q 659 842 781 842 q 449 788 541 842 q 307 638 357 734 q 257 422 257 543 q 334 206 257 283 q 543 129 411 129 q 669 144 610 129 q 791 193 728 159 l 755 31 q 503 -17 646 -17 q 280 36 376 -17 q 133 185 184 88 q 81 408 81 281 q 154 711 81 577 q 360 917 227 845 q 668 989 493 989 q 930 936 805 989 l 895 774 m 775 1143 q 751 1085 775 1109 q 690 1062 728 1062 q 630 1085 654 1062 q 606 1143 606 1109 q 630 1199 606 1178 q 690 1221 654 1221 q 751 1199 727 1221 q 775 1143 775 1178 z "},"ċ":{"ha":623,"x_min":47,"x_max":630,"o":"m 598 530 q 534 567 572 552 q 450 582 496 582 q 332 544 385 582 q 245 434 279 506 q 211 284 211 363 q 249 156 211 200 q 356 113 286 113 q 445 130 398 113 q 530 171 492 146 l 501 33 q 310 -17 405 -17 q 117 59 186 -17 q 47 268 47 134 q 99 492 47 389 q 244 653 151 595 q 456 711 338 711 q 554 700 505 711 q 630 669 603 688 l 598 530 m 572 897 q 549 839 572 862 q 488 815 525 815 q 427 839 452 815 q 403 897 403 862 q 427 952 403 931 q 488 974 452 974 q 548 952 524 974 q 572 897 572 931 z "},"Ē":{"ha":714,"x_min":41,"x_max":774,"o":"m 744 831 l 387 831 l 328 556 l 661 556 l 630 415 l 298 415 l 239 140 l 620 140 l 591 0 l 41 0 l 248 972 l 774 972 l 744 831 m 707 1062 l 336 1062 l 355 1157 l 726 1157 l 707 1062 z "},"ē":{"ha":699,"x_min":47,"x_max":681,"o":"m 681 524 q 564 339 681 398 q 210 277 448 279 l 209 269 l 209 256 q 251 146 209 185 q 368 107 293 107 q 478 126 420 107 q 586 174 537 144 l 559 39 q 333 -17 456 -17 q 122 58 198 -17 q 47 271 47 134 q 98 491 47 389 q 242 653 150 594 q 444 711 334 711 q 617 660 553 711 q 681 524 681 608 m 522 519 q 497 573 522 553 q 429 593 473 593 q 299 534 357 593 q 222 389 241 475 q 522 519 522 389 m 635 815 l 264 815 l 282 910 l 653 910 l 635 815 z "},"Ĕ":{"ha":714,"x_min":41,"x_max":774,"o":"m 744 831 l 387 831 l 328 556 l 661 556 l 630 415 l 298 415 l 239 140 l 620 140 l 591 0 l 41 0 l 248 972 l 774 972 l 744 831 m 763 1253 q 674 1113 736 1162 q 530 1063 613 1063 q 408 1104 456 1063 q 360 1217 360 1146 q 366 1253 360 1237 l 456 1253 l 454 1232 q 478 1174 454 1194 q 538 1154 502 1154 q 668 1253 635 1154 l 763 1253 z "},"ĕ":{"ha":699,"x_min":47,"x_max":689,"o":"m 681 524 q 564 339 681 398 q 210 277 448 279 l 209 269 l 209 256 q 251 146 209 185 q 368 107 293 107 q 478 126 420 107 q 586 174 537 144 l 559 39 q 333 -17 456 -17 q 122 58 198 -17 q 47 271 47 134 q 98 491 47 389 q 242 653 150 594 q 444 711 334 711 q 617 660 553 711 q 681 524 681 608 m 522 519 q 497 573 522 553 q 429 593 473 593 q 299 534 357 593 q 222 389 241 475 q 522 519 522 389 m 689 1006 q 601 865 662 915 q 456 815 539 815 q 334 857 382 815 q 286 969 286 899 q 292 1006 286 989 l 382 1006 l 380 985 q 404 926 380 947 q 465 906 428 906 q 594 1006 561 906 l 689 1006 z "},"Ė":{"ha":714,"x_min":41,"x_max":774,"o":"m 744 831 l 387 831 l 328 556 l 661 556 l 630 415 l 298 415 l 239 140 l 620 140 l 591 0 l 41 0 l 248 972 l 774 972 l 744 831 m 625 1143 q 601 1085 625 1109 q 540 1062 577 1062 q 479 1085 504 1062 q 455 1143 455 1109 q 479 1199 455 1178 q 540 1221 504 1221 q 601 1199 576 1221 q 625 1143 625 1178 z "},"ė":{"ha":699,"x_min":47,"x_max":681,"o":"m 681 524 q 564 339 681 398 q 210 277 448 279 l 209 269 l 209 256 q 251 146 209 185 q 368 107 293 107 q 478 126 420 107 q 586 174 537 144 l 559 39 q 333 -17 456 -17 q 122 58 198 -17 q 47 271 47 134 q 98 491 47 389 q 242 653 150 594 q 444 711 334 711 q 617 660 553 711 q 681 524 681 608 m 522 519 q 497 573 522 553 q 429 593 473 593 q 299 534 357 593 q 222 389 241 475 q 522 519 522 389 m 557 897 q 533 839 557 862 q 472 815 509 815 q 412 839 436 815 q 387 897 387 862 q 412 952 387 931 q 472 974 436 974 q 533 952 509 974 q 557 897 557 931 z "},"Ĝ":{"ha":970,"x_min":84,"x_max":955,"o":"m 922 770 q 802 825 872 804 q 656 846 732 846 q 448 793 538 846 q 308 645 357 741 q 259 426 259 549 q 334 205 259 286 q 538 125 409 125 q 675 148 612 125 l 725 388 l 513 388 l 543 526 l 922 526 l 822 56 q 517 -18 682 -18 q 288 36 387 -18 q 137 189 189 90 q 84 414 84 288 q 156 713 84 581 q 360 917 228 845 q 669 989 492 989 q 955 929 814 989 l 922 770 m 772 1063 l 694 1206 l 555 1063 l 443 1063 l 642 1286 l 771 1286 l 878 1063 l 772 1063 z "},"ĝ":{"ha":788,"x_min":-23,"x_max":756,"o":"m 192 -326 q -23 -275 80 -326 l 6 -136 q 204 -199 103 -199 q 371 -142 309 -199 q 459 43 433 -84 l 477 128 l 474 128 q 371 16 423 49 q 256 -17 319 -17 q 103 51 159 -17 q 47 244 47 119 q 103 483 47 373 q 258 652 160 592 q 481 711 357 711 q 756 680 592 711 l 627 66 q 542 -162 595 -81 q 402 -285 488 -243 q 192 -326 317 -326 m 572 578 q 469 589 530 589 q 338 544 398 589 q 245 422 279 499 q 212 256 212 346 q 239 149 212 186 q 313 113 266 113 q 403 145 360 113 q 481 246 446 178 q 532 390 516 315 l 572 578 m 624 815 l 546 958 l 407 815 l 294 815 l 493 1038 l 623 1038 l 729 815 l 624 815 z "},"Ġ":{"ha":970,"x_min":84,"x_max":955,"o":"m 922 770 q 802 825 872 804 q 656 846 732 846 q 448 793 538 846 q 308 645 357 741 q 259 426 259 549 q 334 205 259 286 q 538 125 409 125 q 675 148 612 125 l 725 388 l 513 388 l 543 526 l 922 526 l 822 56 q 517 -18 682 -18 q 288 36 387 -18 q 137 189 189 90 q 84 414 84 288 q 156 713 84 581 q 360 917 228 845 q 669 989 492 989 q 955 929 814 989 l 922 770 m 787 1143 q 764 1085 787 1109 q 703 1062 740 1062 q 642 1085 667 1062 q 618 1143 618 1109 q 642 1199 618 1178 q 703 1221 667 1221 q 763 1199 739 1221 q 787 1143 787 1178 z "},"ġ":{"ha":788,"x_min":-23,"x_max":756,"o":"m 192 -326 q -23 -275 80 -326 l 6 -136 q 204 -199 103 -199 q 371 -142 309 -199 q 459 43 433 -84 l 477 128 l 474 128 q 371 16 423 49 q 256 -17 319 -17 q 103 51 159 -17 q 47 244 47 119 q 103 483 47 373 q 258 652 160 592 q 481 711 357 711 q 756 680 592 711 l 627 66 q 542 -162 595 -81 q 402 -285 488 -243 q 192 -326 317 -326 m 572 578 q 469 589 530 589 q 338 544 398 589 q 245 422 279 499 q 212 256 212 346 q 239 149 212 186 q 313 113 266 113 q 403 145 360 113 q 481 246 446 178 q 532 390 516 315 l 572 578 m 604 897 q 581 839 604 862 q 519 815 557 815 q 459 839 484 815 q 435 897 435 862 q 459 952 435 931 q 519 974 484 974 q 580 952 556 974 q 604 897 604 931 z "},"Ģ":{"ha":970,"x_min":84,"x_max":955,"o":"m 922 770 q 802 825 872 804 q 656 846 732 846 q 448 793 538 846 q 308 645 357 741 q 259 426 259 549 q 334 205 259 286 q 538 125 409 125 q 675 148 612 125 l 725 388 l 513 388 l 543 526 l 922 526 l 822 56 q 517 -18 682 -18 q 288 36 387 -18 q 137 189 189 90 q 84 414 84 288 q 156 713 84 581 q 360 917 228 845 q 669 989 492 989 q 955 929 814 989 l 922 770 m 617 -81 l 460 -288 l 353 -288 l 467 -81 l 617 -81 z "},"ģ":{"ha":788,"x_min":-23,"x_max":756,"o":"m 192 -326 q -23 -275 80 -326 l 6 -136 q 204 -199 103 -199 q 371 -142 309 -199 q 459 43 433 -84 l 477 128 l 474 128 q 371 16 423 49 q 256 -17 319 -17 q 103 51 159 -17 q 47 244 47 119 q 103 483 47 373 q 258 652 160 592 q 481 711 357 711 q 756 680 592 711 l 627 66 q 542 -162 595 -81 q 402 -285 488 -243 q 192 -326 317 -326 m 572 578 q 469 589 530 589 q 338 544 398 589 q 245 422 279 499 q 212 256 212 346 q 239 149 212 186 q 313 113 266 113 q 403 145 360 113 q 481 246 446 178 q 532 390 516 315 l 572 578 m 403 815 l 560 1023 l 667 1023 l 553 815 l 403 815 z "},"Ĥ":{"ha":1022,"x_min":41,"x_max":1034,"o":"m 827 0 l 659 0 l 747 416 l 298 416 l 211 0 l 41 0 l 248 972 l 417 972 l 330 565 l 779 565 l 866 972 l 1034 972 l 827 0 m 757 1062 l 679 1205 l 540 1062 l 427 1062 l 626 1285 l 755 1285 l 862 1062 l 757 1062 z "},"ĥ":{"ha":802,"x_min":22,"x_max":760,"o":"m 741 524 q 721 391 741 488 l 638 0 l 474 0 l 558 401 q 572 490 572 474 q 489 582 572 582 q 396 547 445 582 q 309 455 347 512 q 259 339 271 398 l 186 0 l 22 0 l 241 1028 l 405 1028 l 302 546 l 304 546 q 429 668 361 625 q 566 711 498 711 q 697 662 653 711 q 741 524 741 613 m 654 1118 l 576 1261 l 437 1118 l 325 1118 l 524 1341 l 653 1341 l 760 1118 l 654 1118 z "},"Ħ":{"ha":1022,"x_min":41,"x_max":1110,"o":"m 827 0 l 659 0 l 747 416 l 298 416 l 211 0 l 41 0 l 189 694 l 79 694 l 105 814 l 214 814 l 248 972 l 417 972 l 383 814 l 831 814 l 866 972 l 1034 972 l 1001 814 l 1110 814 l 1084 694 l 975 694 l 827 0 m 779 565 l 806 694 l 357 694 l 330 565 l 779 565 z "},"ħ":{"ha":802,"x_min":22,"x_max":741,"o":"m 741 524 q 721 391 741 488 l 638 0 l 474 0 l 558 401 q 572 490 572 474 q 489 582 572 582 q 396 547 445 582 q 309 455 347 512 q 259 339 271 398 l 186 0 l 22 0 l 194 807 l 111 807 l 131 906 l 215 906 l 241 1028 l 405 1028 l 378 906 l 602 906 l 582 807 l 358 807 l 302 546 l 304 546 q 429 668 361 625 q 566 711 498 711 q 697 662 653 711 q 741 524 741 613 z "},"Ĩ":{"ha":405,"x_min":41,"x_max":594,"o":"m 210 0 l 41 0 l 247 972 l 416 972 l 210 0 m 594 1238 q 541 1115 586 1161 q 433 1068 496 1068 q 376 1077 399 1068 q 335 1098 353 1086 q 300 1118 317 1109 q 264 1127 284 1127 q 211 1105 229 1127 q 188 1055 192 1084 l 103 1055 q 156 1178 110 1131 q 270 1226 202 1226 q 323 1217 301 1226 q 362 1196 345 1207 q 397 1175 380 1184 q 437 1165 414 1165 q 485 1185 466 1165 q 509 1238 505 1206 l 594 1238 z "},"ĩ":{"ha":400,"x_min":43,"x_max":534,"o":"m 213 -12 q 98 26 138 -12 q 59 132 59 63 q 77 256 59 177 l 169 694 l 334 694 l 241 257 q 227 170 227 189 q 286 118 227 118 q 348 129 321 118 l 322 4 q 213 -12 270 -12 m 534 998 q 480 874 526 921 q 372 828 435 828 q 316 837 338 828 q 275 858 293 846 q 240 878 256 869 q 203 887 224 887 q 150 865 169 887 q 127 815 132 844 l 43 815 q 96 938 50 890 q 210 986 142 986 q 262 977 241 986 q 302 956 284 967 q 336 935 319 944 q 376 925 353 925 q 425 945 406 925 q 449 998 444 966 l 534 998 z "},"Ī":{"ha":405,"x_min":41,"x_max":546,"o":"m 210 0 l 41 0 l 247 972 l 416 972 l 210 0 m 528 1062 l 157 1062 l 175 1157 l 546 1157 l 528 1062 z "},"ī":{"ha":400,"x_min":59,"x_max":477,"o":"m 213 -12 q 98 26 138 -12 q 59 132 59 63 q 77 256 59 177 l 169 694 l 334 694 l 241 257 q 227 170 227 189 q 286 118 227 118 q 348 129 321 118 l 322 4 q 213 -12 270 -12 m 458 815 l 87 815 l 106 910 l 477 910 l 458 815 z "},"Ĭ":{"ha":405,"x_min":41,"x_max":593,"o":"m 210 0 l 41 0 l 247 972 l 416 972 l 210 0 m 593 1253 q 504 1112 566 1162 q 359 1062 443 1062 q 238 1104 286 1062 q 190 1216 190 1145 q 195 1253 190 1236 l 286 1253 l 283 1232 q 308 1173 283 1194 q 368 1153 332 1153 q 498 1253 465 1153 l 593 1253 z "},"ĭ":{"ha":400,"x_min":59,"x_max":512,"o":"m 213 -12 q 98 26 138 -12 q 59 132 59 63 q 77 256 59 177 l 169 694 l 334 694 l 241 257 q 227 170 227 189 q 286 118 227 118 q 348 129 321 118 l 322 4 q 213 -12 270 -12 m 512 1006 q 424 865 485 915 q 279 815 362 815 q 157 857 205 815 q 109 969 109 899 q 115 1006 109 989 l 205 1006 l 203 985 q 227 926 203 947 q 288 906 251 906 q 417 1006 384 906 l 512 1006 z "},"Į":{"ha":405,"x_min":-26,"x_max":416,"o":"m 210 0 l 41 0 l 247 972 l 416 972 l 210 0 m 193 0 q 102 -95 128 -60 q 76 -159 76 -130 q 129 -210 76 -210 q 192 -193 156 -210 l 177 -276 q 95 -293 148 -293 q 3 -263 32 -293 q -26 -183 -26 -233 q 4 -99 -26 -143 q 106 0 34 -56 l 193 0 z "},"į":{"ha":400,"x_min":47,"x_max":397,"o":"m 397 930 q 368 862 397 889 q 297 836 339 836 q 228 860 256 836 q 200 924 200 884 q 230 991 200 966 q 302 1017 260 1017 q 369 992 341 1017 q 397 930 397 968 m 213 -12 q 99 26 138 -12 q 60 134 60 64 q 68 203 60 169 l 169 694 l 334 694 l 241 257 q 227 170 227 189 q 286 118 227 118 q 348 129 321 118 l 322 4 q 213 -12 264 -12 m 266 0 q 175 -95 201 -60 q 149 -159 149 -130 q 202 -210 149 -210 q 265 -193 229 -210 l 250 -276 q 168 -293 221 -293 q 76 -263 105 -293 q 47 -183 47 -233 q 77 -99 47 -143 q 180 0 107 -56 l 266 0 z "},"Ĵ":{"ha":548,"x_min":-65,"x_max":701,"o":"m 64 -17 q -6 -8 35 -17 q -65 9 -47 0 l -36 165 q 11 140 -20 151 q 70 128 41 128 q 196 185 148 128 q 271 367 244 241 l 400 972 l 568 972 l 439 366 q 304 76 397 170 q 64 -17 212 -17 m 595 1062 l 517 1205 l 378 1062 l 266 1062 l 465 1285 l 594 1285 l 701 1062 l 595 1062 z "},"ĵ":{"ha":349,"x_min":-249,"x_max":477,"o":"m -125 -326 q -249 -305 -205 -326 l -222 -171 q -182 -190 -206 -182 q -141 -197 -158 -197 q -40 -147 -81 -197 q 24 12 1 -96 l 170 694 l 334 694 l 188 9 q 73 -245 150 -165 q -125 -326 -4 -326 m 372 815 l 294 958 l 155 815 l 43 815 l 241 1038 l 371 1038 l 477 815 l 372 815 z "},"Ķ":{"ha":868,"x_min":41,"x_max":968,"o":"m 968 972 l 484 494 l 785 0 l 581 0 l 344 417 q 316 477 327 446 l 313 477 l 210 0 l 41 0 l 248 972 l 417 972 l 321 518 l 323 518 l 356 556 l 757 972 l 968 972 m 474 -78 l 361 -286 l 254 -286 l 323 -78 l 474 -78 z "},"ķ":{"ha":730,"x_min":22,"x_max":783,"o":"m 428 370 l 640 0 l 456 0 l 266 363 l 263 363 l 186 0 l 22 0 l 241 1028 l 405 1028 l 270 397 l 273 397 l 584 694 l 783 694 l 428 370 m 405 -78 l 292 -286 l 184 -286 l 254 -78 l 405 -78 z "},"ĸ":{"ha":730,"x_min":22,"x_max":783,"o":"m 427 364 l 640 0 l 456 0 l 265 358 l 262 358 l 186 0 l 22 0 l 170 694 l 333 694 l 269 391 l 272 391 l 584 694 l 783 694 l 427 364 z "},"Ļ":{"ha":677,"x_min":41,"x_max":614,"o":"m 584 0 l 41 0 l 248 972 l 417 972 l 241 143 l 614 143 l 584 0 m 404 -78 l 290 -286 l 183 -286 l 253 -78 l 404 -78 z "},"ļ":{"ha":400,"x_min":59,"x_max":406,"o":"m 213 -12 q 98 26 138 -12 q 59 132 59 63 q 85 295 59 177 q 241 1028 111 414 l 406 1028 l 241 257 q 227 170 227 189 q 286 118 227 118 q 348 129 321 118 l 322 4 q 213 -12 270 -12 m 281 -78 l 168 -286 l 61 -286 l 131 -78 l 281 -78 z "},"Ņ":{"ha":1076,"x_min":41,"x_max":1088,"o":"m 882 0 l 720 0 l 388 699 q 374 732 384 707 q 362 768 364 758 l 358 768 l 352 722 l 344 673 l 201 0 l 41 0 l 247 972 l 424 972 l 749 277 q 771 220 764 243 l 774 220 q 787 311 777 267 l 928 972 l 1088 972 l 882 0 m 551 -78 l 438 -286 l 331 -286 l 401 -78 l 551 -78 z "},"ņ":{"ha":806,"x_min":24,"x_max":745,"o":"m 745 525 q 724 391 745 490 l 641 0 l 477 0 l 561 401 q 574 490 574 474 q 553 556 574 531 q 492 582 532 582 q 400 548 449 582 q 313 456 351 513 q 262 341 275 398 l 190 0 l 24 0 l 130 486 q 165 694 154 602 l 326 694 q 304 545 320 637 l 307 545 q 431 668 361 625 q 569 711 500 711 q 699 663 653 711 q 745 525 745 615 m 412 -78 l 299 -286 l 192 -286 l 262 -78 l 412 -78 z "},"Ŋ":{"ha":1076,"x_min":41,"x_max":1088,"o":"m 363 770 l 359 770 q 353 723 356 750 q 345 674 350 696 l 201 0 l 41 0 l 247 972 l 433 972 l 750 281 q 772 224 766 246 l 775 224 q 788 314 779 271 l 928 972 l 1088 972 l 884 7 q 541 -286 823 -286 q 464 -277 505 -286 q 406 -260 423 -269 l 436 -109 q 490 -133 454 -123 q 550 -144 525 -144 q 654 -108 616 -144 q 711 3 692 -72 l 386 710 q 363 770 365 762 z "},"ŋ":{"ha":806,"x_min":24,"x_max":745,"o":"m 318 -288 q 262 -282 292 -288 q 214 -267 233 -276 l 241 -132 q 280 -151 255 -142 q 321 -159 304 -159 q 424 -108 382 -159 q 488 51 465 -58 l 561 401 q 574 490 574 474 q 553 556 574 531 q 492 582 532 582 q 400 548 449 582 q 313 456 351 513 q 262 341 275 398 l 190 0 l 24 0 l 130 486 q 165 694 154 602 l 326 694 q 304 545 320 637 l 307 545 q 431 668 361 625 q 569 711 500 711 q 699 663 653 711 q 745 525 745 615 q 724 391 745 490 l 651 48 q 535 -210 612 -132 q 318 -288 457 -288 z "},"Ō":{"ha":1050,"x_min":84,"x_max":1017,"o":"m 1017 574 q 950 280 1017 417 q 765 63 883 142 q 485 -17 647 -17 q 275 35 366 -17 q 134 183 184 87 q 84 399 84 279 q 124 635 84 527 q 240 826 164 744 q 411 949 317 909 q 618 989 506 989 q 826 938 735 989 q 967 792 918 886 q 1017 574 1017 697 m 840 568 q 775 768 840 694 q 600 842 711 842 q 428 784 508 842 q 304 621 349 726 q 260 400 260 515 q 323 202 260 276 q 498 129 387 129 q 673 186 595 129 q 795 349 751 243 q 840 568 840 456 m 822 1062 l 451 1062 l 469 1157 l 840 1157 l 822 1062 z "},"ō":{"ha":771,"x_min":47,"x_max":724,"o":"m 724 428 q 673 198 724 302 q 533 38 623 94 q 328 -17 444 -17 q 122 58 197 -17 q 47 267 47 134 q 97 496 47 393 q 237 655 148 599 q 443 711 326 711 q 648 636 572 711 q 724 428 724 560 m 558 424 q 525 539 558 496 q 431 582 491 582 q 319 539 370 582 q 240 425 269 497 q 212 269 212 352 q 246 154 212 196 q 339 113 280 113 q 453 155 402 113 q 531 270 503 197 q 558 424 558 342 m 638 815 l 267 815 l 286 910 l 656 910 l 638 815 z "},"Ŏ":{"ha":1050,"x_min":84,"x_max":1017,"o":"m 1017 574 q 950 280 1017 417 q 765 63 883 142 q 485 -17 647 -17 q 275 35 366 -17 q 134 183 184 87 q 84 399 84 279 q 124 635 84 527 q 240 826 164 744 q 411 949 317 909 q 618 989 506 989 q 826 938 735 989 q 967 792 918 886 q 1017 574 1017 697 m 840 568 q 775 768 840 694 q 600 842 711 842 q 428 784 508 842 q 304 621 349 726 q 260 400 260 515 q 323 202 260 276 q 498 129 387 129 q 673 186 595 129 q 795 349 751 243 q 840 568 840 456 m 872 1253 q 784 1113 845 1162 q 639 1063 722 1063 q 517 1104 565 1063 q 469 1217 469 1146 q 475 1253 469 1237 l 565 1253 l 563 1232 q 587 1174 563 1194 q 648 1154 611 1154 q 777 1253 744 1154 l 872 1253 z "},"ŏ":{"ha":771,"x_min":47,"x_max":724,"o":"m 724 428 q 673 198 724 302 q 533 38 623 94 q 328 -17 444 -17 q 122 58 197 -17 q 47 267 47 134 q 97 496 47 393 q 237 655 148 599 q 443 711 326 711 q 648 636 572 711 q 724 428 724 560 m 558 424 q 525 539 558 496 q 431 582 491 582 q 319 539 370 582 q 240 425 269 497 q 212 269 212 352 q 246 154 212 196 q 339 113 280 113 q 453 155 402 113 q 531 270 503 197 q 558 424 558 342 m 698 1006 q 609 865 671 915 q 465 815 548 815 q 343 857 391 815 q 295 969 295 899 q 300 1006 295 989 l 391 1006 l 389 985 q 413 926 389 947 q 473 906 437 906 q 603 1006 570 906 l 698 1006 z "},"Ŗ":{"ha":848,"x_min":41,"x_max":839,"o":"m 839 728 q 760 532 839 609 q 551 440 680 454 l 551 437 q 656 296 627 412 l 731 0 l 551 0 l 489 270 q 443 362 475 332 q 355 393 410 393 l 294 393 l 210 0 l 41 0 l 248 972 l 548 972 q 762 908 685 972 q 839 728 839 844 m 663 704 q 625 802 663 765 q 509 839 587 839 l 389 839 l 322 527 l 434 527 q 602 575 541 527 q 663 704 663 623 m 461 -78 l 348 -286 l 241 -286 l 311 -78 l 461 -78 z "},"ŗ":{"ha":524,"x_min":22,"x_max":573,"o":"m 541 536 q 461 558 500 558 q 333 487 391 558 q 250 297 275 416 l 186 0 l 22 0 l 119 452 q 159 694 153 621 l 321 694 q 302 548 314 629 l 304 548 q 394 668 347 625 q 505 711 441 711 q 573 701 530 711 l 541 536 m 330 -78 l 216 -286 l 109 -286 l 179 -78 l 330 -78 z "},"Ŝ":{"ha":718,"x_min":22,"x_max":728,"o":"m 698 787 q 595 833 655 816 q 481 851 535 851 q 393 833 429 851 q 337 786 356 815 q 317 721 317 756 q 346 634 317 672 q 455 542 374 595 q 600 410 559 472 q 640 271 640 348 q 597 118 640 186 q 476 17 554 50 q 292 -17 398 -17 q 149 1 222 -17 q 22 48 76 19 l 51 203 q 168 143 102 165 q 296 121 234 121 q 421 156 377 121 q 465 254 465 191 q 434 340 465 303 q 316 431 403 376 q 182 555 224 490 q 140 700 140 621 q 182 848 140 782 q 302 952 224 915 q 485 989 379 989 q 728 940 604 989 l 698 787 m 618 1062 l 540 1205 l 401 1062 l 288 1062 l 487 1285 l 616 1285 l 723 1062 l 618 1062 z "},"ŝ":{"ha":579,"x_min":7,"x_max":608,"o":"m 523 547 q 452 577 493 564 q 370 590 411 590 q 285 566 313 590 q 257 504 257 542 q 280 448 257 470 q 347 401 303 425 q 467 307 435 352 q 499 202 499 262 q 465 87 499 136 q 365 11 431 39 q 204 -17 299 -17 q 95 -5 153 -17 q 7 22 37 6 l 34 157 q 122 119 71 134 q 221 103 174 103 q 310 125 281 103 q 339 187 339 148 q 319 240 339 218 q 241 294 299 262 q 130 381 165 335 q 95 490 95 427 q 128 604 95 553 q 223 683 161 654 q 370 711 285 711 q 470 702 421 711 q 551 680 518 693 l 523 547 m 503 815 l 425 958 l 286 815 l 174 815 l 372 1038 l 502 1038 l 608 815 l 503 815 z "},"Ŧ":{"ha":772,"x_min":121,"x_max":876,"o":"m 845 831 l 570 831 l 509 542 l 671 542 l 640 400 l 479 400 l 394 0 l 226 0 l 310 400 l 145 400 l 176 542 l 340 542 l 401 831 l 121 831 l 152 972 l 876 972 l 845 831 z "},"ŧ":{"ha":485,"x_min":16,"x_max":526,"o":"m 497 568 l 328 568 l 303 450 l 463 450 l 441 351 l 282 351 q 254 212 258 237 q 250 175 250 187 q 264 130 250 144 q 311 116 278 116 q 406 140 342 116 l 378 12 q 244 -14 311 -14 q 83 142 83 -14 q 88 191 83 161 q 120 351 92 222 l 16 351 l 37 450 l 140 450 l 165 568 l 54 568 l 84 694 l 192 694 l 228 861 l 400 906 l 356 694 l 526 694 l 497 568 z "},"Ũ":{"ha":981,"x_min":108,"x_max":1004,"o":"m 441 -17 q 198 70 288 -17 q 108 301 108 156 q 124 447 108 372 l 237 972 l 406 972 l 293 450 q 275 317 275 358 q 325 179 275 229 q 460 129 375 129 q 621 190 562 129 q 708 385 680 252 l 835 972 l 1004 972 l 878 389 q 792 151 846 237 q 652 24 738 66 q 441 -17 567 -17 m 889 1229 q 836 1105 881 1152 q 728 1059 791 1059 q 671 1068 694 1059 q 630 1088 648 1077 q 595 1108 612 1099 q 559 1118 579 1118 q 506 1096 524 1118 q 483 1046 487 1074 l 398 1046 q 451 1169 405 1121 q 565 1217 497 1217 q 618 1207 596 1217 q 657 1186 640 1198 q 692 1165 675 1175 q 732 1156 709 1156 q 780 1176 761 1156 q 804 1229 800 1196 l 889 1229 z "},"ũ":{"ha":803,"x_min":56,"x_max":774,"o":"m 638 0 l 475 0 l 496 147 l 494 147 q 371 26 439 70 q 233 -17 303 -17 q 101 32 146 -17 q 56 170 56 81 q 77 303 56 203 l 159 694 l 323 694 l 239 295 q 224 204 224 219 q 245 140 224 163 q 306 116 265 116 q 402 151 353 116 q 489 244 451 185 q 539 361 527 302 l 610 694 l 774 694 l 675 228 q 638 0 648 102 m 743 998 q 689 874 734 921 q 581 828 644 828 q 525 837 547 828 q 484 858 502 846 q 449 878 465 869 q 412 887 433 887 q 359 865 378 887 q 336 815 340 844 l 252 815 q 304 938 258 890 q 418 986 351 986 q 471 977 450 986 q 511 956 493 967 q 545 935 528 944 q 585 925 562 925 q 634 945 614 925 q 658 998 653 966 l 743 998 z "},"Ū":{"ha":981,"x_min":108,"x_max":1004,"o":"m 441 -17 q 198 70 288 -17 q 108 301 108 156 q 124 447 108 372 l 237 972 l 406 972 l 293 450 q 275 317 275 358 q 325 179 275 229 q 460 129 375 129 q 621 190 562 129 q 708 385 680 252 l 835 972 l 1004 972 l 878 389 q 792 151 846 237 q 652 24 738 66 q 441 -17 567 -17 m 812 1062 l 441 1062 l 459 1157 l 830 1157 l 812 1062 z "},"ū":{"ha":803,"x_min":56,"x_max":774,"o":"m 638 0 l 475 0 l 496 147 l 494 147 q 371 26 439 70 q 233 -17 303 -17 q 101 32 146 -17 q 56 170 56 81 q 77 303 56 203 l 159 694 l 323 694 l 239 295 q 224 204 224 219 q 245 140 224 163 q 306 116 265 116 q 402 151 353 116 q 489 244 451 185 q 539 361 527 302 l 610 694 l 774 694 l 675 228 q 638 0 648 102 m 673 815 l 302 815 l 321 910 l 692 910 l 673 815 z "},"Ŭ":{"ha":981,"x_min":108,"x_max":1004,"o":"m 441 -17 q 198 70 288 -17 q 108 301 108 156 q 124 447 108 372 l 237 972 l 406 972 l 293 450 q 275 317 275 358 q 325 179 275 229 q 460 129 375 129 q 621 190 562 129 q 708 385 680 252 l 835 972 l 1004 972 l 878 389 q 792 151 846 237 q 652 24 738 66 q 441 -17 567 -17 m 861 1253 q 772 1112 833 1162 q 627 1062 711 1062 q 506 1104 553 1062 q 458 1216 458 1145 q 463 1253 458 1236 l 553 1253 l 551 1232 q 575 1173 551 1194 q 636 1153 600 1153 q 766 1253 732 1153 l 861 1253 z "},"ŭ":{"ha":803,"x_min":56,"x_max":774,"o":"m 638 0 l 475 0 l 496 147 l 494 147 q 371 26 439 70 q 233 -17 303 -17 q 101 32 146 -17 q 56 170 56 81 q 77 303 56 203 l 159 694 l 323 694 l 239 295 q 224 204 224 219 q 245 140 224 163 q 306 116 265 116 q 402 151 353 116 q 489 244 451 185 q 539 361 527 302 l 610 694 l 774 694 l 675 228 q 638 0 648 102 m 719 1006 q 630 865 692 915 q 486 815 569 815 q 364 857 412 815 q 316 969 316 899 q 321 1006 316 989 l 412 1006 l 410 985 q 434 926 410 947 q 494 906 458 906 q 624 1006 591 906 l 719 1006 z "},"Ų":{"ha":981,"x_min":108,"x_max":1004,"o":"m 441 -17 q 198 70 288 -17 q 108 301 108 156 q 124 447 108 372 l 237 972 l 406 972 l 293 450 q 275 317 275 358 q 325 179 275 229 q 460 129 375 129 q 621 190 562 129 q 708 385 680 252 l 835 972 l 1004 972 l 878 389 q 792 151 846 237 q 652 24 738 66 q 441 -17 567 -17 m 496 0 q 405 -95 431 -60 q 379 -159 379 -130 q 432 -210 379 -210 q 495 -193 459 -210 l 480 -276 q 398 -293 451 -293 q 306 -263 335 -293 q 277 -183 277 -233 q 307 -99 277 -143 q 410 0 337 -56 l 496 0 z "},"ų":{"ha":803,"x_min":56,"x_max":774,"o":"m 638 0 l 475 0 l 496 147 l 494 147 q 371 26 439 70 q 233 -17 303 -17 q 101 32 146 -17 q 56 170 56 81 q 77 303 56 203 l 159 694 l 323 694 l 239 295 q 224 204 224 219 q 245 140 224 163 q 306 116 265 116 q 402 151 353 116 q 489 244 451 185 q 539 361 527 302 l 610 694 l 774 694 l 675 228 q 638 0 648 102 m 597 0 q 507 -95 533 -60 q 481 -159 481 -130 q 534 -210 481 -210 q 597 -193 561 -210 l 582 -276 q 500 -293 553 -293 q 408 -263 437 -293 q 378 -183 378 -233 q 409 -99 378 -143 q 511 0 439 -56 l 597 0 z "},"Ŵ":{"ha":1345,"x_min":135,"x_max":1462,"o":"m 987 0 l 810 0 l 758 689 q 766 777 758 722 l 763 777 q 724 676 746 722 l 385 0 l 198 0 l 135 972 l 311 972 l 339 279 l 339 269 q 331 178 339 231 l 334 178 q 354 230 338 192 q 376 280 370 269 l 721 972 l 889 972 l 936 262 l 936 251 q 932 178 936 210 l 935 178 q 971 277 943 212 l 1284 972 l 1462 972 l 987 0 m 918 1062 l 840 1205 l 701 1062 l 588 1062 l 787 1285 l 916 1285 l 1023 1062 l 918 1062 z "},"ŵ":{"ha":1052,"x_min":82,"x_max":1105,"o":"m 754 0 l 588 0 l 561 437 l 559 482 q 564 530 559 504 l 561 530 q 530 451 552 494 l 304 0 l 136 0 l 82 694 l 238 694 l 255 209 l 255 201 q 250 137 255 169 l 254 137 q 275 196 271 186 q 524 694 279 205 l 676 694 l 701 179 q 697 136 701 165 l 702 136 q 735 220 707 159 l 944 694 l 1105 694 l 754 0 m 725 815 l 647 958 l 508 815 l 395 815 l 594 1038 l 724 1038 l 830 815 l 725 815 z "},"Ŷ":{"ha":807,"x_min":137,"x_max":932,"o":"m 408 0 l 239 0 l 315 357 l 137 972 l 317 972 l 416 564 l 423 527 l 427 496 l 429 496 q 464 562 450 542 l 744 972 l 932 972 l 484 361 l 408 0 m 646 1062 l 568 1205 l 429 1062 l 317 1062 l 515 1285 l 645 1285 l 751 1062 l 646 1062 z "},"ŷ":{"ha":709,"x_min":-109,"x_max":779,"o":"m -18 -326 q -109 -312 -66 -326 l -80 -180 q -12 -197 -54 -197 q 133 -105 73 -197 l 203 3 l 72 694 l 242 694 l 307 216 l 310 172 l 309 144 l 312 144 q 345 216 329 187 l 604 694 l 779 694 l 311 -88 q 158 -272 234 -218 q -18 -326 81 -326 m 550 815 l 472 958 l 333 815 l 220 815 l 419 1038 l 549 1038 l 655 815 l 550 815 z "},"ſ":{"ha":441,"x_min":-26,"x_max":591,"o":"m 565 897 q 481 915 525 915 q 400 884 429 915 q 359 788 372 852 l 137 -231 l -26 -231 l 197 808 q 481 1044 248 1044 q 591 1028 543 1044 l 565 897 z "},"Ǻ":{"ha":927,"x_min":-70,"x_max":846,"o":"m 673 0 l 637 244 l 257 244 l 121 0 l -70 0 l 486 947 q 441 1046 441 983 q 460 1118 441 1084 q 516 1172 480 1152 q 598 1192 552 1192 q 710 1151 668 1192 q 752 1049 752 1111 q 736 987 752 1015 q 695 943 721 959 l 844 0 l 673 0 m 671 1049 q 650 1099 671 1080 q 595 1119 629 1119 q 543 1099 564 1119 q 522 1049 522 1079 q 542 996 522 1016 q 595 977 562 977 q 649 998 628 977 q 671 1049 671 1019 m 619 380 l 570 750 l 568 770 l 568 799 l 570 823 l 566 823 q 545 771 559 800 q 326 380 531 742 l 619 380 m 846 1419 l 646 1225 l 537 1225 l 696 1419 l 846 1419 z "},"ǻ":{"ha":788,"x_min":47,"x_max":802,"o":"m 634 0 l 468 0 q 472 62 468 17 q 480 132 476 107 l 477 132 q 404 41 435 69 q 337 -2 373 13 q 256 -17 301 -17 q 102 53 157 -17 q 47 246 47 123 q 106 486 47 372 q 265 656 165 600 q 496 711 364 711 q 756 679 606 711 l 661 226 q 642 107 650 178 q 634 0 634 37 m 572 578 q 479 589 530 589 q 342 548 401 589 q 248 426 283 508 q 212 254 212 344 q 238 150 212 186 q 314 113 264 113 q 446 189 387 113 q 532 392 505 266 l 572 578 m 663 933 q 618 831 663 871 q 510 791 574 791 q 404 829 446 791 q 361 928 361 867 q 405 1031 361 992 q 513 1071 448 1071 q 621 1033 580 1071 q 663 933 663 995 m 584 932 q 563 982 584 962 q 510 1001 543 1001 q 459 981 479 1001 q 439 932 439 960 q 458 880 439 899 q 510 861 477 861 q 563 881 542 861 q 584 932 584 901 m 566 1125 l 444 1125 l 649 1346 l 802 1346 l 566 1125 z "},"Ǽ":{"ha":1249,"x_min":-90,"x_max":1301,"o":"m 1272 831 l 912 831 l 854 556 l 1187 556 l 1157 415 l 824 415 l 765 140 l 1145 140 l 1117 0 l 568 0 l 620 244 l 286 244 l 109 0 l -90 0 l 640 972 l 1301 972 l 1272 831 m 707 832 l 389 387 l 650 387 l 743 832 l 707 832 m 943 1062 l 821 1062 l 1026 1283 l 1179 1283 l 943 1062 z "},"ǽ":{"ha":1171,"x_min":47,"x_max":1154,"o":"m 1154 524 q 1037 339 1154 399 q 681 277 920 279 l 680 258 q 722 147 680 187 q 840 107 764 107 q 950 126 892 107 q 1058 174 1009 144 l 1031 39 q 806 -17 927 -17 q 631 35 699 -17 q 543 180 562 86 l 540 180 q 254 -17 414 -17 q 102 51 157 -17 q 47 238 47 118 q 82 420 47 328 q 179 577 118 512 q 325 676 240 642 q 513 711 409 711 q 734 665 627 711 q 920 711 816 711 q 1089 660 1025 711 q 1154 524 1154 608 m 994 519 q 968 573 994 553 q 900 593 942 593 q 770 537 827 593 q 694 390 713 480 q 994 519 994 390 m 614 568 q 509 589 567 589 q 359 545 425 589 q 252 416 293 501 q 211 246 211 332 q 232 149 211 186 q 296 113 253 113 q 420 185 358 113 q 535 399 481 257 q 614 568 579 516 m 735 815 l 614 815 l 819 1036 l 971 1036 l 735 815 z "},"Ǿ":{"ha":1050,"x_min":31,"x_max":1052,"o":"m 945 827 q 1017 572 1017 717 q 945 272 1017 412 q 757 58 874 132 q 481 -17 640 -17 q 336 8 406 -17 q 213 81 267 33 l 99 -36 l 31 31 l 150 153 q 84 399 84 260 q 235 818 84 649 q 618 987 386 987 q 880 897 774 987 l 985 1003 l 1052 937 l 945 827 m 773 786 q 606 850 705 850 q 427 795 507 850 q 299 630 347 739 q 251 398 251 520 q 272 277 251 335 l 773 786 m 848 571 q 823 702 848 643 l 320 189 q 496 118 383 118 q 674 175 595 118 q 801 340 753 231 q 848 571 848 450 m 640 1062 l 518 1062 l 723 1283 l 876 1283 l 640 1062 z "},"ǿ":{"ha":771,"x_min":-26,"x_max":810,"o":"m 692 572 q 724 428 724 512 q 673 199 724 303 q 533 39 623 94 q 328 -17 444 -17 q 134 51 205 -17 l 35 -41 l -26 27 l 78 123 q 47 267 47 189 q 98 497 47 393 q 239 656 149 601 q 444 711 328 711 q 634 644 558 711 l 749 751 l 810 682 l 692 572 m 528 544 q 433 588 494 588 q 314 547 367 588 q 230 433 260 507 q 200 275 200 360 q 203 241 200 257 l 528 544 m 570 421 q 567 458 570 446 l 241 152 q 282 119 256 132 q 338 106 307 106 q 458 147 406 106 q 541 261 511 188 q 570 421 570 334 m 478 815 l 357 815 l 562 1036 l 714 1036 l 478 815 z "},"·":{"ha":343,"x_min":80,"x_max":282,"o":"m 282 442 q 252 374 282 401 q 178 346 221 346 q 109 372 137 346 q 80 436 80 397 q 110 505 80 477 q 183 533 139 533 q 254 507 225 533 q 282 442 282 481 z "},"Ẁ":{"ha":1345,"x_min":135,"x_max":1462,"o":"m 987 0 l 810 0 l 758 689 q 766 777 758 722 l 763 777 q 724 676 746 722 l 385 0 l 198 0 l 135 972 l 311 972 l 339 279 l 339 269 q 331 178 339 231 l 334 178 q 354 230 338 192 q 376 280 370 269 l 721 972 l 889 972 l 936 262 l 936 251 q 932 178 936 210 l 935 178 q 971 277 943 212 l 1284 972 l 1462 972 l 987 0 m 812 1062 l 644 1283 l 785 1283 l 926 1062 l 812 1062 z "},"ẁ":{"ha":1052,"x_min":82,"x_max":1105,"o":"m 754 0 l 588 0 l 561 437 l 559 482 q 564 530 559 504 l 561 530 q 530 451 552 494 l 304 0 l 136 0 l 82 694 l 238 694 l 255 209 l 255 201 q 250 137 255 169 l 254 137 q 275 196 271 186 q 524 694 279 205 l 676 694 l 701 179 q 697 136 701 165 l 702 136 q 735 220 707 159 l 944 694 l 1105 694 l 754 0 m 632 815 l 463 1036 l 604 1036 l 745 815 l 632 815 z "},"Ẃ":{"ha":1345,"x_min":135,"x_max":1462,"o":"m 987 0 l 810 0 l 758 689 q 766 777 758 722 l 763 777 q 724 676 746 722 l 385 0 l 198 0 l 135 972 l 311 972 l 339 279 l 339 269 q 331 178 339 231 l 334 178 q 354 230 338 192 q 376 280 370 269 l 721 972 l 889 972 l 936 262 l 936 251 q 932 178 936 210 l 935 178 q 971 277 943 212 l 1284 972 l 1462 972 l 987 0 m 803 1062 l 682 1062 l 886 1283 l 1039 1283 l 803 1062 z "},"ẃ":{"ha":1052,"x_min":82,"x_max":1105,"o":"m 754 0 l 588 0 l 561 437 l 559 482 q 564 530 559 504 l 561 530 q 530 451 552 494 l 304 0 l 136 0 l 82 694 l 238 694 l 255 209 l 255 201 q 250 137 255 169 l 254 137 q 275 196 271 186 q 524 694 279 205 l 676 694 l 701 179 q 697 136 701 165 l 702 136 q 735 220 707 159 l 944 694 l 1105 694 l 754 0 m 632 815 l 511 815 l 715 1036 l 868 1036 l 632 815 z "},"Ẅ":{"ha":1345,"x_min":135,"x_max":1462,"o":"m 987 0 l 810 0 l 758 689 q 766 777 758 722 l 763 777 q 724 676 746 722 l 385 0 l 198 0 l 135 972 l 311 972 l 339 279 l 339 269 q 331 178 339 231 l 334 178 q 354 230 338 192 q 376 280 370 269 l 721 972 l 889 972 l 936 262 l 936 251 q 932 178 936 210 l 935 178 q 971 277 943 212 l 1284 972 l 1462 972 l 987 0 m 1050 1143 q 1026 1085 1050 1109 q 964 1062 1002 1062 q 903 1086 926 1062 q 879 1143 879 1109 q 903 1199 879 1177 q 964 1221 928 1221 q 1025 1199 1000 1221 q 1050 1143 1050 1177 m 764 1143 q 739 1085 764 1108 q 678 1062 713 1062 q 618 1085 644 1062 q 592 1143 592 1107 q 616 1199 592 1176 q 678 1221 641 1221 q 740 1199 715 1221 q 764 1143 764 1177 z "},"ẅ":{"ha":1052,"x_min":82,"x_max":1105,"o":"m 754 0 l 588 0 l 561 437 l 559 482 q 564 530 559 504 l 561 530 q 530 451 552 494 l 304 0 l 136 0 l 82 694 l 238 694 l 255 209 l 255 201 q 250 137 255 169 l 254 137 q 275 196 271 186 q 524 694 279 205 l 676 694 l 701 179 q 697 136 701 165 l 702 136 q 735 220 707 159 l 944 694 l 1105 694 l 754 0 m 849 896 q 825 839 849 862 q 764 815 802 815 q 702 839 726 815 q 678 896 678 863 q 703 952 678 930 q 763 975 727 975 q 824 952 800 975 q 849 896 849 930 m 564 896 q 538 838 564 861 q 477 815 513 815 q 417 838 443 815 q 391 896 391 861 q 416 952 391 929 q 477 975 440 975 q 539 952 514 975 q 564 896 564 930 z "},"Ỳ":{"ha":807,"x_min":137,"x_max":932,"o":"m 408 0 l 239 0 l 315 357 l 137 972 l 317 972 l 416 564 l 423 527 l 427 496 l 429 496 q 464 562 450 542 l 744 972 l 932 972 l 484 361 l 408 0 m 541 1062 l 372 1283 l 513 1283 l 654 1062 l 541 1062 z "},"ỳ":{"ha":709,"x_min":-109,"x_max":779,"o":"m -18 -326 q -109 -312 -66 -326 l -80 -180 q -12 -197 -54 -197 q 133 -105 73 -197 l 203 3 l 72 694 l 242 694 l 307 216 l 310 172 l 309 144 l 312 144 q 345 216 329 187 l 604 694 l 779 694 l 311 -88 q 158 -272 234 -218 q -18 -326 81 -326 m 467 815 l 298 1036 l 439 1036 l 580 815 l 467 815 z "},"‛":{"ha":349,"x_min":121,"x_max":338,"o":"m 264 984 l 338 682 l 237 682 l 121 984 l 264 984 z "},"‾":{"ha":576,"x_min":59,"x_max":635,"o":"m 59 947 l 59 1028 l 635 1028 l 635 947 l 59 947 z "},"₤":{"ha":774,"x_min":7,"x_max":787,"o":"m 370 327 q 224 128 328 173 l 669 128 l 642 0 l 7 0 l 34 123 q 148 190 104 142 q 217 327 191 237 l 91 327 l 112 429 l 239 429 l 260 523 l 132 523 l 153 624 l 281 624 l 297 697 q 416 912 326 835 q 636 989 505 989 q 787 958 723 989 l 758 819 q 699 848 734 836 q 627 860 664 860 q 512 814 558 860 q 446 674 465 768 l 436 624 l 626 624 l 604 523 l 414 523 l 394 429 l 585 429 l 563 327 l 370 327 z "},"℮":{"ha":833,"x_min":58,"x_max":776,"o":"m 214 359 l 215 109 q 416 26 296 26 q 684 193 589 26 l 732 164 q 588 19 662 62 q 416 -24 515 -24 q 157 85 256 -24 q 58 359 58 195 q 156 636 58 530 q 414 743 254 743 q 672 638 576 743 q 776 359 768 532 l 214 359 m 618 410 l 618 611 q 413 694 530 694 q 214 611 294 694 l 214 410 l 618 410 z "},"⅛":{"ha":1305,"x_min":148,"x_max":1244,"o":"m 329 0 l 196 0 l 996 972 l 1128 972 l 329 0 m 222 396 l 318 854 q 269 822 294 837 q 221 795 244 807 q 178 775 197 783 q 148 764 159 767 l 169 865 q 232 889 199 875 q 295 919 264 903 q 354 952 326 935 q 405 987 382 970 l 460 987 l 337 396 l 222 396 m 1149 313 q 1197 257 1179 290 q 1215 188 1215 223 q 1192 104 1215 141 q 1133 41 1169 67 q 1052 2 1097 16 q 961 -12 1006 -12 q 828 24 877 -12 q 780 124 780 60 q 790 182 780 155 q 817 234 800 210 q 858 278 835 258 q 909 313 882 298 q 877 355 888 331 q 865 407 865 379 q 882 480 865 446 q 929 539 899 514 q 999 578 959 564 q 1085 592 1039 592 q 1151 583 1122 592 q 1201 556 1181 573 q 1233 516 1221 539 q 1244 465 1244 492 q 1218 378 1244 416 q 1149 313 1193 340 m 1107 189 q 1084 243 1107 222 q 1019 264 1062 264 q 972 255 995 264 q 932 231 950 247 q 904 194 915 216 q 894 146 894 172 q 917 97 894 113 q 981 80 939 80 q 1029 87 1006 80 q 1070 108 1053 94 q 1097 142 1087 122 q 1107 189 1107 163 m 1139 446 q 1120 487 1139 471 q 1069 503 1101 503 q 1034 497 1052 503 q 1002 479 1017 491 q 979 452 988 468 q 970 415 970 435 q 988 369 970 388 q 1038 351 1006 351 q 1076 359 1058 351 q 1108 380 1095 367 q 1131 411 1122 394 q 1139 446 1139 428 z "},"⅜":{"ha":1305,"x_min":90,"x_max":1244,"o":"m 329 0 l 196 0 l 996 972 l 1128 972 l 329 0 m 1149 313 q 1197 257 1179 290 q 1215 188 1215 223 q 1192 104 1215 141 q 1133 41 1169 67 q 1052 2 1097 16 q 961 -12 1006 -12 q 828 24 877 -12 q 780 124 780 60 q 790 182 780 155 q 817 234 800 210 q 858 278 835 258 q 909 313 882 298 q 877 355 888 331 q 865 407 865 379 q 882 480 865 446 q 929 539 899 514 q 999 578 959 564 q 1085 592 1039 592 q 1151 583 1122 592 q 1201 556 1181 573 q 1233 516 1221 539 q 1244 465 1244 492 q 1218 378 1244 416 q 1149 313 1193 340 m 1107 189 q 1084 243 1107 222 q 1019 264 1062 264 q 972 255 995 264 q 932 231 950 247 q 904 194 915 216 q 894 146 894 172 q 917 97 894 113 q 981 80 939 80 q 1029 87 1006 80 q 1070 108 1053 94 q 1097 142 1087 122 q 1107 189 1107 163 m 1139 446 q 1120 487 1139 471 q 1069 503 1101 503 q 1034 497 1052 503 q 1002 479 1017 491 q 979 452 988 468 q 970 415 970 435 q 988 369 970 388 q 1038 351 1006 351 q 1076 359 1058 351 q 1108 380 1095 367 q 1131 411 1122 394 q 1139 446 1139 428 m 502 561 q 473 469 502 509 q 391 405 445 428 q 261 382 338 382 q 163 392 214 382 q 90 414 111 401 l 113 518 q 180 491 136 503 q 263 479 224 479 q 351 503 319 479 q 383 565 383 526 q 262 641 383 641 l 198 641 l 220 739 l 285 739 q 382 764 345 739 q 420 827 420 789 q 400 870 420 853 q 335 888 380 888 q 203 852 269 888 l 226 960 q 292 979 253 971 q 369 986 332 986 q 494 948 448 986 q 541 848 541 911 q 502 750 541 789 q 397 696 463 711 l 397 693 q 502 561 502 667 z "},"⅝":{"ha":1305,"x_min":81,"x_max":1244,"o":"m 329 0 l 196 0 l 996 972 l 1128 972 l 329 0 m 234 382 q 81 411 141 382 l 103 514 q 163 488 127 498 q 234 477 199 477 q 337 506 305 477 q 370 581 370 535 q 261 663 370 663 q 150 656 211 663 l 218 975 l 545 975 l 525 876 l 302 876 l 277 756 l 296 758 l 315 758 q 445 714 397 758 q 493 597 493 671 q 424 440 493 498 q 234 382 355 382 m 1149 313 q 1197 257 1179 290 q 1215 188 1215 223 q 1192 104 1215 141 q 1133 41 1169 67 q 1052 2 1097 16 q 961 -12 1006 -12 q 828 24 877 -12 q 780 124 780 60 q 790 182 780 155 q 817 234 800 210 q 858 278 835 258 q 909 313 882 298 q 877 355 888 331 q 865 407 865 379 q 882 480 865 446 q 929 539 899 514 q 999 578 959 564 q 1085 592 1039 592 q 1151 583 1122 592 q 1201 556 1181 573 q 1233 516 1221 539 q 1244 465 1244 492 q 1218 378 1244 416 q 1149 313 1193 340 m 1107 189 q 1084 243 1107 222 q 1019 264 1062 264 q 972 255 995 264 q 932 231 950 247 q 904 194 915 216 q 894 146 894 172 q 917 97 894 113 q 981 80 939 80 q 1029 87 1006 80 q 1070 108 1053 94 q 1097 142 1087 122 q 1107 189 1107 163 m 1139 446 q 1120 487 1139 471 q 1069 503 1101 503 q 1034 497 1052 503 q 1002 479 1017 491 q 979 452 988 468 q 970 415 970 435 q 988 369 970 388 q 1038 351 1006 351 q 1076 359 1058 351 q 1108 380 1095 367 q 1131 411 1122 394 q 1139 446 1139 428 z "},"⅞":{"ha":1257,"x_min":126,"x_max":1177,"o":"m 263 0 l 130 0 l 930 972 l 1063 972 l 263 0 m 1083 313 q 1130 257 1112 290 q 1148 188 1148 223 q 1125 104 1148 141 q 1066 41 1103 67 q 985 2 1030 16 q 895 -12 940 -12 q 762 24 810 -12 q 713 124 713 60 q 723 182 713 155 q 751 234 733 210 q 792 278 768 258 q 843 313 815 298 q 810 355 822 331 q 799 407 799 379 q 816 480 799 446 q 863 539 833 514 q 932 578 892 564 q 1019 592 972 592 q 1085 583 1055 592 q 1135 556 1114 573 q 1166 516 1155 539 q 1177 465 1177 492 q 1152 378 1177 416 q 1083 313 1126 340 m 1040 189 q 1018 243 1040 222 q 952 264 996 264 q 906 255 928 264 q 866 231 884 247 q 838 194 848 216 q 827 146 827 172 q 850 97 827 113 q 914 80 873 80 q 963 87 940 80 q 1003 108 986 94 q 1030 142 1021 122 q 1040 189 1040 163 m 1072 446 q 1054 487 1072 471 q 1002 503 1035 503 q 968 497 985 503 q 936 479 950 491 q 913 452 922 468 q 904 415 904 435 q 922 369 904 388 q 971 351 940 351 q 1010 359 991 351 q 1042 380 1028 367 q 1064 411 1056 394 q 1072 446 1072 428 m 126 396 q 180 510 146 449 q 255 634 214 571 q 343 761 296 698 q 439 880 391 823 l 161 880 l 181 975 l 592 975 l 582 926 q 387 668 469 801 q 248 396 305 536 l 126 396 z "},";":{"ha":339,"x_min":-81,"x_max":325,"o":"m 325 615 q 295 547 325 574 q 222 519 266 519 q 152 546 179 519 q 125 610 125 572 q 154 679 125 652 q 227 706 184 706 q 296 680 268 706 q 325 615 325 654 m 50 -176 l -81 -176 l 65 162 l 222 162 l 50 -176 z "},"΄":{"ha":410,"x_min":111,"x_max":374,"o":"m 374 1032 l 197 795 l 111 795 l 224 1032 l 374 1032 z "},"΅":{"ha":484,"x_min":-15,"x_max":521,"o":"m 521 892 q 498 839 521 861 q 439 817 476 817 q 381 838 405 817 q 357 892 357 860 q 380 946 357 924 q 439 968 403 968 q 497 947 473 968 q 521 892 521 926 m 244 814 l 165 814 l 258 1061 l 401 1061 l 244 814 m 149 892 q 126 838 149 860 q 66 817 103 817 q 9 838 33 817 q -15 892 -15 860 q 8 946 -15 924 q 66 968 31 968 q 125 947 102 968 q 149 892 149 925 z "},"Ά":{"ha":944,"x_min":-53,"x_max":861,"o":"m 690 0 l 654 244 l 273 244 l 138 0 l -53 0 l 517 972 l 707 972 l 861 0 l 690 0 m 586 779 l 586 803 l 587 827 l 584 827 q 552 752 570 786 l 343 380 l 636 380 l 589 746 q 586 779 586 758 m 334 974 l 158 737 l 72 737 l 185 974 l 334 974 z "},"Έ":{"ha":850,"x_min":48,"x_max":909,"o":"m 879 831 l 522 831 l 463 556 l 795 556 l 765 415 l 433 415 l 374 140 l 755 140 l 726 0 l 176 0 l 382 972 l 909 972 l 879 831 m 311 974 l 134 737 l 48 737 l 161 974 l 311 974 z "},"Ή":{"ha":1158,"x_min":48,"x_max":1170,"o":"m 963 0 l 795 0 l 882 416 l 434 416 l 347 0 l 177 0 l 383 972 l 553 972 l 465 565 l 914 565 l 1002 972 l 1170 972 l 963 0 m 311 974 l 134 737 l 48 737 l 161 974 l 311 974 z "},"Ί":{"ha":540,"x_min":48,"x_max":551,"o":"m 345 0 l 176 0 l 382 972 l 551 972 l 345 0 m 311 974 l 134 737 l 48 737 l 161 974 l 311 974 z "},"Ό":{"ha":1157,"x_min":48,"x_max":1123,"o":"m 1123 574 q 1056 280 1123 417 q 871 63 989 142 q 591 -17 753 -17 q 381 35 473 -17 q 240 183 290 87 q 191 399 191 279 q 231 635 191 527 q 347 826 271 744 q 518 949 423 909 q 724 989 612 989 q 933 938 842 989 q 1074 792 1024 886 q 1123 574 1123 697 m 947 568 q 882 768 947 694 q 707 842 817 842 q 535 784 614 842 q 411 621 455 726 q 366 400 366 515 q 430 202 366 276 q 605 129 493 129 q 780 186 702 129 q 902 349 857 243 q 947 568 947 456 m 311 974 l 134 737 l 48 737 l 161 974 l 311 974 z "},"Ύ":{"ha":1023,"x_min":48,"x_max":1147,"o":"m 623 0 l 454 0 l 530 357 l 352 972 l 532 972 l 631 564 l 638 527 l 642 496 l 644 496 q 679 562 665 542 l 959 972 l 1147 972 l 699 361 l 623 0 m 311 974 l 134 737 l 48 737 l 161 974 l 311 974 z "},"Ώ":{"ha":1200,"x_min":48,"x_max":1183,"o":"m 1183 607 q 1097 332 1183 456 q 859 138 1012 209 l 1086 138 l 1057 0 l 679 0 l 711 159 q 926 341 854 231 q 998 589 998 452 q 929 773 998 704 q 746 843 860 843 q 567 794 647 843 q 442 657 487 746 q 397 453 397 568 q 428 295 397 366 q 528 159 458 224 l 495 0 l 117 0 l 145 138 l 385 138 q 261 286 305 198 q 216 474 216 374 q 286 744 216 627 q 479 925 356 861 q 754 989 603 989 q 978 941 880 989 q 1129 805 1076 892 q 1183 607 1183 718 m 311 974 l 134 737 l 48 737 l 161 974 l 311 974 z "},"ΐ":{"ha":406,"x_min":31,"x_max":566,"o":"m 223 -12 q 105 26 146 -12 q 64 132 64 64 q 67 181 64 154 q 77 237 71 209 q 174 694 82 265 l 338 694 l 246 257 q 232 170 232 186 q 247 132 232 145 q 290 118 262 118 q 353 129 326 118 l 327 4 q 223 -12 282 -12 m 566 892 q 544 839 566 861 q 484 817 522 817 q 427 838 450 817 q 403 892 403 860 q 426 946 403 924 q 484 968 448 968 q 543 947 519 968 q 566 892 566 926 m 290 814 l 211 814 l 303 1061 l 447 1061 l 290 814 m 194 892 q 171 838 194 860 q 112 817 149 817 q 54 838 78 817 q 31 892 31 860 q 53 946 31 924 q 112 968 76 968 q 171 947 148 968 q 194 892 194 925 z "},"Α":{"ha":927,"x_min":-70,"x_max":844,"o":"m 673 0 l 637 244 l 256 244 l 121 0 l -70 0 l 500 972 l 690 972 l 844 0 l 673 0 m 569 779 l 569 803 l 570 827 l 567 827 q 535 752 553 786 l 326 380 l 619 380 l 572 746 q 569 779 569 758 z "},"Β":{"ha":848,"x_min":41,"x_max":821,"o":"m 821 758 q 762 594 821 661 q 594 507 703 528 l 594 505 q 724 439 677 492 q 771 307 771 386 q 667 83 771 166 q 383 0 564 0 l 41 0 l 248 972 l 554 972 q 750 916 680 972 q 821 758 821 859 m 646 725 q 609 811 646 782 q 505 840 572 840 l 389 840 l 330 568 l 445 568 q 593 609 540 568 q 646 725 646 651 m 595 302 q 552 399 595 363 q 424 435 510 435 l 302 435 l 238 132 l 378 132 q 539 177 484 132 q 595 302 595 221 z "},"Ε":{"ha":714,"x_min":41,"x_max":774,"o":"m 744 831 l 387 831 l 328 556 l 661 556 l 630 415 l 298 415 l 239 140 l 620 140 l 591 0 l 41 0 l 248 972 l 774 972 l 744 831 z "},"Ζ":{"ha":817,"x_min":-50,"x_max":918,"o":"m 226 140 l 734 140 l 705 0 l -50 0 l -34 80 l 643 831 l 167 831 l 197 972 l 918 972 l 901 897 l 226 140 z "},"Η":{"ha":1022,"x_min":41,"x_max":1034,"o":"m 827 0 l 659 0 l 747 416 l 298 416 l 211 0 l 41 0 l 248 972 l 417 972 l 330 565 l 779 565 l 866 972 l 1034 972 l 827 0 z "},"Ι":{"ha":405,"x_min":41,"x_max":416,"o":"m 210 0 l 41 0 l 247 972 l 416 972 l 210 0 z "},"Κ":{"ha":868,"x_min":41,"x_max":968,"o":"m 968 972 l 484 494 l 785 0 l 581 0 l 344 417 q 316 477 327 446 l 313 477 l 210 0 l 41 0 l 248 972 l 417 972 l 321 518 l 323 518 l 356 556 l 757 972 l 968 972 z "},"Λ":{"ha":949,"x_min":-47,"x_max":845,"o":"m 667 0 l 586 735 q 582 818 582 776 l 577 818 l 562 783 l 538 736 l 142 0 l -47 0 l 505 972 l 710 972 l 845 0 l 667 0 z "},"Μ":{"ha":1172,"x_min":41,"x_max":1183,"o":"m 977 0 l 822 0 l 953 617 q 1004 818 972 703 l 1000 818 q 891 642 966 741 l 616 273 l 511 273 l 400 630 q 378 722 388 667 q 366 818 368 776 l 361 818 q 326 616 338 668 l 195 0 l 41 0 l 248 972 l 446 972 l 572 572 q 596 451 593 508 l 600 451 q 676 585 637 532 l 967 972 l 1183 972 l 977 0 z "},"Ν":{"ha":1076,"x_min":41,"x_max":1088,"o":"m 882 0 l 720 0 l 388 699 q 374 732 384 707 q 362 768 364 758 l 358 768 l 352 722 l 344 673 l 201 0 l 41 0 l 247 972 l 424 972 l 749 277 q 771 220 764 243 l 774 220 q 787 311 777 267 l 928 972 l 1088 972 l 882 0 z "},"Ξ":{"ha":741,"x_min":-38,"x_max":812,"o":"m 781 829 l 155 829 l 185 972 l 812 972 l 781 829 m 597 420 l 165 420 l 194 561 l 627 561 l 597 420 m 622 0 l -38 0 l -7 145 l 653 145 l 622 0 z "},"Ο":{"ha":1050,"x_min":84,"x_max":1017,"o":"m 1017 574 q 950 280 1017 417 q 765 63 883 142 q 485 -17 647 -17 q 275 35 366 -17 q 134 183 184 87 q 84 399 84 279 q 124 635 84 527 q 240 826 164 744 q 411 949 317 909 q 618 989 506 989 q 826 938 735 989 q 967 792 918 886 q 1017 574 1017 697 m 840 568 q 775 768 840 694 q 600 842 711 842 q 428 784 508 842 q 304 621 349 726 q 260 400 260 515 q 323 202 260 276 q 498 129 387 129 q 673 186 595 129 q 795 349 751 243 q 840 568 840 456 z "},"Π":{"ha":1013,"x_min":41,"x_max":1026,"o":"m 821 0 l 652 0 l 827 823 l 384 823 l 210 0 l 41 0 l 247 972 l 1026 972 l 821 0 z "},"Ρ":{"ha":837,"x_min":41,"x_max":845,"o":"m 845 706 q 795 520 845 600 q 652 395 746 439 q 427 351 557 351 l 284 351 l 210 0 l 41 0 l 248 972 l 541 972 q 764 902 683 972 q 845 706 845 831 m 669 694 q 625 798 669 759 q 497 837 581 837 l 388 837 l 313 486 l 432 486 q 606 541 543 486 q 669 694 669 595 z "},"Σ":{"ha":760,"x_min":-63,"x_max":840,"o":"m 810 832 l 389 832 l 591 505 l 208 140 l 697 140 l 668 0 l -63 0 l -43 98 l 399 510 l 163 890 l 180 972 l 840 972 l 810 832 z "},"Τ":{"ha":772,"x_min":121,"x_max":876,"o":"m 845 831 l 570 831 l 394 0 l 226 0 l 401 831 l 121 831 l 152 972 l 876 972 l 845 831 z "},"Υ":{"ha":807,"x_min":137,"x_max":932,"o":"m 408 0 l 239 0 l 315 357 l 137 972 l 317 972 l 416 564 l 423 527 l 427 496 l 429 496 q 464 562 450 542 l 744 972 l 932 972 l 484 361 l 408 0 z "},"Χ":{"ha":865,"x_min":-67,"x_max":977,"o":"m 572 484 l 770 0 l 581 0 l 474 303 q 448 403 460 344 l 445 403 l 439 391 q 412 341 425 357 l 141 0 l -67 0 l 357 499 l 161 972 l 356 972 l 454 677 q 479 578 478 605 l 483 578 l 488 590 q 516 640 504 624 l 781 972 l 977 972 l 572 484 z "},"Ψ":{"ha":1147,"x_min":140,"x_max":1179,"o":"m 679 254 l 627 254 l 574 0 l 420 0 l 473 254 l 436 254 q 220 327 300 254 q 140 527 140 400 q 150 617 140 574 l 225 972 l 379 972 l 305 624 q 296 547 296 585 q 339 436 296 475 q 466 397 381 397 l 503 397 l 626 972 l 780 972 l 657 397 l 703 397 q 868 451 810 397 q 953 629 927 505 l 1025 972 l 1179 972 l 1103 612 q 961 342 1065 430 q 679 254 856 254 z "},"Ω":{"ha":1072,"x_min":-11,"x_max":1055,"o":"m 1055 607 q 970 332 1055 456 q 731 138 884 209 l 959 138 l 930 0 l 551 0 l 584 159 q 799 341 727 231 q 871 589 871 452 q 802 773 871 704 q 618 843 732 843 q 439 794 519 843 q 315 657 359 746 q 270 453 270 568 q 300 295 270 366 q 401 159 330 224 l 368 0 l -11 0 l 18 138 l 258 138 q 133 286 178 198 q 89 474 89 374 q 159 744 89 627 q 352 925 229 861 q 627 989 475 989 q 851 941 753 989 q 1002 805 949 892 q 1055 607 1055 718 z "},"Ϊ":{"ha":405,"x_min":41,"x_max":581,"o":"m 210 0 l 41 0 l 247 972 l 416 972 l 210 0 m 581 1143 q 557 1085 581 1109 q 495 1062 533 1062 q 433 1086 457 1062 q 410 1143 410 1109 q 434 1199 410 1177 q 494 1221 458 1221 q 556 1199 531 1221 q 581 1143 581 1177 m 295 1143 q 270 1085 295 1108 q 209 1062 244 1062 q 149 1085 174 1062 q 123 1143 123 1107 q 147 1199 123 1176 q 209 1221 172 1221 q 270 1199 245 1221 q 295 1143 295 1177 z "},"Ϋ":{"ha":807,"x_min":137,"x_max":932,"o":"m 408 0 l 239 0 l 315 357 l 137 972 l 317 972 l 416 564 l 423 527 l 427 496 l 429 496 q 464 562 450 542 l 744 972 l 932 972 l 484 361 l 408 0 m 776 1143 q 752 1085 776 1109 q 690 1062 728 1062 q 629 1086 652 1062 q 605 1143 605 1109 q 629 1199 605 1177 q 690 1221 654 1221 q 751 1199 726 1221 q 776 1143 776 1177 m 490 1143 q 465 1085 490 1108 q 404 1062 439 1062 q 344 1085 370 1062 q 318 1143 318 1107 q 342 1199 318 1176 q 404 1221 367 1221 q 466 1199 441 1221 q 490 1143 490 1177 z "},"ά":{"ha":886,"x_min":47,"x_max":902,"o":"m 554 350 q 519 531 547 477 q 444 585 492 585 q 333 539 385 585 q 247 414 281 494 q 214 248 214 334 q 239 152 214 189 q 310 115 264 115 q 526 296 427 115 l 554 350 m 566 191 q 434 36 505 88 q 271 -17 363 -17 q 106 52 166 -17 q 47 242 47 121 q 100 475 47 366 q 245 648 153 584 q 441 711 337 711 q 570 666 520 711 q 642 524 620 621 l 645 524 q 732 694 691 609 l 902 694 l 692 342 q 718 176 699 223 q 772 129 736 129 q 819 138 802 129 l 786 3 q 715 -8 751 -8 q 608 41 644 -8 q 568 191 573 90 l 566 191 m 665 1038 l 488 802 l 402 802 l 515 1038 l 665 1038 z "},"έ":{"ha":646,"x_min":18,"x_max":637,"o":"m 298 -17 q 91 35 163 -17 q 18 174 18 87 q 72 298 18 249 q 228 362 126 347 l 229 365 q 145 417 179 379 q 112 508 112 455 q 194 658 112 605 q 429 711 277 711 q 546 702 488 711 q 637 675 604 692 l 612 549 q 522 581 574 568 q 432 593 471 593 q 321 568 362 593 q 281 494 281 543 q 318 432 281 454 q 425 410 356 410 q 518 414 477 410 l 496 298 q 399 302 470 302 q 189 191 189 302 q 334 102 189 102 q 564 156 441 102 l 535 22 q 298 -17 424 -17 m 637 1038 l 461 802 l 375 802 l 488 1038 l 637 1038 z "},"ή":{"ha":825,"x_min":41,"x_max":764,"o":"m 764 532 q 742 387 764 490 q 593 -324 720 285 l 429 -324 l 549 247 q 594 494 594 459 q 574 558 594 534 q 513 582 553 582 q 415 546 464 582 q 328 450 366 510 q 277 332 290 390 l 206 0 l 41 0 l 90 222 q 152 536 152 505 q 111 575 152 575 q 76 570 90 575 l 101 691 q 198 704 134 704 q 319 593 319 704 l 313 545 l 311 534 l 314 534 q 444 665 372 618 q 595 711 516 711 q 722 664 679 711 q 764 532 764 616 m 684 1038 l 508 801 l 422 801 l 535 1038 l 684 1038 z "},"ί":{"ha":406,"x_min":64,"x_max":462,"o":"m 223 -12 q 105 26 146 -12 q 64 132 64 64 q 67 181 64 154 q 77 237 71 209 q 174 694 82 265 l 338 694 l 246 257 q 232 170 232 186 q 247 132 232 145 q 290 118 262 118 q 353 129 326 118 l 327 4 q 223 -12 282 -12 m 462 1037 l 286 800 l 199 800 l 313 1037 l 462 1037 z "},"ΰ":{"ha":849,"x_min":69,"x_max":781,"o":"m 781 505 q 676 120 781 256 q 372 -17 572 -17 q 162 45 235 -17 q 89 219 89 106 q 102 326 89 265 l 134 475 q 145 538 145 528 q 103 577 145 577 q 69 573 87 577 l 94 693 q 188 706 127 706 q 289 679 257 706 q 320 606 320 652 q 302 491 320 569 l 265 323 q 256 242 256 282 q 390 114 256 114 q 552 219 496 114 q 608 505 608 323 q 588 694 608 603 l 760 694 q 781 505 781 600 m 747 892 q 724 839 747 861 q 665 817 702 817 q 607 838 631 817 q 583 892 583 860 q 606 946 583 924 q 665 968 629 968 q 723 947 699 968 q 747 892 747 926 m 470 814 l 391 814 l 484 1061 l 627 1061 l 470 814 m 374 892 q 352 838 374 860 q 292 817 329 817 q 235 838 258 817 q 211 892 211 860 q 234 946 211 924 q 292 968 256 968 q 351 947 328 968 q 374 892 374 925 z "},"β":{"ha":819,"x_min":-47,"x_max":808,"o":"m 808 808 q 746 636 808 704 q 568 545 684 569 l 568 543 q 703 455 655 517 q 751 307 751 393 q 656 69 751 154 q 391 -16 560 -16 q 278 -1 329 -16 q 194 32 227 14 l 118 -324 l -47 -324 l 174 718 q 294 959 208 876 q 532 1042 381 1042 q 732 978 656 1042 q 808 808 808 913 m 635 798 q 605 882 635 851 q 522 913 575 913 q 402 863 446 913 q 337 709 359 813 l 222 165 q 387 114 296 114 q 531 165 478 114 q 583 304 583 216 q 533 426 583 380 q 387 479 484 471 l 410 596 q 635 798 635 617 z "},"γ":{"ha":758,"x_min":43,"x_max":774,"o":"m 774 694 q 645 337 748 512 q 334 -40 542 162 l 271 -323 l 104 -323 q 182 5 134 -213 q 145 339 182 153 q 43 694 108 524 l 226 694 q 295 422 269 568 q 325 142 321 275 l 328 142 q 601 694 566 425 l 774 694 z "},"ζ":{"ha":631,"x_min":41,"x_max":759,"o":"m 217 302 q 253 196 217 236 q 380 127 290 155 q 522 51 480 94 q 564 -53 564 8 q 542 -137 564 -94 q 484 -210 519 -180 l 321 -210 q 374 -156 351 -187 q 396 -96 396 -125 q 382 -54 396 -72 q 339 -20 368 -35 q 221 24 309 -4 q 41 259 41 78 q 132 518 41 390 q 437 809 222 647 l 561 902 l 561 905 l 274 905 l 300 1028 l 759 1028 l 732 909 l 611 816 q 302 530 387 645 q 217 302 217 414 z "},"η":{"ha":825,"x_min":41,"x_max":764,"o":"m 764 532 q 742 387 764 490 q 593 -324 720 285 l 429 -324 l 549 247 q 594 494 594 459 q 574 558 594 534 q 513 582 553 582 q 415 546 464 582 q 328 450 366 510 q 277 332 290 390 l 206 0 l 41 0 l 90 222 q 152 536 152 505 q 111 575 152 575 q 76 570 90 575 l 101 691 q 198 704 134 704 q 319 593 319 704 l 313 545 l 311 534 l 314 534 q 444 665 372 618 q 595 711 516 711 q 722 664 679 711 q 764 532 764 616 z "},"θ":{"ha":827,"x_min":74,"x_max":817,"o":"m 551 1044 q 748 958 679 1044 q 817 711 817 871 q 780 433 817 574 q 680 192 743 292 q 530 37 616 91 q 342 -17 444 -17 q 143 72 212 -17 q 74 324 74 161 q 110 600 74 462 q 211 838 146 737 q 362 991 276 939 q 551 1044 449 1044 m 642 580 q 659 739 659 652 q 627 869 659 823 q 536 916 595 916 q 383 827 451 916 q 280 580 315 738 l 642 580 m 254 458 q 238 309 238 374 q 362 111 238 111 q 510 197 446 111 q 615 458 575 283 l 254 458 z "},"ι":{"ha":406,"x_min":64,"x_max":353,"o":"m 223 -12 q 105 26 146 -12 q 64 132 64 64 q 67 181 64 154 q 77 237 71 209 q 174 694 82 265 l 338 694 l 246 257 q 232 170 232 186 q 247 132 232 145 q 290 118 262 118 q 353 129 326 118 l 327 4 q 223 -12 282 -12 z "},"κ":{"ha":749,"x_min":22,"x_max":764,"o":"m 736 565 q 696 570 720 570 q 654 560 675 570 q 608 531 633 551 q 474 416 582 511 l 675 0 l 494 0 l 351 320 l 231 212 l 186 0 l 22 0 l 169 694 l 334 694 l 265 370 l 475 575 q 598 674 546 644 q 702 703 650 703 q 764 696 741 703 l 736 565 z "},"λ":{"ha":724,"x_min":-65,"x_max":642,"o":"m 481 0 l 419 517 l 117 0 l -65 0 l 391 698 l 378 785 q 274 893 363 893 q 181 873 232 893 l 206 1011 q 325 1027 258 1027 q 466 976 416 1027 q 532 800 515 924 l 642 0 l 481 0 z "},"μ":{"ha":826,"x_min":-47,"x_max":774,"o":"m 494 147 q 254 -17 394 -17 q 207 -7 229 -17 q 179 18 186 2 l 111 -295 l -47 -295 l 159 694 l 323 694 l 240 302 q 226 212 226 231 q 306 116 226 116 q 403 152 353 116 q 490 246 452 187 q 541 366 528 305 l 610 694 l 774 694 l 676 230 q 669 170 669 194 q 683 133 669 146 q 724 119 698 119 q 770 127 745 119 l 743 1 q 631 -13 692 -13 q 529 18 564 -13 q 494 106 494 48 l 496 147 l 494 147 z "},"ν":{"ha":738,"x_min":52,"x_max":732,"o":"m 732 648 q 627 333 732 505 q 341 0 522 161 l 186 0 l 52 694 l 218 694 l 311 138 q 441 295 380 203 q 533 473 502 387 q 564 631 564 560 q 558 694 564 670 l 728 694 q 732 648 732 682 z "},"ξ":{"ha":658,"x_min":37,"x_max":724,"o":"m 37 238 q 124 436 37 349 q 353 558 212 524 q 261 616 296 576 q 226 704 226 655 q 286 826 226 772 q 443 903 345 880 l 443 906 l 380 905 l 238 905 l 264 1028 l 724 1028 l 699 911 q 458 833 541 884 q 376 713 376 783 q 409 638 376 669 q 501 592 442 607 q 611 597 545 597 l 584 459 q 503 464 553 464 q 353 438 420 464 q 249 367 286 412 q 212 268 212 322 q 228 212 212 235 q 273 170 243 189 q 378 127 303 152 q 496 75 459 98 q 552 20 532 51 q 571 -53 571 -11 q 550 -138 571 -94 q 493 -210 528 -182 l 329 -210 q 383 -153 363 -183 q 402 -97 402 -123 q 373 -43 402 -64 q 251 8 344 -22 q 88 100 139 44 q 37 238 37 155 z "},"ο":{"ha":771,"x_min":47,"x_max":724,"o":"m 724 428 q 673 198 724 302 q 533 38 623 94 q 328 -17 444 -17 q 122 58 197 -17 q 47 267 47 134 q 97 496 47 393 q 237 655 148 599 q 443 711 326 711 q 648 636 572 711 q 724 428 724 560 m 558 424 q 525 539 558 496 q 431 582 491 582 q 319 539 370 582 q 240 425 269 497 q 212 269 212 352 q 246 154 212 196 q 339 113 280 113 q 453 155 402 113 q 531 270 503 197 q 558 424 558 342 z "},"ρ":{"ha":802,"x_min":-55,"x_max":755,"o":"m 755 423 q 709 195 755 296 q 581 38 663 94 q 395 -17 499 -17 q 275 6 327 -17 q 193 66 223 29 l 190 66 l 109 -323 l -55 -323 l 87 351 q 220 623 125 534 q 472 711 314 711 q 621 675 556 711 q 720 572 686 638 q 755 423 755 506 m 589 418 q 552 538 589 494 q 454 583 515 583 q 329 532 378 583 q 257 372 281 481 l 218 193 q 282 134 242 156 q 369 112 321 112 q 526 198 463 112 q 589 418 589 284 z "},"ς":{"ha":660,"x_min":47,"x_max":637,"o":"m 220 297 q 237 225 220 255 q 288 173 254 195 q 395 127 321 151 q 536 53 493 97 q 579 -53 579 9 q 557 -138 579 -95 q 500 -210 535 -180 l 336 -210 q 389 -156 366 -187 q 411 -96 411 -125 q 377 -33 411 -59 q 237 25 343 -7 q 47 267 47 83 q 101 494 47 390 q 250 654 155 597 q 463 711 345 711 q 557 700 511 711 q 637 669 604 689 l 606 531 q 459 582 545 582 q 342 545 395 582 q 254 437 289 509 q 220 297 220 365 z "},"υ":{"ha":849,"x_min":69,"x_max":781,"o":"m 781 505 q 676 120 781 256 q 372 -17 572 -17 q 162 45 235 -17 q 89 219 89 106 q 102 326 89 265 l 134 475 q 145 538 145 528 q 103 577 145 577 q 69 573 87 577 l 94 693 q 188 706 127 706 q 289 679 257 706 q 320 606 320 652 q 302 491 320 569 l 265 323 q 256 242 256 282 q 390 114 256 114 q 552 219 496 114 q 608 505 608 323 q 588 694 608 603 l 760 694 q 781 505 781 600 z "},"χ":{"ha":753,"x_min":-148,"x_max":791,"o":"m 433 220 l 499 -63 q 537 -168 516 -140 q 596 -196 559 -196 q 644 -185 621 -196 l 617 -312 q 534 -323 590 -323 q 424 -275 463 -323 q 361 -111 385 -227 l 316 90 l 31 -317 l -148 -317 l 273 237 l 222 464 q 189 556 208 528 q 137 585 170 585 q 89 572 115 585 l 116 701 q 191 711 139 711 q 290 679 255 711 q 343 566 326 646 l 386 366 l 610 694 l 791 694 l 433 220 z "},"ψ":{"ha":1093,"x_min":71,"x_max":1073,"o":"m 591 -17 l 537 -17 l 473 -324 l 321 -324 l 385 -17 l 357 -17 q 148 56 225 -17 q 71 258 71 128 q 85 375 71 307 l 155 694 l 311 694 l 243 375 q 231 275 231 317 q 271 154 231 196 q 386 113 311 113 l 412 113 l 582 903 l 733 903 l 564 113 l 594 113 q 755 177 693 113 q 846 375 818 242 l 915 694 l 1073 694 l 1006 376 q 864 76 962 170 q 591 -17 766 -17 z "},"ω":{"ha":1140,"x_min":50,"x_max":1082,"o":"m 1082 471 q 992 111 1082 239 q 739 -17 903 -17 q 605 20 661 -17 q 527 126 549 58 l 524 126 q 420 16 478 50 q 283 -17 363 -17 q 112 50 174 -17 q 50 236 50 116 q 227 694 50 449 l 404 694 q 264 464 315 583 q 213 248 213 345 q 312 114 213 114 q 484 321 439 114 l 522 505 l 678 505 l 640 321 q 629 235 629 268 q 658 145 629 177 q 736 114 687 114 q 870 202 823 114 q 917 459 917 290 q 906 577 917 511 q 880 694 896 644 l 1055 694 q 1074 584 1067 648 q 1082 471 1082 520 z "},"ϊ":{"ha":406,"x_min":46,"x_max":504,"o":"m 223 -12 q 105 26 146 -12 q 64 132 64 64 q 67 181 64 154 q 77 237 71 209 q 174 694 82 265 l 338 694 l 246 257 q 232 170 232 186 q 247 132 232 145 q 290 118 262 118 q 353 129 326 118 l 327 4 q 223 -12 282 -12 m 504 892 q 480 834 504 858 q 418 811 456 811 q 357 835 380 811 q 333 892 333 859 q 357 948 333 926 q 418 970 382 970 q 479 948 454 970 q 504 892 504 926 m 218 892 q 193 834 218 857 q 132 811 168 811 q 72 834 98 811 q 46 892 46 857 q 71 948 46 925 q 132 970 95 970 q 194 948 169 970 q 218 892 218 926 z "},"ϋ":{"ha":849,"x_min":69,"x_max":781,"o":"m 781 505 q 676 120 781 256 q 372 -17 572 -17 q 162 45 235 -17 q 89 219 89 106 q 102 326 89 265 l 134 475 q 145 538 145 528 q 103 577 145 577 q 69 573 87 577 l 94 693 q 188 706 127 706 q 289 679 257 706 q 320 606 320 652 q 302 491 320 569 l 265 323 q 256 242 256 282 q 390 114 256 114 q 552 219 496 114 q 608 505 608 323 q 588 694 608 603 l 760 694 q 781 505 781 600 m 713 890 q 689 833 713 857 q 627 810 665 810 q 566 833 589 810 q 542 890 542 857 q 566 947 542 925 q 627 969 591 969 q 688 947 663 969 q 713 890 713 924 m 427 890 q 402 833 427 856 q 341 810 376 810 q 281 832 307 810 q 255 890 255 855 q 279 946 255 924 q 341 969 304 969 q 402 947 378 969 q 427 890 427 924 z "},"ό":{"ha":771,"x_min":47,"x_max":724,"o":"m 724 428 q 673 198 724 302 q 533 38 623 94 q 328 -17 444 -17 q 122 58 197 -17 q 47 267 47 134 q 97 496 47 393 q 237 655 148 599 q 443 711 326 711 q 648 636 572 711 q 724 428 724 560 m 558 424 q 525 539 558 496 q 431 582 491 582 q 319 539 370 582 q 240 425 269 497 q 212 269 212 352 q 246 154 212 196 q 339 113 280 113 q 453 155 402 113 q 531 270 503 197 q 558 424 558 342 m 644 1038 l 467 801 l 381 801 l 494 1038 l 644 1038 z "},"ύ":{"ha":849,"x_min":69,"x_max":781,"o":"m 781 505 q 676 120 781 256 q 372 -17 572 -17 q 162 45 235 -17 q 89 219 89 106 q 102 326 89 265 l 134 475 q 145 538 145 528 q 103 577 145 577 q 69 573 87 577 l 94 693 q 188 706 127 706 q 289 679 257 706 q 320 606 320 652 q 302 491 320 569 l 265 323 q 256 242 256 282 q 390 114 256 114 q 552 219 496 114 q 608 505 608 323 q 588 694 608 603 l 760 694 q 781 505 781 600 m 649 1038 l 473 801 l 387 801 l 500 1038 l 649 1038 z "},"ώ":{"ha":1140,"x_min":50,"x_max":1082,"o":"m 1082 471 q 992 111 1082 239 q 739 -17 903 -17 q 605 20 661 -17 q 527 126 549 58 l 524 126 q 420 16 478 50 q 283 -17 363 -17 q 112 50 174 -17 q 50 236 50 116 q 227 694 50 449 l 404 694 q 264 464 315 583 q 213 248 213 345 q 312 114 213 114 q 484 321 439 114 l 522 505 l 678 505 l 640 321 q 629 235 629 268 q 658 145 629 177 q 736 114 687 114 q 870 202 823 114 q 917 459 917 290 q 906 577 917 511 q 880 694 896 644 l 1055 694 q 1074 584 1067 648 q 1082 471 1082 520 m 827 1038 l 650 802 l 564 802 l 677 1038 l 827 1038 z "},"Ё":{"ha":714,"x_min":41,"x_max":774,"o":"m 744 831 l 387 831 l 328 556 l 661 556 l 630 415 l 298 415 l 239 140 l 620 140 l 591 0 l 41 0 l 248 972 l 774 972 l 744 831 m 759 1142 q 735 1085 759 1108 q 673 1061 711 1061 q 612 1085 635 1061 q 588 1142 588 1109 q 612 1199 588 1177 q 673 1221 637 1221 q 734 1198 709 1221 q 759 1142 759 1176 m 473 1142 q 448 1084 473 1107 q 387 1061 422 1061 q 327 1084 353 1061 q 301 1142 301 1107 q 326 1198 301 1175 q 387 1221 350 1221 q 449 1198 424 1221 q 473 1142 473 1176 z "},"Ђ":{"ha":1025,"x_min":142,"x_max":947,"o":"m 618 -12 q 545 -5 582 -12 q 488 9 507 1 l 515 137 q 611 117 556 117 q 732 162 690 117 q 774 290 774 206 q 730 401 774 359 q 602 442 686 442 l 468 442 l 374 0 l 206 0 l 383 831 l 142 831 l 172 972 l 897 972 l 868 831 l 551 831 l 496 572 l 660 572 q 808 540 742 572 q 911 447 875 507 q 947 309 947 387 q 861 75 947 161 q 618 -12 774 -12 z "},"Ѓ":{"ha":696,"x_min":41,"x_max":795,"o":"m 760 829 l 385 829 l 209 0 l 41 0 l 248 972 l 790 972 l 760 829 m 559 1065 l 437 1065 l 642 1286 l 795 1286 l 559 1065 z "},"Є":{"ha":867,"x_min":82,"x_max":916,"o":"m 884 778 q 645 841 788 841 q 402 764 501 841 q 277 558 304 686 l 693 558 l 665 420 l 260 420 l 259 389 q 291 253 259 311 q 384 161 322 194 q 534 128 445 128 q 770 187 658 128 l 736 26 q 622 -7 680 2 q 494 -17 565 -17 q 190 94 298 -17 q 82 405 82 205 q 155 713 82 578 q 358 918 229 848 q 663 989 488 989 q 916 940 795 989 l 884 778 z "},"Ѕ":{"ha":718,"x_min":22,"x_max":728,"o":"m 698 787 q 595 833 655 816 q 481 851 535 851 q 393 833 429 851 q 337 786 356 815 q 317 721 317 756 q 346 634 317 672 q 455 542 374 595 q 600 410 559 472 q 640 271 640 348 q 597 118 640 186 q 476 17 554 50 q 292 -17 398 -17 q 149 1 222 -17 q 22 48 76 19 l 51 203 q 168 143 102 165 q 296 121 234 121 q 421 156 377 121 q 465 254 465 191 q 434 340 465 303 q 316 431 403 376 q 182 555 224 490 q 140 700 140 621 q 182 848 140 782 q 302 952 224 915 q 485 989 379 989 q 728 940 604 989 l 698 787 z "},"Ї":{"ha":405,"x_min":41,"x_max":581,"o":"m 210 0 l 41 0 l 247 972 l 416 972 l 210 0 m 581 1143 q 557 1086 581 1109 q 495 1063 533 1063 q 433 1086 457 1063 q 410 1143 410 1110 q 434 1200 410 1178 q 494 1222 458 1222 q 556 1200 531 1222 q 581 1143 581 1177 m 295 1143 q 270 1086 295 1109 q 209 1063 244 1063 q 149 1085 174 1063 q 123 1143 123 1108 q 147 1199 123 1177 q 209 1222 172 1222 q 270 1200 245 1222 q 295 1143 295 1177 z "},"Љ":{"ha":1373,"x_min":-64,"x_max":1320,"o":"m 899 569 l 1015 569 q 1239 499 1157 569 q 1320 306 1320 429 q 1219 80 1320 159 q 924 0 1117 0 l 610 0 l 785 827 l 545 827 q 357 308 431 490 q 211 57 283 125 q 34 -12 139 -12 q -64 0 -29 -12 l -35 141 q 22 130 -12 130 q 130 194 83 130 q 254 453 178 258 q 437 972 330 648 l 985 972 l 899 569 m 1142 298 q 969 437 1142 437 l 870 437 l 806 132 l 918 132 q 1086 175 1031 132 q 1142 298 1142 218 z "},"Њ":{"ha":1395,"x_min":41,"x_max":1335,"o":"m 713 420 l 299 420 l 211 0 l 41 0 l 247 972 l 416 972 l 330 569 l 745 569 l 831 972 l 1000 972 l 913 569 l 1030 569 q 1254 498 1172 569 q 1335 306 1335 428 q 1234 80 1335 159 q 939 0 1132 0 l 625 0 l 713 420 m 1157 298 q 983 437 1157 437 l 884 437 l 821 132 l 933 132 q 1101 175 1046 132 q 1157 298 1157 218 z "},"Ћ":{"ha":1072,"x_min":122,"x_max":960,"o":"m 376 0 l 206 0 l 383 831 l 122 831 l 152 972 l 878 972 l 848 831 l 551 831 l 497 575 l 694 575 q 891 523 823 575 q 960 368 960 471 q 946 253 960 318 l 893 0 l 724 0 l 775 245 q 784 334 784 285 q 753 408 784 385 q 661 431 722 431 l 467 431 l 376 0 z "},"Ќ":{"ha":868,"x_min":41,"x_max":968,"o":"m 968 972 l 484 494 l 785 0 l 581 0 l 344 417 q 316 477 327 446 l 313 477 l 210 0 l 41 0 l 248 972 l 417 972 l 321 518 l 323 518 l 356 556 l 757 972 l 968 972 m 617 1062 l 496 1062 l 701 1283 l 853 1283 l 617 1062 z "},"Ў":{"ha":810,"x_min":-8,"x_max":943,"o":"m 120 -17 q 46 -9 83 -17 q -8 9 9 -1 l 22 155 q 68 136 41 143 q 121 128 96 128 q 218 164 172 128 q 324 289 264 201 l 148 972 l 330 972 l 423 538 q 437 441 431 506 l 440 441 q 487 530 465 492 l 755 972 l 943 972 l 494 275 q 358 90 411 145 q 248 8 304 34 q 120 -17 192 -17 m 850 1282 q 735 1119 816 1177 q 549 1061 655 1061 q 380 1122 446 1061 q 311 1282 314 1183 l 448 1282 q 478 1192 449 1225 q 559 1158 507 1158 q 651 1191 611 1158 q 712 1282 692 1223 l 850 1282 z "},"Џ":{"ha":1028,"x_min":41,"x_max":1041,"o":"m 41 0 l 246 972 l 415 972 l 239 147 l 697 147 l 872 972 l 1041 972 l 835 0 l 526 0 l 472 -262 l 317 -262 l 374 0 l 41 0 z "},"А":{"ha":927,"x_min":-70,"x_max":844,"o":"m 673 0 l 637 244 l 256 244 l 121 0 l -70 0 l 500 972 l 690 972 l 844 0 l 673 0 m 569 779 l 569 803 l 570 827 l 567 827 q 535 752 553 786 l 326 380 l 619 380 l 572 746 q 569 779 569 758 z "},"Б":{"ha":844,"x_min":41,"x_max":823,"o":"m 792 829 l 385 829 l 330 568 l 484 568 q 708 498 626 568 q 789 306 789 427 q 688 80 789 159 q 393 0 586 0 l 41 0 l 248 972 l 823 972 l 792 829 m 611 298 q 437 437 611 437 l 301 437 l 237 132 l 387 132 q 555 175 500 132 q 611 298 611 218 z "},"В":{"ha":848,"x_min":41,"x_max":821,"o":"m 821 758 q 762 594 821 661 q 594 507 703 528 l 594 505 q 724 439 677 492 q 771 307 771 386 q 667 83 771 166 q 383 0 564 0 l 41 0 l 248 972 l 554 972 q 750 916 680 972 q 821 758 821 859 m 646 725 q 609 811 646 782 q 505 840 572 840 l 389 840 l 330 568 l 445 568 q 593 609 540 568 q 646 725 646 651 m 595 302 q 552 399 595 363 q 424 435 510 435 l 302 435 l 238 132 l 378 132 q 539 177 484 132 q 595 302 595 221 z "},"Г":{"ha":696,"x_min":41,"x_max":790,"o":"m 760 829 l 385 829 l 209 0 l 41 0 l 248 972 l 790 972 l 760 829 z "},"Д":{"ha":1018,"x_min":-102,"x_max":980,"o":"m 805 147 l 951 147 l 864 -262 l 709 -262 l 766 0 l 107 0 l 52 -262 l -102 -262 l -15 147 l 65 147 q 289 466 199 278 q 457 972 380 654 l 980 972 l 805 147 m 570 824 q 257 147 445 338 l 636 147 l 780 824 l 570 824 z "},"Е":{"ha":714,"x_min":41,"x_max":774,"o":"m 744 831 l 387 831 l 328 556 l 661 556 l 630 415 l 298 415 l 239 140 l 620 140 l 591 0 l 41 0 l 248 972 l 774 972 l 744 831 z "},"Ж":{"ha":1206,"x_min":-80,"x_max":1314,"o":"m 860 498 l 1125 0 l 935 0 l 718 446 q 707 482 712 461 l 705 482 l 602 0 l 445 0 l 546 476 l 543 476 l 515 439 l 119 0 l -80 0 l 400 505 l 149 972 l 334 972 l 538 546 l 551 510 l 553 510 l 651 972 l 807 972 l 710 514 l 713 514 q 736 546 720 528 l 1122 972 l 1314 972 l 860 498 z "},"З":{"ha":762,"x_min":-11,"x_max":755,"o":"m 755 760 q 688 589 755 658 q 503 502 621 519 l 503 499 q 631 425 584 484 q 679 281 679 366 q 629 124 679 194 q 492 18 580 54 q 284 -17 404 -17 q -11 45 109 -17 l 20 197 q 150 140 76 161 q 289 119 223 119 q 453 163 395 119 q 511 287 511 207 q 313 431 511 431 l 201 431 l 229 570 l 343 570 q 526 614 466 570 q 586 736 586 657 q 546 822 586 791 q 435 853 506 853 q 311 833 382 853 q 196 791 239 813 l 222 940 q 346 975 276 962 q 477 989 416 989 q 681 928 607 989 q 755 760 755 867 z "},"И":{"ha":1060,"x_min":41,"x_max":1072,"o":"m 866 0 l 709 0 l 836 602 q 865 725 852 676 l 862 725 q 826 682 843 702 q 192 0 809 663 l 41 0 l 247 972 l 404 972 l 275 358 q 252 267 264 305 l 255 267 l 270 284 l 322 342 l 910 972 l 1072 972 l 866 0 z "},"Й":{"ha":1060,"x_min":41,"x_max":1072,"o":"m 866 0 l 709 0 l 836 602 q 865 725 852 676 l 862 725 q 826 682 843 702 q 192 0 809 663 l 41 0 l 247 972 l 404 972 l 275 358 q 252 267 264 305 l 255 267 l 270 284 l 322 342 l 910 972 l 1072 972 l 866 0 m 968 1282 q 853 1119 934 1177 q 667 1061 773 1061 q 498 1122 564 1061 q 429 1282 432 1183 l 566 1282 q 596 1192 567 1225 q 677 1158 625 1158 q 769 1191 729 1158 q 830 1282 810 1223 l 968 1282 z "},"К":{"ha":868,"x_min":41,"x_max":968,"o":"m 968 972 l 484 494 l 785 0 l 581 0 l 344 417 q 316 477 327 446 l 313 477 l 210 0 l 41 0 l 248 972 l 417 972 l 321 518 l 323 518 l 356 556 l 757 972 l 968 972 z "},"Л":{"ha":983,"x_min":-64,"x_max":985,"o":"m 778 0 l 609 0 l 785 827 l 545 827 q 342 272 410 431 q 204 51 273 113 q 34 -12 134 -12 q -64 0 -29 -12 l -35 141 q 22 130 -12 130 q 99 159 64 130 q 173 264 134 189 q 288 545 212 340 q 437 972 363 749 l 985 972 l 778 0 z "},"М":{"ha":1172,"x_min":41,"x_max":1183,"o":"m 977 0 l 822 0 l 953 617 q 1004 818 972 703 l 1000 818 q 891 642 966 741 l 616 273 l 511 273 l 400 630 q 378 722 388 667 q 366 818 368 776 l 361 818 q 326 616 338 668 l 195 0 l 41 0 l 248 972 l 446 972 l 572 572 q 596 451 593 508 l 600 451 q 676 585 637 532 l 967 972 l 1183 972 l 977 0 z "},"Н":{"ha":1022,"x_min":41,"x_max":1034,"o":"m 827 0 l 659 0 l 747 416 l 298 416 l 211 0 l 41 0 l 248 972 l 417 972 l 330 565 l 779 565 l 866 972 l 1034 972 l 827 0 z "},"О":{"ha":1050,"x_min":84,"x_max":1017,"o":"m 1017 574 q 950 280 1017 417 q 765 63 883 142 q 485 -17 647 -17 q 275 35 366 -17 q 134 183 184 87 q 84 399 84 279 q 124 635 84 527 q 240 826 164 744 q 411 949 317 909 q 618 989 506 989 q 826 938 735 989 q 967 792 918 886 q 1017 574 1017 697 m 840 568 q 775 768 840 694 q 600 842 711 842 q 428 784 508 842 q 304 621 349 726 q 260 400 260 515 q 323 202 260 276 q 498 129 387 129 q 673 186 595 129 q 795 349 751 243 q 840 568 840 456 z "},"П":{"ha":1013,"x_min":41,"x_max":1026,"o":"m 821 0 l 652 0 l 827 823 l 384 823 l 210 0 l 41 0 l 247 972 l 1026 972 l 821 0 z "},"Р":{"ha":837,"x_min":41,"x_max":845,"o":"m 845 706 q 795 520 845 600 q 652 395 746 439 q 427 351 557 351 l 284 351 l 210 0 l 41 0 l 248 972 l 541 972 q 764 902 683 972 q 845 706 845 831 m 669 694 q 625 798 669 759 q 497 837 581 837 l 388 837 l 313 486 l 432 486 q 606 541 543 486 q 669 694 669 595 z "},"С":{"ha":884,"x_min":81,"x_max":930,"o":"m 895 774 q 659 842 781 842 q 449 788 541 842 q 307 638 357 734 q 257 422 257 543 q 334 206 257 283 q 543 129 411 129 q 669 144 610 129 q 791 193 728 159 l 755 31 q 503 -17 646 -17 q 280 36 376 -17 q 133 185 184 88 q 81 408 81 281 q 154 711 81 577 q 360 917 227 845 q 668 989 493 989 q 930 936 805 989 l 895 774 z "},"Т":{"ha":772,"x_min":121,"x_max":876,"o":"m 845 831 l 570 831 l 394 0 l 226 0 l 401 831 l 121 831 l 152 972 l 876 972 l 845 831 z "},"У":{"ha":810,"x_min":-8,"x_max":943,"o":"m 120 -17 q 46 -9 83 -17 q -8 9 9 -1 l 22 155 q 68 136 41 143 q 121 128 96 128 q 218 164 172 128 q 324 289 264 201 l 148 972 l 330 972 l 423 538 q 437 441 431 506 l 440 441 q 487 530 465 492 l 755 972 l 943 972 l 494 275 q 358 90 411 145 q 248 8 304 34 q 120 -17 192 -17 z "},"Ф":{"ha":1134,"x_min":78,"x_max":1112,"o":"m 1112 539 q 1051 324 1112 422 q 884 177 989 227 q 640 127 779 127 l 597 127 l 566 -24 l 404 -24 l 436 127 l 410 127 q 165 216 252 127 q 78 469 78 304 q 142 675 78 579 q 312 822 205 771 q 553 872 418 872 l 596 872 l 623 996 l 779 996 l 753 872 l 779 872 q 1022 784 932 872 q 1112 539 1112 696 m 943 539 q 895 693 943 640 q 757 746 847 746 l 726 746 l 624 253 l 648 253 q 804 290 738 253 q 907 393 871 327 q 943 539 943 458 m 532 746 q 384 710 448 746 q 284 609 319 673 q 248 469 248 545 q 296 309 248 366 q 433 253 344 253 l 463 253 l 566 746 l 532 746 z "},"Х":{"ha":865,"x_min":-67,"x_max":977,"o":"m 572 484 l 770 0 l 581 0 l 474 303 q 448 403 460 344 l 445 403 l 439 391 q 412 341 425 357 l 141 0 l -67 0 l 357 499 l 161 972 l 356 972 l 454 677 q 479 578 478 605 l 483 578 l 488 590 q 516 640 504 624 l 781 972 l 977 972 l 572 484 z "},"Ц":{"ha":1076,"x_min":41,"x_max":1042,"o":"m 867 149 l 1002 149 l 915 -262 l 761 -262 l 817 0 l 41 0 l 247 972 l 416 972 l 240 149 l 698 149 l 873 972 l 1042 972 l 867 149 z "},"Ч":{"ha":956,"x_min":145,"x_max":970,"o":"m 764 0 l 595 0 l 680 400 q 386 326 526 326 q 208 380 271 326 q 145 533 145 434 q 159 629 145 570 l 230 972 l 399 972 l 326 631 q 317 566 317 590 q 348 495 317 522 q 445 468 378 468 q 710 541 566 468 l 801 972 l 970 972 l 764 0 z "},"Ш":{"ha":1309,"x_min":41,"x_max":1332,"o":"m 1126 0 l 41 0 l 246 972 l 415 972 l 241 149 l 530 149 l 703 972 l 873 972 l 699 149 l 988 149 l 1163 972 l 1332 972 l 1126 0 z "},"Щ":{"ha":1368,"x_min":41,"x_max":1332,"o":"m 1156 149 l 1293 149 l 1206 -262 l 1051 -262 l 1107 0 l 41 0 l 247 972 l 416 972 l 240 149 l 530 149 l 705 972 l 873 972 l 699 149 l 987 149 l 1163 972 l 1332 972 l 1156 149 z "},"Ъ":{"ha":1017,"x_min":134,"x_max":973,"o":"m 973 308 q 871 79 973 159 q 577 0 769 0 l 225 0 l 401 829 l 134 829 l 164 972 l 600 972 l 513 568 l 665 568 q 891 499 808 568 q 973 308 973 431 m 795 300 q 620 437 795 437 l 485 437 l 421 132 l 570 132 q 795 300 795 132 z "},"Ы":{"ha":1173,"x_min":41,"x_max":1185,"o":"m 980 0 l 811 0 l 1017 972 l 1185 972 l 980 0 m 330 568 l 446 568 q 670 498 589 568 q 752 306 752 428 q 650 80 752 159 q 356 0 549 0 l 41 0 l 248 972 l 416 972 l 330 568 m 574 298 q 400 437 574 437 l 301 437 l 237 132 l 350 132 q 518 175 463 132 q 574 298 574 218 z "},"Ь":{"ha":844,"x_min":41,"x_max":789,"o":"m 330 568 l 484 568 q 708 498 626 568 q 789 306 789 427 q 688 80 789 159 q 393 0 586 0 l 41 0 l 248 972 l 416 972 l 330 568 m 611 298 q 437 437 611 437 l 301 437 l 237 132 l 387 132 q 555 175 500 132 q 611 298 611 218 z "},"Э":{"ha":880,"x_min":13,"x_max":850,"o":"m 850 587 q 777 270 850 410 q 573 56 704 129 q 267 -17 443 -17 q 13 28 120 -17 l 45 184 q 271 128 156 128 q 520 206 418 128 q 652 420 623 284 l 234 420 l 262 558 l 668 558 q 671 601 671 574 q 598 777 671 711 q 397 842 525 842 q 172 795 273 842 l 203 951 q 431 989 305 989 q 740 881 629 989 q 850 587 850 774 z "},"Ю":{"ha":1392,"x_min":41,"x_max":1358,"o":"m 983 989 q 1183 937 1099 989 q 1313 790 1267 885 q 1358 568 1358 694 q 1291 266 1358 404 q 1112 56 1225 129 q 853 -17 998 -17 q 658 31 742 -17 q 527 175 574 78 q 479 383 479 272 l 479 407 l 480 430 l 301 430 l 211 0 l 41 0 l 247 972 l 416 972 l 332 578 l 500 578 q 676 880 548 771 q 983 989 804 989 m 1181 562 q 1123 767 1181 694 q 967 841 1065 841 q 808 787 877 841 q 697 629 739 732 q 656 409 656 525 q 712 203 656 277 q 871 129 768 129 q 1029 183 960 129 q 1140 342 1099 238 q 1181 562 1181 446 z "},"Я":{"ha":862,"x_min":-45,"x_max":873,"o":"m 873 972 l 667 0 l 500 0 l 584 393 l 509 393 q 395 357 443 393 q 307 258 347 322 l 146 0 l -45 0 l 139 284 q 335 450 224 414 l 335 453 q 209 529 256 471 q 161 670 161 588 q 207 831 161 762 q 338 936 252 899 q 547 972 425 972 l 873 972 m 557 839 q 397 793 454 839 q 340 664 340 748 q 384 564 340 602 q 507 527 428 527 l 612 527 l 680 839 l 557 839 z "},"а":{"ha":788,"x_min":47,"x_max":756,"o":"m 634 0 l 468 0 q 472 62 468 17 q 480 132 476 107 l 477 132 q 404 41 435 69 q 337 -2 373 13 q 256 -17 301 -17 q 102 53 157 -17 q 47 246 47 123 q 106 486 47 372 q 265 656 165 600 q 496 711 364 711 q 756 679 606 711 l 661 226 q 642 107 650 178 q 634 0 634 37 m 572 578 q 479 589 530 589 q 342 548 401 589 q 248 426 283 508 q 212 254 212 344 q 238 150 212 186 q 314 113 264 113 q 446 189 387 113 q 532 392 505 266 l 572 578 z "},"б":{"ha":782,"x_min":58,"x_max":812,"o":"m 254 581 l 257 581 q 503 694 360 694 q 671 621 609 694 q 733 423 733 548 q 684 196 733 298 q 547 38 634 94 q 346 -17 460 -17 q 133 71 208 -17 q 58 320 58 158 q 107 632 58 479 q 243 873 157 785 q 326 940 282 913 q 421 986 369 968 q 545 1015 473 1004 q 812 1036 617 1026 l 780 892 q 535 875 601 884 q 425 849 470 866 q 350 805 379 832 q 296 722 320 777 q 254 581 273 667 m 568 411 q 533 528 568 489 q 437 568 498 568 q 328 535 382 568 q 233 448 273 503 q 218 307 218 389 q 253 163 218 214 q 355 113 289 113 q 464 153 416 113 q 540 263 513 193 q 568 411 568 334 z "},"в":{"ha":734,"x_min":49,"x_max":697,"o":"m 697 549 q 649 430 697 479 q 514 363 602 380 q 624 322 584 357 q 664 222 664 286 q 619 98 664 155 q 496 12 574 40 q 319 -17 418 -17 q 111 42 174 -17 q 49 233 49 100 q 98 483 49 370 q 241 653 146 595 q 467 711 336 711 q 593 691 541 711 q 671 634 644 670 q 697 549 697 597 m 538 525 q 515 579 538 558 q 445 601 492 601 q 310 549 367 601 q 231 405 254 496 q 428 422 374 410 q 510 458 481 434 q 538 525 538 482 m 505 222 q 470 288 505 268 q 369 308 435 308 q 211 296 302 308 q 205 231 205 268 q 235 130 205 161 q 336 99 265 99 q 458 134 410 99 q 505 222 505 168 z "},"г":{"ha":607,"x_min":16,"x_max":578,"o":"m 578 535 q 555 442 578 482 q 488 372 532 402 q 357 311 444 342 q 229 257 256 273 q 187 222 201 241 q 173 177 173 203 q 199 125 173 145 q 282 104 226 104 q 390 121 333 104 q 499 166 448 138 l 469 21 q 252 -17 377 -17 q 78 33 139 -17 q 16 171 16 83 q 42 270 16 228 q 115 343 68 312 q 263 409 163 374 q 387 468 357 443 q 417 526 417 492 q 392 574 417 557 q 317 591 367 591 q 219 577 272 591 q 130 545 166 564 l 157 680 q 251 703 197 694 q 354 711 304 711 q 519 665 461 711 q 578 535 578 618 z "}}}
